<svg width="80" height="32" viewBox="0 0 80 32" fill="none" xmlns="http://www.w3.org/2000/svg">
<g clip-path="url(#clip0_13320_38004)">
<path d="M15.7904 31.5527C11.3598 31.5527 7.84175 30.1952 5.2363 27.4802C2.63086 24.7517 1.32812 20.921 1.32812 15.9883C1.32812 11.2302 2.63086 7.43982 5.2363 4.61732C7.85498 1.78129 11.3796 0.363281 15.8102 0.363281C16.9873 0.363281 18.0453 0.430481 18.9843 0.564881C19.9234 0.699281 20.8227 0.887462 21.6824 1.12942C22.3569 1.33102 23.0909 1.60653 23.8844 1.95595C24.678 2.30547 25.3194 2.60782 25.8088 2.8632V10.0205H25.0549C24.6978 9.69789 24.2481 9.31482 23.7058 8.87136C23.1636 8.41427 22.5486 7.97082 21.8609 7.54068C21.1732 7.11053 20.4128 6.74769 19.5794 6.45195C18.7596 6.14279 17.8998 5.98826 17.0005 5.98826C15.9292 5.98826 14.9439 6.16302 14.0445 6.51244C13.1584 6.84844 12.312 7.43982 11.5052 8.28658C10.7647 9.05273 10.1562 10.0877 9.68011 11.3915C9.21721 12.6953 8.98577 14.2342 8.98577 16.0084C8.98577 17.8767 9.23044 19.4492 9.71979 20.7261C10.2092 21.9896 10.8506 23.0111 11.6441 23.7907C12.4113 24.5433 13.2643 25.0877 14.2033 25.4237C15.1555 25.7597 16.1012 25.9278 17.0401 25.9278C18.0189 25.9278 18.9513 25.7664 19.8373 25.4438C20.7235 25.1078 21.4707 24.7382 22.0792 24.335C22.7404 23.9184 23.3223 23.4949 23.8249 23.0649C24.3275 22.6348 24.7639 22.2517 25.1343 21.9157H25.8088V28.9721C25.2665 29.2275 24.6383 29.5232 23.9241 29.8592C23.21 30.1818 22.4759 30.4573 21.722 30.6859C20.7963 30.9681 19.93 31.1831 19.1232 31.331C18.3165 31.4788 17.2055 31.5527 15.7904 31.5527Z" fill="#63B060"/>
<path d="M23.1977 16.0221C23.1977 17.8836 22.6951 19.352 21.69 20.4273C20.6915 21.4958 19.2764 22.0301 17.4446 22.0301C15.626 22.0301 14.2109 21.4958 13.1992 20.4273C12.194 19.352 11.6914 17.8836 11.6914 16.0221C11.6914 14.1404 12.194 12.6686 13.1992 11.6067C14.2109 10.5382 15.626 10.0039 17.4446 10.0039C19.2698 10.0039 20.6849 10.5415 21.69 11.6168C22.6951 12.6854 23.1977 14.1538 23.1977 16.0221ZM19.6367 16.0422C19.6367 15.3702 19.5805 14.8124 19.4681 14.3688C19.3623 13.9185 19.2135 13.559 19.0217 13.2902C18.8167 13.008 18.5853 12.8131 18.3274 12.7055C18.0695 12.5913 17.7752 12.5342 17.4446 12.5342C17.1338 12.5342 16.8527 12.5846 16.6014 12.6854C16.3501 12.7794 16.1187 12.9642 15.9071 13.2398C15.7087 13.5019 15.55 13.8615 15.431 14.3184C15.312 14.7754 15.2524 15.35 15.2524 16.0422C15.2524 16.7344 15.3086 17.2956 15.4211 17.7257C15.5335 18.149 15.679 18.4884 15.8575 18.7438C16.0427 19.0059 16.2741 19.1975 16.5519 19.3184C16.8296 19.4394 17.137 19.4999 17.4744 19.4999C17.7521 19.4999 18.0331 19.4394 18.3174 19.3184C18.6084 19.1975 18.8399 19.016 19.0118 18.7741C19.2168 18.4851 19.3722 18.139 19.478 17.7357C19.5838 17.3258 19.6367 16.7613 19.6367 16.0422Z" fill="#63B060"/>
<path d="M29.0938 14.7275H40.9114V17.339H32.2854V20.9484H36.5553C37.7341 20.9484 38.7118 21.0899 39.4881 21.373C40.2644 21.6561 40.9258 22.1798 41.4721 22.9442C42.0256 23.7085 42.3023 24.6038 42.3023 25.63C42.3023 26.6845 42.0256 27.5868 41.4721 28.337C40.9186 29.0872 40.286 29.6003 39.5744 29.8763C38.8699 30.1523 37.8635 30.2903 36.5553 30.2903H29.0938V14.7275ZM32.2854 27.6788H35.3907C36.3827 27.6788 37.08 27.6328 37.4826 27.5408C37.8851 27.4417 38.2337 27.2223 38.5285 26.8826C38.8304 26.5429 38.9813 26.1254 38.9813 25.63C38.9813 24.9081 38.719 24.3844 38.1942 24.0588C37.6766 23.7262 36.7889 23.5599 35.5309 23.5599H32.2854V27.6788Z" fill="#7FB6E6"/>
<path d="M47.1437 22.4558L44.3942 21.9675C44.7033 20.8776 45.2352 20.0708 45.99 19.5471C46.7447 19.0234 47.8661 18.7615 49.3541 18.7615C50.7055 18.7615 51.7119 18.9208 52.3732 19.2393C53.0345 19.5507 53.4982 19.9505 53.7642 20.4388C54.0373 20.9201 54.1739 21.8083 54.1739 23.1034L54.1416 26.5854C54.1416 27.5762 54.1883 28.3087 54.2817 28.7829C54.3824 29.25 54.5657 29.7524 54.8316 30.2903H51.8341C51.755 30.0922 51.658 29.7984 51.543 29.4092C51.4926 29.2323 51.4567 29.1155 51.4351 29.0589C50.9176 29.5543 50.3641 29.9258 49.7746 30.1735C49.1852 30.4212 48.5562 30.5451 47.8877 30.5451C46.7088 30.5451 45.7779 30.2302 45.095 29.6003C44.4193 28.9704 44.0815 28.1742 44.0815 27.2117C44.0815 26.5748 44.236 26.0086 44.5451 25.5132C44.8542 25.0107 45.2855 24.6286 45.839 24.3667C46.3997 24.0978 47.2048 23.8642 48.2543 23.666C49.6704 23.4042 50.6516 23.16 51.1979 22.9336V22.6363C51.1979 22.0631 51.0542 21.6561 50.7666 21.4155C50.4791 21.1678 49.9364 21.0439 49.1385 21.0439C48.5993 21.0439 48.1788 21.1501 47.8769 21.3624C47.575 21.5677 47.3306 21.9321 47.1437 22.4558ZM51.1979 24.8763C50.8098 25.0036 50.1952 25.1558 49.3541 25.3327C48.5131 25.5097 47.9632 25.6831 47.7044 25.8529C47.309 26.1289 47.1114 26.4792 47.1114 26.9039C47.1114 27.3214 47.2695 27.6824 47.5858 27.9867C47.9021 28.291 48.3046 28.4432 48.7934 28.4432C49.3397 28.4432 49.8609 28.2662 50.3569 27.9124C50.7235 27.6434 50.9643 27.3143 51.0793 26.9251C51.1584 26.6703 51.1979 26.1855 51.1979 25.4707V24.8763Z" fill="#7FB6E6"/>
<path d="M57.0528 19.0163H60.0827V23.1459H64.4173V19.0163H67.458V30.2903H64.4173V25.5557H60.0827V30.2903H57.0528V19.0163Z" fill="#7FB6E6"/>
<path d="M70.4016 19.0163H73.4207V23.6236C73.9239 23.567 74.2797 23.4148 74.4882 23.1671C74.6966 22.9194 74.9482 22.378 75.243 21.5429C75.6311 20.4318 76.0552 19.7205 76.5153 19.4091C76.9753 19.0977 77.5792 18.942 78.3268 18.942C78.5568 18.942 78.9557 18.9597 79.5236 18.9951L79.5344 20.9696C78.7365 20.9696 78.2261 21.0439 78.0033 21.1926C77.7804 21.3483 77.5396 21.8118 77.2809 22.5832C76.9286 23.6236 76.4218 24.2641 75.7605 24.5047C76.7166 24.7666 77.5253 25.584 78.1866 26.957C78.2225 27.0277 78.2621 27.102 78.3052 27.1799L79.9981 30.2903H76.7417L75.2322 27.0313C74.9231 26.3731 74.6535 25.952 74.4235 25.768C74.2006 25.5769 73.8664 25.4814 73.4207 25.4814V30.2903H70.4016V19.0163Z" fill="#7FB6E6"/>
</g>
<defs>
<clipPath id="clip0_13320_38004">
<rect width="80" height="32" fill="white"/>
</clipPath>
</defs>
</svg>
