<svg width="100%" height="100%" viewBox="0 0 283 53" fill="none" xmlns="http://www.w3.org/2000/svg">
<path d="M27.108 40.2852H21.312L20.88 30.5292C20.76 28.2012 20.7 26.1252 20.7 24.3012C20.7 22.9092 20.736 21.5892 20.808 20.3412L16.956 37.6572H11.376L7.272 20.3412C7.416 22.4292 7.488 24.3972 7.488 26.2452C7.488 27.6372 7.452 29.0892 7.38 30.6012L6.948 40.2852H1.188L3.06 15.3372H10.512L14.256 32.2572L17.748 15.3372H25.236L27.108 40.2852Z" fill="#0E1239"/>
<path d="M43.8656 30.0133C43.8656 30.654 43.9586 31.1293 44.1446 31.4393C44.3306 31.7286 44.6406 31.9456 45.0746 32.0903L44.1446 35.0043C43.1733 34.9216 42.3776 34.6943 41.7576 34.3223C41.1583 33.9503 40.6933 33.3716 40.3626 32.5863C39.288 34.2396 37.645 35.0663 35.4336 35.0663C33.801 35.0663 32.499 34.6013 31.5276 33.6713C30.577 32.7206 30.1016 31.491 30.1016 29.9823C30.1016 28.1843 30.7526 26.81 32.0546 25.8593C33.3566 24.9086 35.227 24.4333 37.6656 24.4333H39.5566V23.6273C39.5566 22.6146 39.3293 21.912 38.8746 21.5193C38.42 21.1266 37.6656 20.9303 36.6116 20.9303C35.4543 20.9303 34.0076 21.2196 32.2716 21.7983L31.2796 18.8533C33.3256 18.0473 35.351 17.6443 37.3556 17.6443C39.5876 17.6443 41.2306 18.13 42.2846 19.1013C43.3386 20.052 43.8656 21.478 43.8656 23.3793V30.0133ZM36.6426 31.9043C37.8826 31.9043 38.854 31.2946 39.5566 30.0753V26.9443H38.0996C35.723 26.9443 34.5346 27.833 34.5346 29.6103C34.5346 30.3336 34.7103 30.902 35.0616 31.3153C35.4336 31.708 35.9606 31.9043 36.6426 31.9043ZM55.1148 17.6443C56.2101 17.6443 57.1918 17.8096 58.0598 18.1403C58.9484 18.4503 59.7854 18.9463 60.5708 19.6283L58.6488 22.2323C58.1114 21.819 57.5844 21.5193 57.0678 21.3333C56.5718 21.1473 56.0241 21.0543 55.4248 21.0543C53.0894 21.0543 51.9218 22.8523 51.9218 26.4483C51.9218 28.267 52.2214 29.569 52.8208 30.3543C53.4201 31.1396 54.2778 31.5323 55.3938 31.5323C55.9724 31.5323 56.4994 31.4496 56.9748 31.2843C57.4501 31.0983 58.0081 30.7986 58.6488 30.3853L60.5708 33.1443C59.0001 34.4256 57.2021 35.0663 55.1768 35.0663C53.5648 35.0663 52.1594 34.715 50.9608 34.0123C49.7828 33.3096 48.8734 32.3176 48.2328 31.0363C47.5921 29.7343 47.2718 28.2153 47.2718 26.4793C47.2718 24.7433 47.5921 23.214 48.2328 21.8913C48.8734 20.548 49.7828 19.5043 50.9608 18.7603C52.1594 18.0163 53.5441 17.6443 55.1148 17.6443ZM75.5295 18.1403L74.9715 21.4573H70.3215V34.5703H65.9195V21.4573H60.9905V18.1403H75.5295ZM90.6391 25.9833C90.6391 26.19 90.6081 26.7583 90.5461 27.6883H80.2851C80.4297 29.1763 80.8327 30.2303 81.4941 30.8503C82.1554 31.4703 83.0544 31.7803 84.1911 31.7803C84.8937 31.7803 85.5551 31.6666 86.1751 31.4393C86.7951 31.212 87.4667 30.8503 88.1901 30.3543L90.0191 32.8343C88.1797 34.3223 86.1027 35.0663 83.7881 35.0663C81.2047 35.0663 79.2207 34.2913 77.8361 32.7413C76.4514 31.1913 75.7591 29.0936 75.7591 26.4483C75.7591 24.7743 76.0484 23.276 76.6271 21.9533C77.2264 20.61 78.0841 19.556 79.2001 18.7913C80.3367 18.0266 81.6801 17.6443 83.2301 17.6443C85.5654 17.6443 87.3841 18.378 88.6861 19.8453C89.9881 21.3126 90.6391 23.3586 90.6391 25.9833ZM86.2681 24.7433C86.2681 22.0153 85.2864 20.6513 83.3231 20.6513C82.4137 20.6513 81.7007 20.9923 81.1841 21.6743C80.6881 22.3356 80.3884 23.4206 80.2851 24.9293H86.2681V24.7433ZM102.691 17.6443C104.758 17.6443 106.287 18.409 107.279 19.9383C108.292 21.447 108.798 23.5756 108.798 26.3243C108.798 27.9983 108.54 29.4966 108.023 30.8193C107.507 32.142 106.752 33.1856 105.76 33.9503C104.789 34.6943 103.632 35.0663 102.288 35.0663C100.614 35.0663 99.2606 34.4773 98.2273 33.2993V40.8943L93.8253 41.3903V18.1403H97.7003L97.9173 20.0623C98.5373 19.2563 99.2606 18.657 100.087 18.2643C100.935 17.851 101.803 17.6443 102.691 17.6443ZM100.986 31.7803C103.136 31.7803 104.21 29.972 104.21 26.3553C104.21 24.3713 103.973 22.966 103.497 22.1393C103.022 21.3126 102.299 20.8993 101.327 20.8993C100.707 20.8993 100.129 21.0956 99.5913 21.4883C99.0746 21.8603 98.6199 22.3666 98.2273 23.0073V30.1683C98.9299 31.243 99.8496 31.7803 100.986 31.7803ZM126.459 18.1403L121.933 25.7663L126.893 34.5703H122.15L118.337 27.3783H116.694V34.5703H112.292V18.1403H116.694V24.5883H118.43L122.119 18.1403H126.459ZM137.93 17.6443C139.996 17.6443 141.526 18.409 142.518 19.9383C143.53 21.447 144.037 23.5756 144.037 26.3243C144.037 27.9983 143.778 29.4966 143.262 30.8193C142.745 32.142 141.991 33.1856 140.999 33.9503C140.027 34.6943 138.87 35.0663 137.527 35.0663C135.853 35.0663 134.499 34.4773 133.466 33.2993V40.8943L129.064 41.3903V18.1403H132.939L133.156 20.0623C133.776 19.2563 134.499 18.657 135.326 18.2643C136.173 17.851 137.041 17.6443 137.93 17.6443ZM136.225 31.7803C138.374 31.7803 139.449 29.972 139.449 26.3553C139.449 24.3713 139.211 22.966 138.736 22.1393C138.26 21.3126 137.537 20.8993 136.566 20.8993C135.946 20.8993 135.367 21.0956 134.83 21.4883C134.313 21.8603 133.858 22.3666 133.466 23.0073V30.1683C134.168 31.243 135.088 31.7803 136.225 31.7803ZM161.418 25.9833C161.418 26.19 161.387 26.7583 161.325 27.6883H151.064C151.209 29.1763 151.612 30.2303 152.273 30.8503C152.935 31.4703 153.834 31.7803 154.97 31.7803C155.673 31.7803 156.334 31.6666 156.954 31.4393C157.574 31.212 158.246 30.8503 158.969 30.3543L160.798 32.8343C158.959 34.3223 156.882 35.0663 154.567 35.0663C151.984 35.0663 150 34.2913 148.615 32.7413C147.231 31.1913 146.538 29.0936 146.538 26.4483C146.538 24.7743 146.828 23.276 147.406 21.9533C148.006 20.61 148.863 19.556 149.979 18.7913C151.116 18.0266 152.459 17.6443 154.009 17.6443C156.345 17.6443 158.163 18.378 159.465 19.8453C160.767 21.3126 161.418 23.3586 161.418 25.9833ZM157.047 24.7433C157.047 22.0153 156.066 20.6513 154.102 20.6513C153.193 20.6513 152.48 20.9923 151.963 21.6743C151.467 22.3356 151.168 23.4206 151.064 24.9293H157.047V24.7433ZM178.841 31.2843V39.5923H175.71L175.183 34.5703H165.79L165.263 39.5923H162.132V31.2843H163.186C163.579 30.995 163.899 30.6436 164.147 30.2303C164.416 29.817 164.653 29.1143 164.86 28.1223C165.067 27.1303 165.242 25.7043 165.387 23.8443L165.821 18.1403H177.105V31.2843H178.841ZM172.951 21.1473H169.634L169.448 23.4103C169.303 25.1463 169.117 26.5206 168.89 27.5333C168.683 28.5253 168.394 29.3106 168.022 29.8893C167.671 30.4473 167.185 30.9123 166.565 31.2843H172.951V21.1473ZM195.57 34.5703H191.354V28.3393C191.354 27.1613 191.416 26.0453 191.54 24.9913C191.664 23.9373 191.799 23.1003 191.943 22.4803L186.115 34.5703H181.527V18.1403H185.743V24.4333C185.743 25.5493 185.681 26.655 185.557 27.7503C185.454 28.825 185.33 29.6516 185.185 30.2303L190.92 18.1403H195.57V34.5703ZM212.365 18.1403L211.807 21.4573H207.157V34.5703H202.755V21.4573H197.826V18.1403H212.365ZM222.379 19.2563C223.557 19.2563 224.611 19.556 225.541 20.1553C226.471 20.7546 227.205 21.633 227.742 22.7903C228.28 23.927 228.548 25.2806 228.548 26.8513C228.548 28.546 228.228 30.0133 227.587 31.2533C226.947 32.4726 226.048 33.413 224.89 34.0743C223.733 34.7356 222.39 35.0663 220.86 35.0663C218.463 35.0663 216.562 34.2706 215.156 32.6793C213.772 31.0673 213.079 28.639 213.079 25.3943C213.079 23.0176 213.276 21.0646 213.668 19.5353C214.061 18.006 214.733 16.7556 215.683 15.7843C216.655 14.7923 218.008 14.0173 219.744 13.4593C221.005 13.0666 221.997 12.7153 222.72 12.4053C223.464 12.0746 224.27 11.6406 225.138 11.1033L226.781 13.9863C226.058 14.441 225.293 14.8543 224.487 15.2263C223.681 15.5983 222.7 15.96 221.542 16.3113C220.612 16.6213 219.868 16.983 219.31 17.3963C218.773 17.789 218.339 18.347 218.008 19.0703C217.698 19.773 217.481 20.734 217.357 21.9533C218.556 20.1553 220.23 19.2563 222.379 19.2563ZM220.829 31.7803C221.801 31.7803 222.565 31.429 223.123 30.7263C223.681 30.003 223.96 28.763 223.96 27.0063C223.96 25.3736 223.723 24.2266 223.247 23.5653C222.793 22.8833 222.111 22.5423 221.201 22.5423C220.499 22.5423 219.837 22.7386 219.217 23.1313C218.597 23.5033 218.081 24.0716 217.667 24.8363V26.9133C217.667 28.5253 217.946 29.7446 218.504 30.5713C219.062 31.3773 219.837 31.7803 220.829 31.7803ZM244.155 30.0133C244.155 30.654 244.248 31.1293 244.434 31.4393C244.62 31.7286 244.93 31.9456 245.364 32.0903L244.434 35.0043C243.462 34.9216 242.667 34.6943 242.047 34.3223C241.447 33.9503 240.982 33.3716 240.652 32.5863C239.577 34.2396 237.934 35.0663 235.723 35.0663C234.09 35.0663 232.788 34.6013 231.817 33.6713C230.866 32.7206 230.391 31.491 230.391 29.9823C230.391 28.1843 231.042 26.81 232.344 25.8593C233.646 24.9086 235.516 24.4333 237.955 24.4333H239.846V23.6273C239.846 22.6146 239.618 21.912 239.164 21.5193C238.709 21.1266 237.955 20.9303 236.901 20.9303C235.743 20.9303 234.297 21.2196 232.561 21.7983L231.569 18.8533C233.615 18.0473 235.64 17.6443 237.645 17.6443C239.877 17.6443 241.52 18.13 242.574 19.1013C243.628 20.052 244.155 21.478 244.155 23.3793V30.0133ZM236.932 31.9043C238.172 31.9043 239.143 31.2946 239.846 30.0753V26.9443H238.389C236.012 26.9443 234.824 27.833 234.824 29.6103C234.824 30.3336 234.999 30.902 235.351 31.3153C235.723 31.708 236.25 31.9043 236.932 31.9043ZM258.039 34.5703V27.8743H252.955V34.5703H248.553V18.1403H252.955V24.5573H258.039V18.1403H262.441V34.5703H258.039ZM280.944 18.1403L276.418 25.7663L281.378 34.5703H276.635L272.822 27.3783H271.179V34.5703H266.777V18.1403H271.179V24.5883H272.915L276.604 18.1403H280.944Z" fill="#0E1239"/>
<rect x="30.8594" y="37.5703" width="60" height="3" fill="#D70F27"/>
</svg>
