<svg width="126" height="30" viewBox="0 0 126 30" fill="none" xmlns="http://www.w3.org/2000/svg">
<path d="M21.084 26H16.576L16.24 18.412C16.1467 16.6013 16.1 14.9867 16.1 13.568C16.1 12.4853 16.128 11.4587 16.184 10.488L13.188 23.956H8.848L5.656 10.488C5.768 12.112 5.824 13.6427 5.824 15.08C5.824 16.1627 5.796 17.292 5.74 18.468L5.404 26H0.924L2.38 6.596H8.176L11.088 19.756L13.804 6.596H19.628L21.084 26Z" fill="#0E1239"/>
<path d="M33.1156 17.1982C33.1156 17.6322 33.1786 17.9542 33.3046 18.1642C33.4306 18.3602 33.6406 18.5072 33.9346 18.6052L33.3046 20.5792C32.6466 20.5232 32.1076 20.3692 31.6876 20.1172C31.2816 19.8652 30.9666 19.4732 30.7426 18.9412C30.0146 20.0612 28.9016 20.6212 27.4036 20.6212C26.2976 20.6212 25.4156 20.3062 24.7576 19.6762C24.1136 19.0322 23.7916 18.1992 23.7916 17.1772C23.7916 15.9592 24.2326 15.0282 25.1146 14.3842C25.9966 13.7402 27.2636 13.4182 28.9156 13.4182H30.1966V12.8722C30.1966 12.1862 30.0426 11.7102 29.7346 11.4442C29.4266 11.1782 28.9156 11.0452 28.2016 11.0452C27.4176 11.0452 26.4376 11.2412 25.2616 11.6332L24.5896 9.63816C25.9756 9.09216 27.3476 8.81916 28.7056 8.81916C30.2176 8.81916 31.3306 9.14816 32.0446 9.80616C32.7586 10.4502 33.1156 11.4162 33.1156 12.7042V17.1982ZM28.2226 18.4792C29.0626 18.4792 29.7206 18.0662 30.1966 17.2402V15.1192H29.2096C27.5996 15.1192 26.7946 15.7212 26.7946 16.9252C26.7946 17.4152 26.9136 17.8002 27.1516 18.0802C27.4036 18.3462 27.7606 18.4792 28.2226 18.4792ZM40.736 8.81916C41.478 8.81916 42.143 8.93116 42.731 9.15516C43.333 9.36516 43.9 9.70116 44.432 10.1632L43.13 11.9272C42.766 11.6472 42.409 11.4442 42.059 11.3182C41.723 11.1922 41.352 11.1292 40.946 11.1292C39.364 11.1292 38.573 12.3472 38.573 14.7832C38.573 16.0152 38.776 16.8972 39.182 17.4292C39.588 17.9612 40.169 18.2272 40.925 18.2272C41.317 18.2272 41.674 18.1712 41.996 18.0592C42.318 17.9332 42.696 17.7302 43.13 17.4502L44.432 19.3192C43.368 20.1872 42.15 20.6212 40.778 20.6212C39.686 20.6212 38.734 20.3832 37.922 19.9072C37.124 19.4312 36.508 18.7592 36.074 17.8912C35.64 17.0092 35.423 15.9802 35.423 14.8042C35.423 13.6282 35.64 12.5922 36.074 11.6962C36.508 10.7862 37.124 10.0792 37.922 9.57516C38.734 9.07116 39.672 8.81916 40.736 8.81916ZM54.5653 9.15516L54.1873 11.4022H51.0373V20.2852H48.0553V11.4022H44.7163V9.15516H54.5653ZM64.8009 14.4682C64.8009 14.6082 64.7799 14.9932 64.7379 15.6232H57.7869C57.8849 16.6312 58.1579 17.3452 58.6059 17.7652C59.0539 18.1852 59.6629 18.3952 60.4329 18.3952C60.9089 18.3952 61.3569 18.3182 61.7769 18.1642C62.1969 18.0102 62.6519 17.7652 63.1419 17.4292L64.3809 19.1092C63.1349 20.1172 61.7279 20.6212 60.1599 20.6212C58.4099 20.6212 57.0659 20.0962 56.1279 19.0462C55.1899 17.9962 54.7209 16.5752 54.7209 14.7832C54.7209 13.6492 54.9169 12.6342 55.3089 11.7382C55.7149 10.8282 56.2959 10.1142 57.0519 9.59616C57.8219 9.07816 58.7319 8.81916 59.7819 8.81916C61.3639 8.81916 62.5959 9.31616 63.4779 10.3102C64.3599 11.3042 64.8009 12.6902 64.8009 14.4682ZM61.8399 13.6282C61.8399 11.7802 61.1749 10.8562 59.8449 10.8562C59.2289 10.8562 58.7459 11.0872 58.3959 11.5492C58.0599 11.9972 57.8569 12.7322 57.7869 13.7542H61.8399V13.6282ZM72.9653 8.81916C74.3653 8.81916 75.4013 9.33716 76.0733 10.3732C76.7593 11.3952 77.1023 12.8372 77.1023 14.6992C77.1023 15.8332 76.9273 16.8482 76.5773 17.7442C76.2273 18.6402 75.7163 19.3472 75.0443 19.8652C74.3863 20.3692 73.6023 20.6212 72.6923 20.6212C71.5583 20.6212 70.6413 20.2222 69.9413 19.4242V24.5692L66.9593 24.9052V9.15516H69.5843L69.7313 10.4572C70.1513 9.91116 70.6413 9.50516 71.2013 9.23916C71.7753 8.95916 72.3633 8.81916 72.9653 8.81916ZM71.8103 18.3952C73.2663 18.3952 73.9943 17.1702 73.9943 14.7202C73.9943 13.3762 73.8333 12.4242 73.5113 11.8642C73.1893 11.3042 72.6993 11.0242 72.0413 11.0242C71.6213 11.0242 71.2293 11.1572 70.8653 11.4232C70.5153 11.6752 70.2073 12.0182 69.9413 12.4522V17.3032C70.4173 18.0312 71.0403 18.3952 71.8103 18.3952ZM85.097 9.91116C85.895 9.91116 86.609 10.1142 87.239 10.5202C87.869 10.9262 88.366 11.5212 88.73 12.3052C89.094 13.0752 89.276 13.9922 89.276 15.0562C89.276 16.2042 89.059 17.1982 88.625 18.0382C88.191 18.8642 87.582 19.5012 86.798 19.9492C86.014 20.3972 85.104 20.6212 84.068 20.6212C82.444 20.6212 81.156 20.0822 80.204 19.0042C79.266 17.9122 78.797 16.2672 78.797 14.0692C78.797 12.4592 78.93 11.1362 79.196 10.1002C79.462 9.06416 79.917 8.21716 80.561 7.55916C81.219 6.88716 82.136 6.36216 83.312 5.98416C84.166 5.71816 84.838 5.48016 85.328 5.27016C85.832 5.04616 86.378 4.75216 86.966 4.38816L88.079 6.34116C87.589 6.64916 87.071 6.92916 86.525 7.18116C85.979 7.43316 85.314 7.67816 84.53 7.91616C83.9 8.12616 83.396 8.37116 83.018 8.65116C82.654 8.91716 82.36 9.29516 82.136 9.78516C81.926 10.2612 81.779 10.9122 81.695 11.7382C82.507 10.5202 83.641 9.91116 85.097 9.91116ZM84.047 18.3952C84.705 18.3952 85.223 18.1572 85.601 17.6812C85.979 17.1912 86.168 16.3512 86.168 15.1612C86.168 14.0552 86.007 13.2782 85.685 12.8302C85.377 12.3682 84.915 12.1372 84.299 12.1372C83.823 12.1372 83.375 12.2702 82.955 12.5362C82.535 12.7882 82.185 13.1732 81.905 13.6912V15.0982C81.905 16.1902 82.094 17.0162 82.472 17.5762C82.85 18.1222 83.375 18.3952 84.047 18.3952ZM99.848 17.1982C99.848 17.6322 99.911 17.9542 100.037 18.1642C100.163 18.3602 100.373 18.5072 100.667 18.6052L100.037 20.5792C99.379 20.5232 98.84 20.3692 98.42 20.1172C98.014 19.8652 97.699 19.4732 97.475 18.9412C96.747 20.0612 95.634 20.6212 94.136 20.6212C93.03 20.6212 92.148 20.3062 91.49 19.6762C90.846 19.0322 90.524 18.1992 90.524 17.1772C90.524 15.9592 90.965 15.0282 91.847 14.3842C92.729 13.7402 93.996 13.4182 95.648 13.4182H96.929V12.8722C96.929 12.1862 96.775 11.7102 96.467 11.4442C96.159 11.1782 95.648 11.0452 94.934 11.0452C94.15 11.0452 93.17 11.2412 91.994 11.6332L91.322 9.63816C92.708 9.09216 94.08 8.81916 95.438 8.81916C96.95 8.81916 98.063 9.14816 98.777 9.80616C99.491 10.4502 99.848 11.4162 99.848 12.7042V17.1982ZM94.955 18.4792C95.795 18.4792 96.453 18.0662 96.929 17.2402V15.1192H95.942C94.332 15.1192 93.527 15.7212 93.527 16.9252C93.527 17.4152 93.646 17.8002 93.884 18.0802C94.136 18.3462 94.493 18.4792 94.955 18.4792ZM109.253 20.2852V15.7492H105.809V20.2852H102.827V9.15516H105.809V13.5022H109.253V9.15516H112.235V20.2852H109.253ZM124.77 9.15516L121.704 14.3212L125.064 20.2852H121.851L119.268 15.4132H118.155V20.2852H115.173V9.15516H118.155V13.5232H119.331L121.83 9.15516H124.77Z" fill="#0E1239"/>
<rect x="23" y="23" width="41" height="3" fill="#D70F27"/>
</svg>
