<svg width="85" height="31" viewBox="0 0 85 31" fill="none" xmlns="http://www.w3.org/2000/svg">
<path d="M14.602 31C10.1286 31 6.57659 29.6507 3.94596 26.9522C1.31532 24.2403 0 20.4329 0 15.5301C0 10.8009 1.31532 7.03361 3.94596 4.22818C6.58995 1.40939 10.1487 0 14.6221 0C15.8105 0 16.8788 0.0667959 17.8269 0.200388C18.775 0.33398 19.683 0.521008 20.551 0.761474C21.232 0.961862 21.9732 1.23573 22.7744 1.58306C23.5756 1.9304 24.2232 2.23098 24.7173 2.48481V9.59858H23.9562C23.5956 9.27796 23.1416 8.89722 22.5941 8.45637C22.0466 8.00216 21.4257 7.5613 20.7313 7.13381C20.0369 6.70631 19.2691 6.34562 18.4278 6.05171C17.5999 5.74445 16.7319 5.59082 15.8239 5.59082C14.7423 5.59082 13.7474 5.76449 12.8394 6.11183C11.9447 6.44581 11.0901 7.03361 10.2755 7.87524C9.52771 8.63672 8.91345 9.66537 8.43273 10.9612C7.96536 12.2571 7.73167 13.7867 7.73167 15.5501C7.73167 17.407 7.97871 18.9701 8.47279 20.2392C8.96687 21.4949 9.61451 22.5102 10.4157 23.2851C11.1902 24.0332 12.0515 24.5742 12.9996 24.9082C13.9611 25.2422 14.9158 25.4092 15.8639 25.4092C16.8521 25.4092 17.7935 25.2489 18.6882 24.9282C19.5829 24.5943 20.3374 24.2269 20.9516 23.8261C21.6193 23.412 22.2069 22.9912 22.7143 22.5637C23.2217 22.1362 23.6624 21.7554 24.0363 21.4215H24.7173V28.435C24.1698 28.6889 23.5355 28.9828 22.8144 29.3167C22.0933 29.6374 21.3522 29.9112 20.5911 30.1383C19.6563 30.4189 18.7817 30.6326 17.9671 30.7796C17.1526 30.9265 16.0309 31 14.602 31Z" fill="#2E7EB1"/>
<path d="M22.5394 15.5072C22.5394 17.5831 21.9701 19.2206 20.8314 20.4197C19.7003 21.6112 18.0972 22.207 16.0222 22.207C13.9622 22.207 12.3591 21.6112 11.213 20.4197C10.0744 19.2206 9.50508 17.5831 9.50508 15.5072C9.50508 13.4088 10.0744 11.7676 11.213 10.5835C12.3591 9.39197 13.9622 8.79618 16.0222 8.79618C18.0897 8.79618 19.6928 9.39571 20.8314 10.5948C21.9701 11.7864 22.5394 13.4238 22.5394 15.5072ZM18.5055 15.5297C18.5055 14.7803 18.4418 14.1583 18.3145 13.6637C18.1946 13.1615 18.0261 12.7606 17.8088 12.4608C17.5766 12.1461 17.3144 11.9287 17.0223 11.8088C16.7301 11.6814 16.3968 11.6177 16.0222 11.6177C15.6702 11.6177 15.3518 11.6739 15.0671 11.7864C14.7825 11.8913 14.5203 12.0974 14.2806 12.4046C14.0558 12.6969 13.8761 13.0978 13.7412 13.6074C13.6064 14.117 13.539 14.7578 13.539 15.5297C13.539 16.3016 13.6026 16.9274 13.73 17.407C13.8573 17.8791 14.0221 18.2576 14.2244 18.5424C14.4341 18.8346 14.6963 19.0482 15.0109 19.1831C15.3256 19.318 15.6739 19.3855 16.0559 19.3855C16.3706 19.3855 16.6889 19.318 17.011 19.1831C17.3406 19.0482 17.6028 18.8459 17.7976 18.5761C18.0298 18.2538 18.2059 17.8679 18.3257 17.4182C18.4456 16.9611 18.5055 16.3316 18.5055 15.5297Z" fill="#2E7EB1"/>
<path d="M41.5222 25.6492C41.5222 26.466 41.3649 27.2192 41.0503 27.9087C40.7431 28.5906 40.3199 29.1489 39.7805 29.5836C39.1363 30.1007 38.4396 30.4679 37.6905 30.6852C36.9489 30.8951 36.0425 31 34.9713 31H28.0946V14.2618H40.2525V17.4543H32.2746V20.5456H35.0387C36.0425 20.5456 36.9414 20.6206 37.7355 20.7704C38.5295 20.9128 39.2412 21.2313 39.8704 21.726C40.4472 22.1756 40.8667 22.7414 41.1289 23.4234C41.3911 24.0979 41.5222 24.8398 41.5222 25.6492ZM37.1849 25.7728C37.1849 25.4955 37.1549 25.2332 37.095 24.9859C37.0351 24.7386 36.904 24.51 36.7017 24.3002C36.4995 24.0979 36.2223 23.9367 35.8702 23.8168C35.5182 23.6969 35.0312 23.637 34.4095 23.637H32.2746V27.8974H34.4095C35.271 27.8974 35.9489 27.7138 36.4433 27.3466C36.9377 26.9794 37.1849 26.4548 37.1849 25.7728Z" fill="#FA614A"/>
<path d="M51.8358 27.3691V24.7386C51.1691 24.8061 50.6297 24.866 50.2177 24.9185C49.8057 24.9634 49.4012 25.0571 49.0042 25.1995C48.6596 25.3194 48.3899 25.503 48.1952 25.7503C48.0079 25.9901 47.9143 26.3124 47.9143 26.7171C47.9143 27.3091 48.0716 27.7176 48.3862 27.9424C48.7083 28.1597 49.1802 28.2684 49.802 28.2684C50.1466 28.2684 50.4987 28.1897 50.8582 28.0323C51.2178 27.8749 51.5437 27.6539 51.8358 27.3691ZM51.8358 29.3251C51.5661 29.5499 51.3227 29.7522 51.1054 29.9321C50.8957 30.1119 50.611 30.2918 50.2515 30.4717C49.8994 30.644 49.5548 30.7752 49.2177 30.8651C48.8881 30.955 48.4237 31 47.8244 31C46.7082 31 45.7793 30.6253 45.0377 29.8759C44.3036 29.1265 43.9366 28.1822 43.9366 27.0431C43.9366 26.1063 44.1238 25.3494 44.4984 24.7723C44.8729 24.1953 45.4123 23.7381 46.1164 23.4009C46.8281 23.0562 47.6783 22.8164 48.6671 22.6815C49.6559 22.5466 50.7196 22.4416 51.8583 22.3667V22.2993C51.8583 21.6023 51.5998 21.1227 51.083 20.8604C50.5736 20.5906 49.8057 20.4557 48.7795 20.4557C48.315 20.4557 47.7719 20.5419 47.1502 20.7142C46.5284 20.8791 45.9217 21.0927 45.3299 21.355H44.9928V18.3086C45.3823 18.1962 46.0116 18.065 46.8805 17.9152C47.7495 17.7578 48.6259 17.6791 49.5098 17.6791C51.6822 17.6791 53.2628 18.0426 54.2516 18.7695C55.2479 19.4889 55.7461 20.5906 55.7461 22.0744V30.6628H51.8358V29.3251Z" fill="#FA614A"/>
<path d="M70.0276 31H66.0949V25.593H62.0273V31H58.0945V18.3761H62.0273V22.7489H66.0949V18.3761H70.0276V31Z" fill="#FA614A"/>
<path d="M85 31H80.4717L77.4828 25.9976H76.4715V31H72.5388V18.3761H76.4715V23.4459C77.0258 23.4384 77.4379 23.3597 77.7075 23.2098C77.9847 23.0524 78.2843 22.644 78.6064 21.9845C78.7113 21.7597 78.8237 21.5124 78.9435 21.2426C79.0634 20.9728 79.172 20.733 79.2694 20.5231C79.6664 19.6913 80.1533 19.1217 80.7301 18.8145C81.3144 18.5072 82.0223 18.3536 82.8538 18.3536C83.146 18.3536 83.4231 18.3573 83.6853 18.3648C83.9475 18.3723 84.1348 18.3761 84.2472 18.3761V21.7484H83.4831C83.2434 21.7484 83.0261 21.7971 82.8314 21.8946C82.6441 21.9845 82.4793 22.1007 82.337 22.2431C82.1946 22.3929 82.086 22.5428 82.0111 22.6927C81.9437 22.8426 81.8763 22.9887 81.8088 23.1311C81.6366 23.5358 81.5092 23.8243 81.4268 23.9967C81.3444 24.1691 81.1983 24.3377 80.9886 24.5025L85 31Z" fill="#FA614A"/>
</svg>
