<svg width="64" height="64" viewBox="0 0 64 64" fill="none" xmlns="http://www.w3.org/2000/svg">
<path d="M56 22.8H43.2C42.1067 22.8 41.2 21.8933 41.2 20.8V8C41.2 6.90667 42.1067 6 43.2 6C44.2933 6 45.2 6.90667 45.2 8V18.8H56C57.0933 18.8 58 19.7067 58 20.8C58 21.8933 57.0933 22.8 56 22.8Z" fill="#2E7EB1"/>
<path opacity="0.4" d="M31.4399 37.892L22.7199 46.612C21.7599 45.7587 20.8266 44.8787 19.9199 43.972C17.1733 41.1987 14.6933 38.292 12.4799 35.252C10.2933 32.212 8.53327 29.172 7.25327 26.1587C5.97327 23.1187 5.33327 20.212 5.33327 17.4387C5.33327 15.6254 5.65327 13.892 6.29327 12.292C6.93327 10.6654 7.94661 9.17203 9.35994 7.8387C11.0666 6.1587 12.9333 5.33203 14.9066 5.33203C15.6533 5.33203 16.3999 5.49203 17.0666 5.81203C17.7599 6.13203 18.3733 6.61203 18.8533 7.30536L25.0399 16.0254C25.5199 16.692 25.8666 17.3054 26.1066 17.892C26.3466 18.452 26.4799 19.012 26.4799 19.5187C26.4799 20.1587 26.2933 20.7987 25.9199 21.412C25.5733 22.0254 25.0666 22.6654 24.4266 23.3054L22.3999 25.412C22.1066 25.7054 21.9733 26.052 21.9733 26.4787C21.9733 26.692 21.9999 26.8787 22.0533 27.092C22.1333 27.3054 22.2133 27.4654 22.2666 27.6254C22.7466 28.5054 23.5733 29.652 24.7466 31.0387C25.9466 32.4254 27.2266 33.8387 28.6133 35.252C29.5733 36.1854 30.5066 37.092 31.4399 37.892Z" fill="#2E7EB1"/>
<path d="M58.5866 48.8814C58.5866 49.6281 58.4533 50.4014 58.1866 51.1481C58.1066 51.3614 58.0266 51.5747 57.92 51.7881C57.4666 52.7481 56.88 53.6547 56.1066 54.5081C54.8 55.9481 53.36 56.9881 51.7333 57.6547C51.7066 57.6547 51.68 57.6814 51.6533 57.6814C50.08 58.3214 48.3733 58.6681 46.5333 58.6681C43.8133 58.6681 40.9066 58.0281 37.84 56.7214C34.7733 55.4147 31.7066 53.6547 28.6666 51.4414C27.6266 50.6681 26.5866 49.8947 25.6 49.0681L34.32 40.3481C35.0666 40.9081 35.7333 41.3347 36.2933 41.6281C36.4266 41.6814 36.5866 41.7614 36.7733 41.8414C36.9866 41.9214 37.2 41.9481 37.44 41.9481C37.8933 41.9481 38.24 41.7881 38.5333 41.4947L40.56 39.4947C41.2266 38.8281 41.8666 38.3214 42.48 38.0014C43.0933 37.6281 43.7066 37.4414 44.3733 37.4414C44.88 37.4414 45.4133 37.5481 46 37.7881C46.5866 38.0281 47.2 38.3747 47.8666 38.8281L56.6933 45.0947C57.3866 45.5747 57.8666 46.1347 58.16 46.8014C58.4266 47.4681 58.5866 48.1347 58.5866 48.8814Z" fill="#2E7EB1"/>
</svg>
