<svg width="64" height="64" viewBox="0 0 64 64" fill="none" xmlns="http://www.w3.org/2000/svg">
<path opacity="0.4" d="M53.6001 18.5053C53.6001 19.9453 52.8267 21.2519 51.6001 21.9186L46.96 24.4252L43.0134 26.532L34.8267 30.9586C33.9467 31.4386 32.9867 31.6787 32.0001 31.6787C31.0134 31.6787 30.0534 31.4386 29.1734 30.9586L12.4 21.9186C11.1734 21.2519 10.4 19.9453 10.4 18.5053C10.4 17.0653 11.1734 15.7586 12.4 15.0919L17.6534 12.2652L21.8401 9.99865L29.1734 6.05203C30.9334 5.09203 33.0667 5.09203 34.8267 6.05203L51.6001 15.0919C52.8267 15.7586 53.6001 17.0653 53.6001 18.5053Z" fill="#2E7EB1"/>
<path opacity="0.4" d="M26.4 34.1063L10.8 26.293C9.6 25.6797 8.21335 25.7597 7.06669 26.453C5.92002 27.1464 5.25337 28.3731 5.25337 29.7064V44.453C5.25337 47.013 6.66666 49.3064 8.96 50.453L24.56 58.2398C25.0933 58.5065 25.6801 58.6397 26.2667 58.6397C26.9601 58.6397 27.6534 58.4531 28.2667 58.0531C29.4134 57.3598 30.08 56.133 30.08 54.7997V40.0531C30.1067 37.5465 28.6934 35.253 26.4 34.1063Z" fill="#2E7EB1"/>
<path opacity="0.4" d="M58.7466 29.7351V44.4816C58.7466 47.015 57.3333 49.3083 55.04 50.4549L39.44 58.2683C38.9067 58.5349 38.32 58.6683 37.7333 58.6683C37.04 58.6683 36.3467 58.4817 35.7067 58.0817C34.5867 57.3884 33.8933 56.1616 33.8933 54.8283V40.1083C33.8933 37.5483 35.3067 35.2549 37.6 34.1083L43.3333 31.2549L47.3333 29.2549L53.2 26.3216C54.4 25.7083 55.7867 25.7616 56.9333 26.4816C58.0533 27.175 58.7466 28.4017 58.7466 29.7351Z" fill="#2E7EB1"/>
<path d="M46.96 24.4266L43.0133 26.5334L17.6533 12.2666L21.84 10L46.32 23.8133C46.5867 23.9733 46.8 24.1866 46.96 24.4266Z" fill="#2E7EB1"/>
<path d="M47.3333 29.2539V35.3073C47.3333 36.4006 46.4266 37.3073 45.3333 37.3073C44.2399 37.3073 43.3333 36.4006 43.3333 35.3073V31.2539L47.3333 29.2539Z" fill="#2E7EB1"/>
</svg>
