<svg width="60" height="61" viewBox="0 0 60 61" fill="none" xmlns="http://www.w3.org/2000/svg">
<path d="M55 48V55.5H5V48C5 46.625 6.125 45.5 7.5 45.5H52.5C53.875 45.5 55 46.625 55 48Z" fill="#2E7EB1" stroke="#2E7EB1" stroke-width="1.5" stroke-miterlimit="10" stroke-linecap="round" stroke-linejoin="round"/>
<path opacity="0.6" d="M20 28H10V45.5H20V28Z" fill="#2E7EB1"/>
<path opacity="0.4" d="M30 28H20V45.5H30V28Z" fill="#2E7EB1"/>
<path opacity="0.6" d="M40 28H30V45.5H40V28Z" fill="#2E7EB1"/>
<path opacity="0.4" d="M50 28H40V45.5H50V28Z" fill="#2E7EB1"/>
<path d="M57.5 57.375H2.5C1.475 57.375 0.625 56.525 0.625 55.5C0.625 54.475 1.475 53.625 2.5 53.625H57.5C58.525 53.625 59.375 54.475 59.375 55.5C59.375 56.525 58.525 57.375 57.5 57.375Z" fill="#2E7EB1"/>
<path d="M53.425 14.8765L30.925 5.87656C30.425 5.67656 29.575 5.67656 29.075 5.87656L6.57501 14.8765C5.70001 15.2265 5 16.2515 5 17.2015V25.5015C5 26.8765 6.125 28.0015 7.5 28.0015H52.5C53.875 28.0015 55 26.8765 55 25.5015V17.2015C55 16.2515 54.3 15.2265 53.425 14.8765ZM30 21.7515C27.925 21.7515 26.25 20.0765 26.25 18.0015C26.25 15.9265 27.925 14.2515 30 14.2515C32.075 14.2515 33.75 15.9265 33.75 18.0015C33.75 20.0765 32.075 21.7515 30 21.7515Z" fill="#2E7EB1"/>
</svg>
