<svg width="60" height="60" viewBox="0 0 60 60" fill="none" xmlns="http://www.w3.org/2000/svg">
<path d="M12.5 37.5C10.15 37.5 7.975 38.325 6.25 39.7C3.95 41.525 2.5 44.35 2.5 47.5C2.5 49.375 3.025 51.15 3.95 52.65C5.675 55.55 8.85 57.5 12.5 57.5C15.025 57.5 17.325 56.575 19.075 55C19.85 54.35 20.525 53.55 21.05 52.65C21.975 51.15 22.5 49.375 22.5 47.5C22.5 41.975 18.025 37.5 12.5 37.5ZM17.675 46.425L12.35 51.3499C12 51.6749 11.525 51.85 11.075 51.85C10.6 51.85 10.125 51.675 9.74998 51.3L7.27501 48.8251C6.55001 48.1001 6.55001 46.8999 7.27501 46.1749C8.00001 45.4499 9.2 45.4499 9.925 46.1749L11.125 47.375L15.125 43.6749C15.875 42.9749 17.075 43.025 17.775 43.775C18.475 44.525 18.425 45.725 17.675 46.425Z" fill="#2E7EB1"/>
<path opacity="0.4" d="M48.7 32.375H53.75V28.775C53.75 23.6 49.525 19.375 44.35 19.375H15.65C10.475 19.375 6.25 23.6 6.25 28.775V39.7C7.975 38.325 10.15 37.5 12.5 37.5C18.025 37.5 22.5 41.975 22.5 47.5C22.5 49.375 21.975 51.15 21.05 52.65C20.525 53.55 19.85 54.35 19.075 55H44.35C49.525 55 53.75 50.775 53.75 45.6V42.625H49C46.3 42.625 43.825 40.65 43.6 37.95C43.45 36.375 44.05 34.9 45.1 33.875C46.025 32.925 47.3 32.375 48.7 32.375Z" fill="#2E7EB1"/>
<path d="M37.125 9.87311V19.3731H15.65C10.475 19.3731 6.25 23.5981 6.25 28.7731V19.5981C6.25 16.6231 8.07499 13.973 10.85 12.923L30.7 5.42304C33.8 4.27304 37.125 6.54811 37.125 9.87311Z" fill="#2E7EB1"/>
<path d="M56.4 34.9249V40.075C56.4 41.45 55.3 42.5749 53.9 42.6249H49C46.3 42.6249 43.825 40.65 43.6 37.95C43.45 36.375 44.05 34.8999 45.1 33.8749C46.025 32.9249 47.3 32.375 48.7 32.375H53.9C55.3 32.425 56.4 33.5499 56.4 34.9249Z" fill="#2E7EB1"/>
<path d="M35 31.875H17.5C16.475 31.875 15.625 31.025 15.625 30C15.625 28.975 16.475 28.125 17.5 28.125H35C36.025 28.125 36.875 28.975 36.875 30C36.875 31.025 36.025 31.875 35 31.875Z" fill="#2E7EB1"/>
<circle cx="12.5" cy="47.5" r="10.5" fill="#2E7EB1"/>
<path fill-rule="evenodd" clip-rule="evenodd" d="M13.0002 43.6972C11.9524 43.4758 10.859 43.6355 9.92072 44.1469C8.98244 44.6582 8.26224 45.487 7.89234 46.481C7.52243 47.4749 7.52765 48.5675 7.90703 49.558C8.28641 50.5484 9.01449 51.3704 9.95762 51.873C10.9007 52.3756 11.9956 52.5251 13.0413 52.294C14.0869 52.0629 15.0131 51.4667 15.6499 50.6149C16.2969 49.7494 16.5212 49.0332 16.5212 48C16.5212 47.5582 16.8836 47.2 17.3306 47.2C17.7775 47.2 18.1399 47.5582 18.1399 48C18.1399 49.3668 17.8097 50.418 16.9516 51.5658C16.0833 52.7273 14.8203 53.5403 13.3945 53.8554C11.9686 54.1705 10.4756 53.9667 9.1895 53.2814C7.90342 52.596 6.91058 51.4751 6.39324 50.1245C5.87591 48.7738 5.86879 47.284 6.37321 45.9286C6.87762 44.5732 7.85971 43.443 9.13919 42.7457C10.4187 42.0484 11.9097 41.8307 13.3385 42.1325C14.7673 42.4343 16.038 43.2354 16.9174 44.3888C17.1864 44.7416 17.1151 45.2433 16.7582 45.5092C16.4012 45.7751 15.8938 45.7046 15.6247 45.3518C14.9799 44.506 14.048 43.9185 13.0002 43.6972Z" fill="white"/>
<path d="M17.0649 46.5226C17.1626 46.4097 17.3397 46.4108 17.4359 46.525L18.9433 48.3129C19.075 48.4692 18.9626 48.7066 18.7567 48.7066H15.7023C15.495 48.7066 15.3831 48.4663 15.5178 48.3106L17.0649 46.5226Z" fill="white"/>
</svg>
