<svg width="80" height="80" viewBox="0 0 80 80" fill="none" xmlns="http://www.w3.org/2000/svg">
<path d="M6.66797 19.9987C6.66797 16.856 6.66797 15.2847 7.64427 14.3083C8.6206 13.332 10.1919 13.332 13.3346 13.332C16.4773 13.332 18.0487 13.332 19.025 14.3083C20.0013 15.2847 20.0013 16.856 20.0013 19.9987V26.6654C20.0013 29.8081 20.0013 31.3794 19.025 32.3557C18.0487 33.332 16.4773 33.332 13.3346 33.332C10.1919 33.332 8.6206 33.332 7.64427 32.3557C6.66797 31.3794 6.66797 29.8081 6.66797 26.6654V19.9987Z" stroke="#50E280" stroke-width="2"/>
<path d="M21.668 53.3346C21.668 50.192 21.668 48.6206 22.6443 47.6443C23.6206 46.668 25.1919 46.668 28.3346 46.668C31.4773 46.668 33.0487 46.668 34.025 47.6443C35.0013 48.6206 35.0013 50.192 35.0013 53.3346V60.0013C35.0013 63.144 35.0013 64.7153 34.025 65.6916C33.0487 66.668 31.4773 66.668 28.3346 66.668C25.1919 66.668 23.6206 66.668 22.6443 65.6916C21.668 64.7153 21.668 63.144 21.668 60.0013V53.3346Z" stroke="#50E280" stroke-width="2"/>
<path d="M45 19.9987C45 16.856 45 15.2847 45.9763 14.3083C46.9527 13.332 48.524 13.332 51.6667 13.332C54.8093 13.332 56.3807 13.332 57.357 14.3083C58.3333 15.2847 58.3333 16.856 58.3333 19.9987V26.6654C58.3333 29.8081 58.3333 31.3794 57.357 32.3557C56.3807 33.332 54.8093 33.332 51.6667 33.332C48.524 33.332 46.9527 33.332 45.9763 32.3557C45 31.3794 45 29.8081 45 26.6654V19.9987Z" stroke="#50E280" stroke-width="2"/>
<path d="M45 53.3346C45 50.192 45 48.6206 45.9763 47.6443C46.9527 46.668 48.524 46.668 51.6667 46.668C54.8093 46.668 56.3807 46.668 57.357 47.6443C58.3333 48.6206 58.3333 50.192 58.3333 53.3346V60.0013C58.3333 63.144 58.3333 64.7153 57.357 65.6916C56.3807 66.668 54.8093 66.668 51.6667 66.668C48.524 66.668 46.9527 66.668 45.9763 65.6916C45 64.7153 45 63.144 45 60.0013V53.3346Z" stroke="#50E280" stroke-width="2"/>
<path d="M30 16.6654L35 13.332V33.332" stroke="#50E280" stroke-width="2" stroke-linecap="round" stroke-linejoin="round"/>
<path d="M6.66797 50.0013L11.668 46.668V66.668" stroke="#50E280" stroke-width="2" stroke-linecap="round" stroke-linejoin="round"/>
<path d="M68.332 16.6654L73.332 13.332V33.332" stroke="#50E280" stroke-width="2" stroke-linecap="round" stroke-linejoin="round"/>
<path d="M68.332 50.0013L73.332 46.668V66.668" stroke="#50E280" stroke-width="2" stroke-linecap="round" stroke-linejoin="round"/>
</svg>
