<svg width="80" height="80" viewBox="0 0 80 80" fill="none" xmlns="http://www.w3.org/2000/svg">
<path d="M46.668 66.6654C46.668 66.6654 50.0013 66.6654 53.3346 73.332C53.3346 73.332 63.923 56.6654 73.3346 53.332" stroke="#50E280" stroke-width="2" stroke-linecap="round" stroke-linejoin="round"/>
<path d="M60.0013 46.6667C59.8363 44.5917 59.5896 42.5407 59.316 40.5177C58.5633 34.95 53.9336 30.5883 48.3 30.3303C43.559 30.1132 38.7433 30 33.44 30C28.1369 30 23.3212 30.1132 18.5804 30.3303C12.9465 30.5883 8.31677 34.95 7.5642 40.5177C7.07304 44.151 6.66797 47.8747 6.66797 51.6667C6.66797 55.4587 7.07304 59.1823 7.5642 62.8157C8.31677 68.3833 12.9465 72.745 18.5804 73.003C23.3212 73.22 28.1369 73.3333 33.44 73.3333C35.116 73.3333 36.743 73.322 38.3346 73.2997" stroke="#50E280" stroke-width="2" stroke-linecap="round"/>
<path d="M18.332 30.0013V21.668C18.332 13.3837 25.0478 6.66797 33.332 6.66797C41.6164 6.66797 48.332 13.3837 48.332 21.668V30.0013" stroke="#50E280" stroke-width="2" stroke-linecap="round" stroke-linejoin="round"/>
</svg>
