<svg width="64" height="64" viewBox="0 0 64 64" fill="none" xmlns="http://www.w3.org/2000/svg">
<path d="M56.6667 58.668H7.33336C6.24003 58.668 5.33336 57.7613 5.33336 56.668C5.33336 55.5746 6.24003 54.668 7.33336 54.668H56.6667C57.76 54.668 58.6667 55.5746 58.6667 56.668C58.6667 57.7613 57.76 58.668 56.6667 58.668Z" fill="#2E7EB1"/>
<path opacity="0.4" d="M54.9067 36.5365L35.6267 55.8165C31.84 59.6032 25.7334 59.6032 21.9734 55.8432L9.68004 43.5498L42.64 10.5898L54.9334 22.8832C58.6934 26.6432 58.6934 32.7498 54.9067 36.5365Z" fill="#2E7EB1"/>
<path d="M42.64 10.5871L9.65332 43.5471L7.22666 41.1204C3.46666 37.3604 3.46666 31.2538 7.25332 27.4671L26.5333 8.18709C30.32 4.40043 36.4267 4.40043 40.1867 8.16043L42.64 10.5871Z" fill="#2E7EB1"/>
<path d="M34.3733 46.933L30.7733 50.533C30.0266 51.2797 28.8266 51.2797 28.08 50.533C27.3333 49.7864 27.3333 48.5864 28.08 47.8397L31.68 44.2397C32.4266 43.493 33.6266 43.493 34.3733 44.2397C35.12 44.9864 35.12 46.1864 34.3733 46.933Z" fill="#2E7EB1"/>
<path d="M46.0533 35.2533L38.88 42.4267C38.1333 43.1733 36.9333 43.1733 36.1867 42.4267C35.44 41.68 35.44 40.48 36.1867 39.7333L43.36 32.56C44.1067 31.8133 45.3067 31.8133 46.0533 32.56C46.7733 33.3067 46.7733 34.5067 46.0533 35.2533Z" fill="#2E7EB1"/>
</svg>
