<svg width="64" height="64" viewBox="0 0 64 64" fill="none" xmlns="http://www.w3.org/2000/svg">
<path opacity="0.4" d="M43.1733 5.33203H20.8266C11.1199 5.33203 5.33327 11.1187 5.33327 20.8254V43.1454C5.33327 52.8787 11.1199 58.6654 20.8266 58.6654H43.1466C52.8533 58.6654 58.6399 52.8787 58.6399 43.172V20.8254C58.6666 11.1187 52.8799 5.33203 43.1733 5.33203Z" fill="#2E7EB1"/>
<path d="M15.7899 41.0346C14.6117 41.0346 13.6736 40.8164 12.9754 40.38C12.2917 39.9291 11.7972 39.3037 11.4917 38.5037C11.1863 37.6891 11.0336 36.7582 11.0336 35.711V35.0782H14.3936C14.3936 35.1073 14.3936 35.1873 14.3936 35.3182C14.3936 35.4346 14.3936 35.551 14.3936 35.6673C14.4081 36.2346 14.4517 36.7073 14.5245 37.0855C14.6117 37.4491 14.7572 37.7255 14.9608 37.9146C15.1645 38.1037 15.4554 38.1982 15.8336 38.1982C16.2263 38.1982 16.5172 38.1037 16.7063 37.9146C16.8954 37.711 17.0263 37.42 17.099 37.0419C17.1717 36.6637 17.2081 36.1982 17.2081 35.6455C17.2081 34.7582 17.0772 34.0746 16.8154 33.5946C16.5536 33.1 16.0299 32.8455 15.2445 32.831C15.2299 32.831 15.1572 32.831 15.0263 32.831C14.8954 32.831 14.7717 32.831 14.6554 32.831V30.3437C14.7426 30.3437 14.8299 30.3437 14.9172 30.3437C15.019 30.3437 15.1063 30.3437 15.179 30.3437C15.9645 30.3437 16.4954 30.1328 16.7717 29.711C17.0626 29.2891 17.2081 28.6273 17.2081 27.7255C17.2081 27.0273 17.1063 26.4819 16.9026 26.0891C16.699 25.6964 16.3208 25.5 15.7681 25.5C15.2154 25.5 14.8517 25.7182 14.6772 26.1546C14.5026 26.591 14.4081 27.151 14.3936 27.8346C14.3936 27.951 14.3936 28.0819 14.3936 28.2273C14.3936 28.3582 14.3936 28.4891 14.3936 28.62H11.0336V27.66C11.0336 26.6273 11.2226 25.7546 11.6008 25.0419C11.979 24.3146 12.5172 23.7619 13.2154 23.3837C13.9136 23.0055 14.7645 22.8164 15.7681 22.8164C16.7717 22.8164 17.6299 22.9982 18.3426 23.3619C19.0554 23.7255 19.5936 24.2564 19.9572 24.9546C20.3354 25.6528 20.5245 26.5182 20.5245 27.551C20.5245 28.5837 20.3063 29.4419 19.8699 30.1255C19.4481 30.8091 18.9245 31.2455 18.299 31.4346C18.7354 31.58 19.1208 31.82 19.4554 32.1546C19.7899 32.4891 20.0517 32.94 20.2408 33.5073C20.4299 34.06 20.5245 34.751 20.5245 35.58C20.5245 36.6419 20.3717 37.5873 20.0663 38.4164C19.7608 39.231 19.259 39.871 18.5608 40.3364C17.8626 40.8019 16.939 41.0346 15.7899 41.0346Z" fill="#2E7EB1"/>
<path d="M27.1759 41.0346C26.1141 41.0346 25.2341 40.8164 24.5359 40.38C23.8378 39.9437 23.3141 39.3473 22.965 38.591C22.6159 37.82 22.4414 36.9328 22.4414 35.9291V28.0091C22.4414 26.9764 22.6087 26.0746 22.9432 25.3037C23.2778 24.5182 23.7941 23.9073 24.4923 23.471C25.1905 23.0346 26.085 22.8164 27.1759 22.8164C28.2523 22.8164 29.1323 23.0346 29.8159 23.471C30.5141 23.9073 31.0305 24.5182 31.365 25.3037C31.6996 26.0746 31.8669 26.9764 31.8669 28.0091V35.9291C31.8669 36.9328 31.6923 37.82 31.3432 38.591C30.9941 39.3473 30.4705 39.9437 29.7723 40.38C29.0741 40.8164 28.2087 41.0346 27.1759 41.0346ZM27.1759 38.0673C27.5687 38.0673 27.8523 37.9437 28.0268 37.6964C28.2014 37.4491 28.3178 37.1582 28.3759 36.8237C28.4341 36.4746 28.4632 36.1546 28.4632 35.8637V28.0746C28.4632 27.7546 28.4341 27.42 28.3759 27.071C28.3323 26.7219 28.2232 26.4237 28.0487 26.1764C27.8741 25.9146 27.5832 25.7837 27.1759 25.7837C26.7687 25.7837 26.4705 25.9146 26.2814 26.1764C26.1069 26.4237 25.9905 26.7219 25.9323 27.071C25.8887 27.42 25.8669 27.7546 25.8669 28.0746V35.8637C25.8669 36.1546 25.8959 36.4746 25.9541 36.8237C26.0123 37.1582 26.1359 37.4491 26.325 37.6964C26.5141 37.9437 26.7978 38.0673 27.1759 38.0673Z" fill="#2E7EB1"/>
<path d="M40.1353 40.7291L45.4371 23.0564H47.4225L42.1207 40.7291H40.1353ZM37.9971 32.9619C36.5716 32.9619 35.5534 32.5764 34.9425 31.8055C34.3316 31.0346 34.0262 29.8928 34.0262 28.38V27.4855C34.0262 25.9437 34.3244 24.8164 34.9207 24.1037C35.5171 23.3764 36.5425 23.0128 37.9971 23.0128C39.4662 23.0128 40.4989 23.3691 41.0953 24.0819C41.6916 24.78 41.9898 25.8928 41.9898 27.42V28.4455C41.9898 29.9291 41.6844 31.0564 41.0734 31.8273C40.4771 32.5837 39.4516 32.9619 37.9971 32.9619ZM37.9971 30.8019C38.3753 30.8019 38.6516 30.7 38.8262 30.4964C39.0007 30.2928 39.1098 30.0019 39.1534 29.6237C39.1971 29.2455 39.2189 28.8019 39.2189 28.2928V27.5291C39.2189 26.7582 39.1607 26.1764 39.0443 25.7837C38.9425 25.391 38.5934 25.1946 37.9971 25.1946C37.4153 25.1946 37.0662 25.391 36.9498 25.7837C36.8334 26.1619 36.7753 26.7437 36.7753 27.5291V28.3146C36.7753 28.8237 36.7971 29.2673 36.8407 29.6455C36.8989 30.0091 37.0153 30.2928 37.1898 30.4964C37.3643 30.7 37.6334 30.8019 37.9971 30.8019ZM49.5607 40.7728C48.1207 40.7728 47.0953 40.3873 46.4843 39.6164C45.888 38.8455 45.5898 37.711 45.5898 36.2128V35.2964C45.5898 33.7691 45.8807 32.6419 46.4625 31.9146C47.0589 31.1873 48.0916 30.8237 49.5607 30.8237C51.0298 30.8237 52.0625 31.18 52.6589 31.8928C53.2553 32.591 53.5534 33.7037 53.5534 35.231V36.2346C53.5534 37.7473 53.248 38.8819 52.6371 39.6382C52.0262 40.3946 51.0007 40.7728 49.5607 40.7728ZM49.5607 38.6128C49.9389 38.6128 50.208 38.511 50.368 38.3073C50.5425 38.1037 50.6516 37.82 50.6953 37.4564C50.7534 37.0782 50.7825 36.6419 50.7825 36.1473V35.34C50.7825 34.5546 50.7243 33.9728 50.608 33.5946C50.4916 33.2019 50.1425 33.0055 49.5607 33.0055C48.9789 33.0055 48.6298 33.2019 48.5134 33.5946C48.3971 33.9873 48.3389 34.5691 48.3389 35.34V36.1473C48.3389 36.6419 48.3607 37.0782 48.4044 37.4564C48.448 37.82 48.5571 38.1037 48.7316 38.3073C48.9207 38.511 49.1971 38.6128 49.5607 38.6128Z" fill="#2E7EB1"/>
</svg>
