<svg width="474" height="480" viewBox="0 0 474 480" fill="none" xmlns="http://www.w3.org/2000/svg">
<path d="M330.446 54.1869C333.286 73.6869 319.716 91.7984 300.151 94.6438C280.586 97.4806 262.419 83.9779 259.579 64.4779C256.739 44.9778 270.308 26.8663 289.874 24.021C309.447 21.1841 327.614 34.6868 330.446 54.1869Z" fill="#A6E6A2"/>
<path d="M322.017 55.4138C324.183 70.271 313.846 84.0803 298.929 86.2442C284.02 88.408 270.178 78.117 268.012 63.2513C265.854 48.3856 276.182 34.5848 291.099 32.4209C306.008 30.2571 319.85 40.5566 322.017 55.4138Z" fill="#8CD983"/>
<path d="M321.877 54.5711C321.714 54.5967 321.425 53.4296 320.691 51.4276C319.949 49.4427 318.695 46.5888 316.375 43.6157C315.215 42.1333 313.791 40.634 312.085 39.2369C310.371 37.8568 308.384 36.5619 306.124 35.5567C304.998 35.0455 303.812 34.594 302.567 34.2447C301.322 33.8869 300.034 33.5888 298.704 33.4269C297.373 33.2565 296.008 33.1543 294.618 33.1884C293.236 33.2224 291.829 33.3587 290.43 33.5973C289.032 33.8528 287.667 34.2106 286.354 34.6536C285.04 35.0966 283.795 35.6589 282.601 36.2808C281.407 36.8941 280.298 37.6183 279.258 38.3765C278.209 39.1346 277.253 39.9695 276.375 40.8299C274.601 42.5508 273.185 44.4505 272.051 46.3332C270.933 48.233 270.115 50.1327 269.535 51.9217C268.383 55.5167 268.187 58.6177 268.179 60.7389C268.179 62.8687 268.315 64.0699 268.144 64.0954C268.025 64.121 267.616 62.9709 267.36 60.7815C267.121 58.6092 267.078 55.3549 268.11 51.5043C268.631 49.5875 269.407 47.5344 270.541 45.4728C271.684 43.4282 273.151 41.3581 275.01 39.4669C275.94 38.5213 276.946 37.6097 278.064 36.7749C279.172 35.94 280.358 35.1477 281.637 34.4662C282.917 33.7847 284.256 33.1713 285.671 32.6772C287.087 32.1916 288.554 31.7998 290.064 31.5271C291.573 31.2716 293.091 31.1268 294.584 31.1012C296.077 31.0671 297.552 31.1949 298.985 31.3908C300.418 31.5868 301.808 31.919 303.139 32.3279C304.469 32.7283 305.74 33.2395 306.934 33.8103C309.331 34.9433 311.42 36.383 313.203 37.9164C314.968 39.4669 316.41 41.1196 317.561 42.7382C319.855 45.9925 320.938 49.0678 321.467 51.1891C321.979 53.3274 321.996 54.5541 321.877 54.5711Z" fill="#A8E6A3"/>
<path d="M107.092 400.418C110.915 426.745 92.6203 451.182 66.189 455.019C39.7759 458.855 15.256 440.619 11.4151 414.291C7.5924 387.963 25.8868 363.526 52.3181 359.689C78.7312 355.871 103.251 374.09 107.092 400.418Z" fill="#A6E6A2"/>
<path d="M95.7149 402.072C98.6274 422.127 84.6836 440.764 64.5507 443.691C44.4178 446.618 25.7411 432.727 22.8104 412.654C19.8979 392.599 33.8416 373.962 53.9746 371.034C74.1075 368.125 92.7841 382.017 95.7149 402.072Z" fill="#8CD983"/>
<path d="M54.7356 432.772C53.7745 432.896 52.9773 432.715 52.3439 432.228C51.7105 431.74 51.3263 430.977 51.1911 429.937L50.4348 424.117L47.011 424.561C46.2502 424.659 45.6261 424.557 45.1388 424.254C44.6864 423.906 44.416 423.392 44.3277 422.712C44.2341 421.992 44.3642 421.427 44.7178 421.015C45.1063 420.558 45.681 420.28 46.4419 420.181L49.8657 419.737L49.2341 414.877L45.8103 415.321C45.0495 415.42 44.4254 415.318 43.9381 415.015C43.4857 414.667 43.2127 414.133 43.1192 413.413C43.0308 412.733 43.1635 412.187 43.5171 411.775C43.9056 411.318 44.4803 411.04 45.2412 410.941L48.665 410.498L46.4663 393.578C46.3363 392.578 46.4979 391.785 46.9509 391.197C47.4387 390.565 48.1832 390.183 49.1843 390.053L60.1165 388.636C63.1599 388.242 65.8103 388.427 68.0678 389.191C70.3201 389.916 72.1064 391.128 73.4267 392.828C74.747 394.528 75.5735 396.658 75.9062 399.218C76.2233 401.658 75.9381 403.85 75.0508 405.795C74.1582 407.701 72.7558 409.286 70.8435 410.55C68.9311 411.815 66.5534 412.632 63.7102 413.001L55.5411 414.06L56.1727 418.919L64.3418 417.86C65.1026 417.762 65.7093 417.886 66.1617 418.234C66.6489 418.537 66.9394 419.049 67.0329 419.769C67.1213 420.449 66.9712 421.017 66.5827 421.474C66.229 421.886 65.6718 422.141 64.9109 422.24L56.7418 423.299L57.4981 429.119C57.6333 430.159 57.4569 430.995 56.9691 431.628C56.5213 432.255 55.7768 432.637 54.7356 432.772ZM54.8519 409.695L62.1199 408.753C64.9631 408.384 67.0501 407.524 68.3811 406.172C69.7468 404.775 70.2686 402.836 69.9463 400.356C69.6188 397.837 68.6337 396.053 66.9909 395.005C65.3481 393.957 63.0651 393.623 60.1419 394.002L52.9339 394.936L54.8519 409.695Z" fill="#A8E6A3"/>
<path d="M95.5354 400.928C95.3169 400.964 94.9346 399.4 93.9334 396.691C92.9323 394 91.2394 390.164 88.1084 386.145C86.5429 384.145 84.6315 382.109 82.3197 380.236C80.0079 378.382 77.3138 376.636 74.2738 375.272C72.7629 374.581 71.161 373.981 69.4681 373.509C67.7934 373.018 66.0459 372.636 64.262 372.4C62.4598 372.163 60.6213 372.036 58.7463 372.072C56.8714 372.109 54.9782 372.291 53.0851 372.618C51.1919 372.963 49.3534 373.454 47.5877 374.054C45.8219 374.654 44.129 375.418 42.5271 376.254C40.907 377.091 39.4144 378.054 38.0127 379.091C36.5929 380.109 35.3004 381.236 34.1172 382.4C31.7326 384.727 29.803 387.291 28.2739 389.836C26.763 392.4 25.6526 394.964 24.8699 397.382C23.3044 402.237 23.0496 406.419 23.0314 409.291C23.0314 412.164 23.2134 413.782 22.9949 413.819C22.8311 413.855 22.285 412.292 21.9391 409.346C21.6115 406.419 21.5569 402.019 22.9585 396.818C23.6503 394.237 24.7061 391.455 26.2351 388.673C27.7824 385.909 29.7484 383.109 32.2604 380.563C33.5165 379.291 34.8817 378.054 36.3744 376.927C37.8671 375.8 39.469 374.727 41.1983 373.818C42.9276 372.89 44.7298 372.072 46.6411 371.4C48.5525 370.745 50.5366 370.218 52.5754 369.836C54.6142 369.49 56.653 369.29 58.6735 369.254C60.6941 369.218 62.6783 369.381 64.626 369.636C66.5556 369.909 68.4305 370.345 70.2327 370.89C72.0348 371.436 73.7459 372.109 75.3478 372.891C78.588 374.418 81.4095 376.363 83.8124 378.436C86.197 380.527 88.1448 382.764 89.6921 384.945C92.7866 389.346 94.2611 393.491 94.9711 396.346C95.681 399.255 95.6992 400.909 95.5354 400.928Z" fill="#A8E6A3"/>
<path d="M165.725 329.602C158.954 347.793 138.693 357.067 120.436 350.314C102.19 343.568 92.883 323.347 99.6415 305.15C106.412 286.959 126.673 277.685 144.931 284.438C163.17 291.196 172.483 311.405 165.725 329.602Z" fill="#A6E6A2"/>
<path d="M157.865 326.699C152.708 340.556 137.261 347.632 123.353 342.492C109.444 337.352 102.355 321.949 107.507 308.074C112.664 294.217 128.111 287.142 142.019 292.282C155.921 297.434 163.01 312.836 157.865 326.699Z" fill="#8CD983"/>
<path d="M120.898 332.06C120.239 331.804 119.791 331.41 119.556 330.878C119.32 330.345 119.341 329.723 119.618 329.01L121.169 325.025L118.819 324.114C118.297 323.912 117.933 323.629 117.727 323.265C117.559 322.885 117.565 322.462 117.746 321.996C117.938 321.503 118.219 321.186 118.59 321.046C118.999 320.89 119.465 320.912 119.987 321.115L122.336 322.025L123.631 318.696L121.282 317.786C120.76 317.584 120.395 317.301 120.189 316.937C120.021 316.557 120.033 316.12 120.225 315.627C120.406 315.161 120.682 314.858 121.052 314.718C121.461 314.561 121.927 314.584 122.449 314.786L124.799 315.697L129.308 304.109C129.574 303.424 129.955 302.973 130.451 302.755C130.985 302.52 131.596 302.536 132.283 302.802L139.785 305.709C141.873 306.518 143.507 307.561 144.687 308.838C145.876 310.087 146.597 311.485 146.849 313.033C147.101 314.581 146.885 316.231 146.203 317.984C145.553 319.655 144.603 320.958 143.354 321.893C142.116 322.8 140.662 323.325 138.994 323.466C137.326 323.608 135.517 323.301 133.566 322.545L127.96 320.373L126.664 323.702L132.27 325.874C132.793 326.076 133.138 326.367 133.306 326.748C133.512 327.112 133.52 327.54 133.328 328.033C133.146 328.499 132.851 328.81 132.443 328.967C132.072 329.107 131.625 329.076 131.103 328.874L125.497 326.701L123.946 330.687C123.669 331.4 123.264 331.873 122.73 332.107C122.223 332.353 121.613 332.337 120.898 332.06ZM129.044 317.342L134.032 319.274C135.983 320.03 137.622 320.208 138.948 319.807C140.312 319.39 141.324 318.332 141.985 316.634C142.657 314.908 142.649 313.423 141.963 312.18C141.277 310.937 139.93 309.927 137.924 309.15L132.978 307.233L129.044 317.342Z" fill="#A8E6A3"/>
<path d="M158.148 325.914C157.996 325.861 158.299 324.726 158.607 322.642C158.908 320.569 159.168 317.521 158.572 313.856C158.27 312.029 157.76 310.059 156.936 308.053C156.106 306.059 154.993 304.002 153.524 302.069C152.799 301.1 151.984 300.158 151.066 299.265C150.166 298.367 149.181 297.513 148.122 296.74C147.051 295.96 145.919 295.238 144.706 294.608C143.493 293.978 142.218 293.435 140.892 292.985C139.559 292.546 138.21 292.22 136.87 291.989C135.529 291.758 134.178 291.657 132.86 291.635C131.53 291.606 130.237 291.703 128.977 291.879C127.711 292.036 126.489 292.308 125.324 292.641C122.983 293.301 120.85 294.271 118.98 295.369C117.115 296.485 115.506 297.74 114.158 299.017C111.456 301.581 109.828 304.171 108.81 306.005C107.804 307.846 107.354 308.946 107.201 308.893C107.084 308.859 107.282 307.667 108.092 305.66C108.908 303.67 110.414 300.832 113.132 297.989C114.479 296.576 116.129 295.162 118.082 293.913C120.041 292.682 122.28 291.573 124.779 290.818C126.029 290.44 127.336 290.124 128.686 289.922C130.036 289.72 131.437 289.591 132.863 289.611C134.294 289.62 135.734 289.724 137.194 289.959C138.646 290.205 140.101 290.559 141.54 291.025C142.966 291.514 144.341 292.096 145.647 292.777C146.953 293.458 148.166 294.254 149.323 295.096C150.463 295.943 151.51 296.876 152.472 297.854C153.435 298.831 154.295 299.859 155.046 300.918C156.585 303.025 157.71 305.255 158.522 307.42C159.316 309.591 159.779 311.702 160.006 313.639C160.445 317.536 159.937 320.706 159.392 322.782C158.828 324.893 158.26 325.96 158.148 325.914Z" fill="#A8E6A3"/>
<path d="M55.8727 278.447C61.5591 291.647 55.4632 306.934 42.2383 312.607C29.0229 318.276 13.6947 312.171 7.9988 298.973C2.31233 285.772 8.40825 270.485 21.6331 264.813C34.8511 259.152 50.1767 265.249 55.8727 278.447Z" fill="#A6E6A2"/>
<path d="M50.1878 280.887C54.5197 290.943 49.875 302.6 39.8023 306.923C29.7295 311.247 18.054 306.596 13.7101 296.533C9.37813 286.478 14.0228 274.821 24.0956 270.497C34.1709 266.183 45.8463 270.834 50.1878 280.887Z" fill="#8CD983"/>
<path d="M33.1583 302.587C32.6753 302.786 32.2347 302.802 31.8365 302.636C31.4382 302.47 31.1309 302.125 30.9146 301.601L29.7038 298.672L27.9832 299.379C27.6008 299.536 27.2615 299.569 26.9653 299.479C26.6808 299.361 26.4679 299.13 26.3264 298.788C26.1766 298.425 26.1649 298.112 26.2913 297.848C26.4294 297.556 26.6897 297.331 27.072 297.174L28.7927 296.467L27.7816 294.021L26.061 294.728C25.6786 294.885 25.3393 294.919 25.0431 294.828C24.7586 294.71 24.5415 294.469 24.3917 294.107C24.2503 293.765 24.2427 293.461 24.369 293.198C24.5072 292.905 24.7675 292.681 25.1498 292.523L26.8705 291.816L23.3506 283.3C23.1426 282.797 23.1153 282.36 23.2687 281.991C23.4339 281.593 23.7681 281.291 24.2712 281.085L29.7652 278.827C31.2946 278.199 32.7008 277.927 33.9838 278.013C35.2584 278.078 36.3588 278.462 37.2849 279.165C38.211 279.867 38.9404 280.863 39.4729 282.152C39.9805 283.38 40.1398 284.563 39.9508 285.7C39.7534 286.818 39.2456 287.839 38.4273 288.764C37.609 289.689 36.4854 290.445 35.0566 291.032L30.9512 292.719L31.9622 295.165L36.0676 293.478C36.45 293.321 36.7834 293.302 37.0678 293.421C37.3641 293.511 37.5871 293.737 37.7369 294.1C37.8784 294.442 37.88 294.759 37.7419 295.051C37.6155 295.315 37.3612 295.526 36.9788 295.683L32.8734 297.37L34.0842 300.299C34.3005 300.823 34.3261 301.283 34.1608 301.681C34.0157 302.07 33.6815 302.372 33.1583 302.587ZM29.9797 290.539L33.6322 289.038C35.0611 288.451 36.0271 287.713 36.5304 286.823C37.0455 285.905 37.0451 284.821 36.5292 283.573C36.0049 282.305 35.2416 281.511 34.239 281.193C33.2364 280.875 32.0006 281.018 30.5315 281.621L26.9091 283.11L29.9797 290.539Z" fill="#A8E6A3"/>
<path d="M49.9414 280.325C49.8327 280.374 49.414 279.611 48.5121 278.337C47.6128 277.072 46.1923 275.306 43.9973 273.644C42.9011 272.818 41.6196 272.022 40.1524 271.366C38.6879 270.719 37.0395 270.183 35.2646 269.894C34.3806 269.743 33.462 269.653 32.5138 269.642C31.5726 269.618 30.6087 269.662 29.6463 269.786C28.6745 269.914 27.6989 270.103 26.7274 270.382C25.7559 270.662 24.7954 271.02 23.8552 271.453C22.9177 271.897 22.0289 272.408 21.1935 272.967C20.358 273.525 19.5834 274.159 18.8665 274.818C18.14 275.479 17.4979 276.19 16.9133 276.925C16.3167 277.654 15.8018 278.421 15.3488 279.193C14.4335 280.739 13.7884 282.344 13.3494 283.885C12.9224 285.433 12.704 286.924 12.6358 288.295C12.502 291.045 12.9564 293.263 13.3503 294.764C13.7537 296.263 14.0757 297.082 13.967 297.131C13.8868 297.173 13.3828 296.433 12.7891 294.944C12.2074 293.462 11.5611 291.174 11.5611 288.266C11.5589 286.823 11.7182 285.225 12.1241 283.561C12.542 281.904 13.1728 280.17 14.1239 278.493C14.5994 277.654 15.1369 276.819 15.7561 276.024C16.3754 275.228 17.0591 274.446 17.8322 273.731C18.6028 273.007 19.4266 272.33 20.3277 271.713C21.2314 271.106 22.1908 270.555 23.1992 270.073C24.2126 269.609 25.2465 269.222 26.2938 268.922C27.3412 268.622 28.3976 268.432 29.4479 268.294C30.4913 268.168 31.5291 268.135 32.5444 268.169C33.5597 268.203 34.5454 268.317 35.4896 268.502C37.3918 268.849 39.1346 269.472 40.6772 270.219C42.2129 270.979 43.5414 271.875 44.6537 272.798C46.8834 274.664 48.2335 276.622 49.0041 278.013C49.7823 279.432 50.0241 280.293 49.9414 280.325Z" fill="#A8E6A3"/>
<path d="M245.021 357.658L61.8064 164.098C59.877 162.052 59.9717 158.837 62.0076 156.91L182.253 43.3647C184.301 41.4376 187.52 41.5204 189.45 43.5657L372.665 237.138C374.594 239.183 374.499 242.399 372.464 244.326L252.218 357.871C250.17 359.798 246.951 359.704 245.021 357.658Z" fill="#FFF500"/>
<g opacity="0.3">
<path d="M245.021 357.658L61.8064 164.098C59.877 162.052 59.9717 158.837 62.0076 156.91L182.253 43.3647C184.301 41.4376 187.52 41.5204 189.45 43.5657L372.665 237.138C374.594 239.183 374.499 242.399 372.464 244.326L252.218 357.871C250.17 359.798 246.951 359.704 245.021 357.658Z" fill="black"/>
</g>
<path d="M371.318 235.72L190.79 44.985C188.115 42.1594 183.664 42.0411 180.835 44.7012L146.676 76.9653C145.989 77.6037 145.658 78.5495 145.823 79.4717C149.232 98.5535 162.903 115.614 179.178 126.916C198.862 140.583 222.168 147.771 244.337 156.886C266.495 166.002 288.736 178.014 302.016 197.947C314.551 216.745 317.522 240.071 323.89 261.753C325.594 267.535 327.725 273.387 330.329 278.991C331.145 280.741 333.418 281.19 334.826 279.866L371.034 245.675C373.875 242.991 373.993 238.546 371.318 235.72Z" fill="#FFF500"/>
<path d="M147.172 135.818L145.527 134.092L143.243 136.243L142.402 135.357L144.687 133.205L140.059 128.322L140.698 127.719L150.782 126.88L151.717 127.873L141.929 128.736L145.492 132.496L147.492 130.604L148.309 131.467L146.308 133.359L147.942 135.085L147.172 135.818Z" fill="white"/>
<path d="M153.411 141.978C151.967 143.35 149.849 143.35 147.872 141.257C146.688 140.004 145.99 138.396 146.037 137.083L147.15 136.847C147.091 137.958 147.623 139.353 148.689 140.477C150.05 141.907 151.47 142.073 152.547 141.056C153.589 140.075 153.577 138.703 152.05 137.095L151.47 136.481L152.121 135.866L157.4 135.428L153.21 130.995L154.003 130.25L159.27 135.818L158.643 136.41L153.246 136.871C154.891 138.81 154.796 140.666 153.411 141.978Z" fill="white"/>
<path d="M160.1 148.918C158.632 150.313 156.501 150.372 154.501 148.256C153.317 147.002 152.631 145.406 152.678 144.094L153.791 143.858C153.732 144.969 154.252 146.352 155.306 147.464C156.702 148.941 158.158 149.036 159.212 148.043C160.324 146.991 160.36 145.643 158.277 143.444L156.537 141.6L161.307 137.946L165.793 142.687L165 143.432L161.248 139.471L158.206 141.777L159.259 142.888C161.721 145.501 161.626 147.464 160.1 148.918Z" fill="white"/>
<path d="M167.35 156.507C165.728 158.044 163.479 157.749 161.893 156.07C159.715 153.765 160.13 151.01 162.864 148.421C165.811 145.642 168.865 145.796 171.09 148.149C171.824 148.929 172.38 149.792 172.57 150.643L171.516 150.963C171.398 150.241 170.936 149.544 170.333 148.894C168.569 147.026 166.225 146.955 163.87 149.177C163.669 149.367 163.432 149.615 163.195 149.887C164.556 149.414 166.048 149.934 167.184 151.128C168.818 152.854 168.936 155.018 167.35 156.507ZM166.498 155.656C167.634 154.58 167.575 153.055 166.308 151.719C165.054 150.395 163.385 150.265 162.308 151.282C161.349 152.18 161.195 153.824 162.615 155.325C163.787 156.567 165.338 156.744 166.498 155.656Z" fill="white"/>
<path d="M182.478 177.67L183.247 173.036L178.56 173.532L177.625 172.539L183.401 171.96L184.253 166.521L185.188 167.515L184.49 171.877L188.893 171.428L189.805 172.397L184.313 172.941L183.425 178.699L182.478 177.67Z" fill="white"/>
<path d="M188.732 184.279L189.501 179.644L184.814 180.141L183.879 179.148L189.655 178.568L190.507 173.13L191.442 174.123L190.744 178.486L195.147 178.036L196.059 179.006L190.566 179.55L189.679 185.307L188.732 184.279Z" fill="white"/>
<path d="M194.978 190.876L195.747 186.242L191.06 186.738L190.125 185.745L195.901 185.166L196.753 179.728L197.688 180.721L196.99 185.083L201.393 184.634L202.305 185.603L196.813 186.147L195.925 191.905L194.978 190.876Z" fill="white"/>
<path d="M201.228 197.486L201.997 192.851L197.31 193.348L196.375 192.355L202.151 191.775L203.003 186.337L203.938 187.33L203.24 191.693L207.643 191.243L208.555 192.213L203.063 192.757L202.175 198.514L201.228 197.486Z" fill="white"/>
<path d="M222.818 220.29L223.587 215.656L218.9 216.152L217.965 215.159L223.741 214.58L224.593 209.142L225.528 210.135L224.83 214.497L229.233 214.048L230.144 215.017L224.652 215.561L223.765 221.319L222.818 220.29Z" fill="white"/>
<path d="M229.068 226.899L229.837 222.264L225.15 222.761L224.215 221.768L229.991 221.188L230.843 215.75L231.778 216.743L231.08 221.106L235.483 220.656L236.394 221.626L230.902 222.17L230.015 227.927L229.068 226.899Z" fill="white"/>
<path d="M235.322 233.508L236.091 228.874L231.404 229.358L230.469 228.365L236.245 227.786L237.097 222.348L238.032 223.341L237.334 227.703L241.737 227.254L242.648 228.224L237.156 228.767L236.269 234.525L235.322 233.508Z" fill="white"/>
<path d="M241.579 240.106L242.349 235.471L237.662 235.968L236.727 234.975L242.503 234.395L243.355 228.957L244.29 229.95L243.592 234.313L247.995 233.863L248.906 234.833L243.414 235.377L242.526 241.134L241.579 240.106Z" fill="white"/>
<path d="M269.634 252.402L260.969 260.583L260.129 259.696L268 252.26L266.071 250.215L266.864 249.47L269.634 252.402Z" fill="white"/>
<path d="M270.826 266.032C269.382 267.403 267.263 267.403 265.286 265.311C264.103 264.057 263.404 262.45 263.451 261.137L264.564 260.901C264.505 262.012 265.038 263.407 266.103 264.53C267.464 265.961 268.884 266.126 269.961 265.11C271.003 264.128 270.991 262.757 269.464 261.149L268.884 260.534L269.535 259.919L274.814 259.482L270.624 255.049L271.417 254.304L276.685 259.872L276.057 260.463L270.66 260.924C272.317 262.875 272.21 264.719 270.826 266.032Z" fill="white"/>
<path d="M278.77 274.841L277.136 273.115L274.852 275.267L274.012 274.38L276.296 272.228L271.668 267.346L272.307 266.743L282.392 265.903L283.327 266.896L273.538 267.759L277.101 271.519L279.101 269.627L279.918 270.491L277.918 272.382L279.563 274.12L278.77 274.841Z" fill="white"/>
<path d="M283.6 282.928L282.807 283.673L277.055 277.596L277.682 277.005L284.618 277.277C286.512 277.348 287.269 276.981 287.861 276.414C288.867 275.468 288.82 274.179 287.565 272.855C286.607 271.838 285.553 271.353 284.358 271.401L284.299 270.254C285.719 270.171 287.187 270.833 288.441 272.157C290.098 273.919 290.264 275.87 288.82 277.241C287.991 278.021 286.997 278.471 284.76 278.376L279.079 278.163L283.6 282.928Z" fill="white"/>
<path d="M221.147 281.437C223.775 278.955 226.651 279.002 228.498 280.953C230.356 282.915 230.238 285.776 227.61 288.259C224.982 290.742 222.118 290.706 220.26 288.744C218.401 286.781 218.52 283.92 221.147 281.437ZM225.846 286.403C227.657 284.689 227.811 283.353 226.935 282.43C226.071 281.52 224.722 281.591 222.911 283.305C221.1 285.02 220.958 286.367 221.81 287.266C222.686 288.188 224.035 288.117 225.846 286.403Z" fill="white"/>
<path d="M233.197 297.115C231.564 298.652 229.291 298.285 227.693 296.606C225.622 294.407 225.705 291.747 228.273 289.312C231.031 286.711 234.132 286.924 236.405 289.324C237.198 290.163 237.79 291.168 237.955 292.055L235.955 292.658C235.825 291.936 235.446 291.322 234.949 290.79C233.694 289.454 232.096 289.347 230.522 290.731C231.434 290.754 232.309 291.203 233.091 292.031C234.535 293.556 234.7 295.696 233.197 297.115ZM231.422 295.412C232.156 294.727 232.108 293.745 231.339 292.93C230.569 292.126 229.54 292.031 228.841 292.681C228.155 293.332 228.143 294.313 228.983 295.2C229.717 295.98 230.688 296.098 231.422 295.412Z" fill="white"/>
<path d="M243.775 294.146L245.266 295.731L230.991 302.103L229.5 300.519L243.775 294.146Z" fill="white"/>
<path d="M242.759 309.244L241.256 310.663L235.562 304.645L236.758 303.522L242.57 303.853C243.907 303.924 244.44 303.664 244.819 303.298C245.446 302.706 245.399 301.926 244.605 301.087C243.954 300.401 243.15 300.07 242.25 300.188L241.848 298.025C243.327 297.788 244.961 298.356 246.322 299.786C248.003 301.56 248.216 303.605 246.76 304.965C245.99 305.698 245.079 306.147 242.984 306.005L239.516 305.804L242.759 309.244Z" fill="white"/>
<path d="M250.441 317.012L249.21 315.711L247.541 317.296L245.836 315.499L247.505 313.914L243.445 309.623L244.688 308.452L253.293 307.436L255.128 309.374L247.044 310.415L249.068 312.555L250.559 311.148L252.204 312.886L250.713 314.293L251.944 315.593L250.441 317.012Z" fill="white"/>
<path d="M287.832 218.541C292.318 211.637 290.555 202.463 284.53 196.859C282.648 195.109 280.494 193.678 278.245 192.733C272.481 190.333 264.834 192.082 261.816 197.544C259.342 202.001 260.348 207.57 262.077 212.358C263.888 217.383 266.823 222.514 271.806 224.465C276.6 226.344 282.352 224.618 285.939 220.93C286.649 220.208 287.276 219.404 287.832 218.541Z" fill="#FFF500"/>
<path d="M461.619 248.678C461.619 248.678 461.525 240.804 461.193 240.745L445.001 244.339C444.835 245.368 442.788 258.266 443.143 259.531L461.347 264.58C461.359 264.58 461.619 249.139 461.619 248.678Z" fill="#FFBE9D"/>
<path d="M461.637 263.386C461.672 263.374 461.696 263.244 461.72 263.031C461.909 261.269 461.791 253.585 460.856 253.254C459.802 252.887 457.175 253.49 456.985 254.495C456.808 255.512 457.423 264.166 457.423 264.166C457.423 264.166 457.613 265.526 459.897 265.857C461.317 266.058 461.637 263.386 461.637 263.386Z" fill="#FFBE9D"/>
<path d="M457.027 266.152C457.063 266.14 457.087 266.01 457.11 265.798C457.3 264.036 457.181 256.351 456.246 256.02C455.193 255.654 452.565 256.257 452.388 257.262C452.21 258.278 452.826 266.933 452.826 266.933C452.826 266.933 453.015 268.292 455.299 268.623C456.708 268.824 457.027 266.152 457.027 266.152Z" fill="#FFBE9D"/>
<path d="M452.5 267.523C452.536 267.512 452.559 267.381 452.583 267.169C452.772 265.407 452.654 257.722 451.719 257.391C450.666 257.025 448.038 257.628 447.849 258.633C447.671 259.649 448.287 268.304 448.287 268.304C448.287 268.304 448.476 269.663 450.76 269.994C452.181 270.207 452.5 267.523 452.5 267.523Z" fill="#FFBE9D"/>
<path d="M448.004 268.823C448.04 268.811 448.063 268.681 448.087 268.468C448.276 266.707 448.158 259.022 447.223 258.691C446.17 258.325 443.542 258.928 443.352 259.932C443.175 260.949 443.79 269.603 443.79 269.603C443.79 269.603 443.98 270.963 446.264 271.294C447.696 271.507 448.004 268.823 448.004 268.823Z" fill="#FFBE9D"/>
<path d="M456.953 256.742C457.084 256.754 457.249 258.433 457.308 260.49C457.38 262.547 457.32 264.202 457.19 264.191C457.06 264.179 456.894 262.5 456.835 260.443C456.764 258.386 456.823 256.73 456.953 256.742Z" fill="#EB996E"/>
<path d="M452.403 256.718C452.534 256.718 452.735 259.094 452.83 262.038C452.936 264.982 452.912 267.37 452.782 267.382C452.652 267.382 452.451 265.005 452.356 262.062C452.25 259.118 452.273 256.718 452.403 256.718Z" fill="#EB996E"/>
<g opacity="0.78">
<path d="M447.806 257.096C447.936 257.096 448.137 259.472 448.232 262.416C448.338 265.36 448.315 267.748 448.185 267.76C448.054 267.76 447.853 265.383 447.758 262.44C447.652 259.496 447.676 257.108 447.806 257.096Z" fill="#EB996E"/>
</g>
<path d="M444.905 244.765C444.905 244.765 438.502 259.307 439.437 260.205C440.372 261.104 443.379 262.499 443.379 262.499L444.905 244.765Z" fill="#FFBE9D"/>
<path d="M409.479 49.7495L404.78 104.122L377.509 101.947C377.343 98.7662 377.568 86.4707 377.568 86.4707C377.568 86.4707 366.229 84.7091 366.086 73.383C366.015 67.8855 366.808 56.512 367.637 46.2618C368.56 34.9002 378.396 26.3524 389.783 27.0145C401.584 27.7121 410.497 37.9859 409.479 49.7495Z" fill="#FFBE9D"/>
<path d="M377.555 86.3054C377.555 86.3054 384.728 86.8848 392.339 82.1084C392.339 82.1084 388.847 90.266 377.52 89.2375L377.555 86.3054Z" fill="#EB996E"/>
<path d="M370.654 54.2059C370.618 55.0571 371.328 55.7901 372.216 55.8374C373.104 55.8847 373.849 55.2345 373.885 54.3832C373.92 53.532 373.21 52.799 372.323 52.7517C371.435 52.6926 370.689 53.3547 370.654 54.2059Z" fill="#263238"/>
<path d="M370.063 51.9709C370.265 52.1837 371.495 51.2734 373.235 51.2852C374.975 51.2616 376.254 52.1601 376.443 51.9473C376.538 51.8527 376.337 51.4744 375.78 51.0724C375.236 50.6704 374.301 50.2803 373.212 50.2803C372.123 50.2803 371.211 50.6822 370.691 51.096C370.146 51.498 369.969 51.8763 370.063 51.9709Z" fill="#263238"/>
<path d="M387.818 54.2039C387.782 55.0552 388.492 55.7882 389.38 55.8355C390.268 55.8828 391.025 55.2325 391.049 54.3813C391.085 53.5301 390.374 52.7971 389.487 52.7498C388.599 52.6907 387.853 53.3527 387.818 54.2039Z" fill="#263238"/>
<path d="M387.191 52.301C387.393 52.5138 388.624 51.6035 390.364 51.6153C392.104 51.5916 393.382 52.4902 393.571 52.2774C393.666 52.1828 393.465 51.8044 392.897 51.4025C392.352 51.0005 391.417 50.6104 390.328 50.6104C389.239 50.6222 388.328 51.0123 387.807 51.4261C387.286 51.8281 387.097 52.2064 387.191 52.301Z" fill="#263238"/>
<path d="M380.867 65.2114C380.879 65.1168 379.79 64.9276 378.038 64.703C377.588 64.6557 377.174 64.5729 377.091 64.2656C376.985 63.9463 377.174 63.4616 377.387 62.9532C377.801 61.8774 378.239 60.7542 378.701 59.572C380.524 54.7483 381.849 50.7877 381.66 50.7168C381.471 50.6459 379.825 54.4882 378.002 59.3119C377.564 60.5059 377.138 61.6291 376.736 62.7168C376.57 63.2252 376.274 63.7926 376.499 64.4665C376.618 64.7976 376.949 65.034 377.233 65.1168C377.517 65.1995 377.766 65.2114 377.991 65.2232C379.766 65.3059 380.855 65.306 380.867 65.2114Z" fill="#263238"/>
<path d="M385.993 66.4182C385.709 66.4064 385.709 68.2862 384.088 69.634C382.466 70.9817 380.454 70.7689 380.442 71.029C380.419 71.1473 380.892 71.3955 381.744 71.4192C382.585 71.4428 383.804 71.1827 384.786 70.3551C385.769 69.5276 386.195 68.4399 386.266 67.6596C386.337 66.8675 386.124 66.4064 385.993 66.4182Z" fill="#263238"/>
<path d="M386.739 45.4805C386.916 45.9534 388.656 45.7288 390.692 45.977C392.74 46.178 394.397 46.781 394.657 46.3554C394.776 46.1544 394.492 45.7051 393.829 45.244C393.166 44.7829 392.113 44.3573 390.882 44.2155C389.651 44.0854 388.526 44.2746 387.781 44.582C387.047 44.8775 386.668 45.2558 386.739 45.4805Z" fill="#263238"/>
<path d="M370.699 46.9352C371.007 47.3253 372.202 46.9234 373.646 46.8997C375.09 46.8288 376.309 47.1598 376.593 46.746C376.712 46.545 376.522 46.1549 375.99 45.7766C375.469 45.3983 374.581 45.1027 373.587 45.1263C372.593 45.1618 371.74 45.5165 371.231 45.9184C370.734 46.3322 370.569 46.746 370.699 46.9352Z" fill="#263238"/>
<path d="M411.917 42.7504C411.266 48.2598 409.763 55.2115 409.337 60.8509C409.301 61.3711 409.242 61.915 408.935 62.3288C408.13 63.4046 406.2 65.71 405.218 64.7997C402.827 62.577 401.892 56.3465 401.418 53.1189C400.945 49.8913 401.028 46.6046 400.578 43.377C400.566 43.3061 400.554 43.2233 400.543 43.1524C400.223 40.8825 399.039 38.8371 397.24 37.4066C396.814 37.1229 396.376 36.8628 395.903 36.6972C392.577 35.5268 387.014 37.6903 383.699 38.8963C381.983 39.5229 380.326 40.2913 378.669 41.048C374.858 42.7741 370.348 42.514 366.963 40.0667C364.939 38.6125 364.761 33.9898 365.649 31.0696C368.04 23.1721 377.982 20.4647 390.718 23.4795C403.371 26.4588 413.207 31.4243 411.917 42.7504Z" fill="#263238"/>
<path d="M405.653 54.881C405.842 54.7982 413.441 52.5755 413.205 60.3194C412.956 68.0632 405.227 66.2189 405.215 65.9943C405.203 65.7815 405.653 54.881 405.653 54.881Z" fill="#FFBE9D"/>
<path d="M407.676 63.1443C407.711 63.1206 407.806 63.2388 408.031 63.3571C408.256 63.4635 408.635 63.5462 409.037 63.4162C409.866 63.1443 410.599 61.8674 410.682 60.4724C410.73 59.763 410.599 59.0891 410.363 58.5334C410.15 57.9541 409.795 57.5522 409.38 57.4694C408.978 57.363 408.67 57.5994 408.575 57.8123C408.469 58.0251 408.504 58.1788 408.469 58.1906C408.445 58.2142 408.303 58.0605 408.374 57.7413C408.41 57.5876 408.504 57.4103 408.694 57.2684C408.883 57.1265 409.155 57.0556 409.451 57.0911C410.043 57.1502 410.564 57.7177 410.824 58.3324C411.108 58.959 411.274 59.7157 411.227 60.5078C411.132 62.0684 410.28 63.499 409.144 63.7945C408.599 63.9246 408.149 63.7354 407.913 63.5462C407.676 63.3334 407.64 63.1561 407.676 63.1443Z" fill="#EB996E"/>
<path d="M411.789 43.27C411.883 43.3882 409.504 44.7124 406.249 44.7478C402.994 44.8188 400.568 43.601 400.65 43.471C400.71 43.2936 403.124 44.204 406.237 44.133C409.35 44.0976 411.729 43.0927 411.789 43.27Z" fill="#455A64"/>
<path d="M411.515 45.4929C411.61 45.6111 409.337 46.9234 406.201 46.9707C403.064 47.0416 400.744 45.8239 400.839 45.6938C400.898 45.5165 403.206 46.4268 406.189 46.3559C409.183 46.3086 411.456 45.3155 411.515 45.4929Z" fill="#455A64"/>
<path d="M357.546 431.35L362.589 454.522C362.589 454.522 340.691 467.421 341.212 471.795L386.546 463.649L380.178 427.212L357.546 431.35Z" fill="#263238"/>
<path d="M386.547 463.661L385.766 460.02L342.587 469.194C342.587 469.194 340.728 470.435 341.214 471.807L386.547 463.661Z" fill="#455A64"/>
<path d="M409.123 433.903L409.869 457.608C409.869 457.608 385.995 466.333 385.711 470.719L431.778 470.92L432.133 433.939L409.123 433.903Z" fill="#263238"/>
<g opacity="0.6">
<path d="M431.78 470.92L431.673 467.196L387.547 468.402C387.547 468.402 385.488 469.289 385.712 470.731L431.78 470.92Z" fill="#455A64"/>
</g>
<path d="M355.079 451.236C355.079 451.236 331.465 335.528 331.441 333.222L373.626 310.937L389.96 446.72L355.079 451.236Z" fill="#263238"/>
<path d="M408.187 455.113L375.566 254.577V211.318L420.13 215.444C420.698 217.135 435.281 455.374 435.281 455.374L430.677 455.113H408.187Z" fill="#263238"/>
<path d="M349.93 208.256L331.441 333.21L372.786 323.196L389.629 212.323L349.93 208.256Z" fill="#263238"/>
<path d="M388.172 218.849C388.172 218.849 388.172 219.061 388.219 219.463C388.267 219.889 388.326 220.48 388.409 221.26C388.586 222.857 388.858 225.174 389.19 228.141C389.9 234.124 390.953 242.766 392.35 253.442C395.108 274.793 399.298 304.232 403.796 336.756C406.033 353.024 408.092 368.535 409.856 382.652C410.306 386.187 410.673 389.627 411.17 392.973C411.679 396.307 412.176 399.534 412.661 402.667C413.608 408.922 414.496 414.75 415.301 420.07C416.899 430.711 418.165 439.329 418.994 445.288C419.408 448.267 419.716 450.585 419.893 452.157C419.988 452.937 420.047 453.54 420.071 453.942C420.083 454.143 420.095 454.297 420.071 454.391C420.059 454.522 420 454.38 420 454.403C420 454.403 420 454.415 420.012 454.439C420.023 454.486 420.095 454.451 420.095 454.391C420.118 454.285 420.118 454.131 420.118 453.93C420.106 453.528 420.071 452.914 420 452.133C419.858 450.549 419.586 448.232 419.207 445.253C418.449 439.282 417.242 430.652 415.691 420.011C414.91 414.691 414.046 408.851 413.123 402.596C412.649 399.463 412.164 396.236 411.667 392.902C411.182 389.58 410.827 386.116 410.377 382.592C408.649 368.464 406.601 352.953 404.364 336.685C399.866 304.149 395.617 274.723 392.753 253.394C391.344 242.742 390.208 234.112 389.415 228.129C389.024 225.162 388.728 222.845 388.527 221.26C388.42 220.492 388.338 219.901 388.278 219.475C388.219 219.061 388.172 218.849 388.172 218.849Z" fill="#455A64"/>
<path d="M363.317 450.16C363.317 450.16 363.305 449.959 363.246 449.569C363.175 449.155 363.08 448.575 362.962 447.831C362.701 446.282 362.311 444.047 361.825 441.174C360.807 435.381 359.34 427.023 357.529 416.713C353.848 396.047 348.77 367.543 343.159 336.047C342.745 334.108 342.603 332.146 342.816 330.207C343.065 328.28 343.384 326.317 343.668 324.402C344.26 320.548 344.852 316.765 345.432 313.029C346.604 305.58 347.764 298.392 348.912 291.559C351.184 277.88 353.386 265.596 355.351 255.299C357.316 245.001 359.044 236.702 360.358 230.979C360.973 228.118 361.541 225.907 361.885 224.406C362.05 223.673 362.192 223.106 362.275 222.692C362.358 222.302 362.394 222.101 362.394 222.101C362.394 222.101 362.322 222.29 362.216 222.668C362.109 223.07 361.956 223.638 361.766 224.371C361.387 225.86 360.784 228.059 360.133 230.92C358.748 236.619 356.972 244.918 354.948 255.204C352.936 265.49 350.699 277.785 348.391 291.452C347.231 298.286 346.059 305.474 344.876 312.922C344.296 316.646 343.704 320.441 343.1 324.296C342.816 326.223 342.497 328.15 342.236 330.136C342.023 332.134 342.177 334.179 342.591 336.154C348.261 367.626 353.398 396.118 357.126 416.772C359.008 427.07 360.535 435.405 361.6 441.198C362.133 444.059 362.559 446.294 362.843 447.831C362.985 448.575 363.104 449.143 363.187 449.557C363.258 449.959 363.317 450.16 363.317 450.16Z" fill="#455A64"/>
<path d="M375.583 253.158C375.429 253.182 377.358 266.14 379.891 282.088C382.424 298.049 384.602 310.959 384.756 310.936C384.91 310.912 382.981 297.954 380.448 281.994C377.915 266.045 375.737 253.135 375.583 253.158Z" fill="#455A64"/>
<path d="M407.801 454.746C407.801 454.781 408.18 454.852 408.866 454.935C409.553 455.018 410.559 455.112 411.801 455.207C414.275 455.396 417.708 455.585 421.507 455.644C425.307 455.704 428.739 455.633 431.225 455.526C432.468 455.467 433.474 455.408 434.16 455.349C434.859 455.29 435.237 455.242 435.237 455.195C435.237 455.112 433.699 455.112 431.213 455.124C428.727 455.136 425.307 455.136 421.519 455.077C417.731 455.018 414.311 454.9 411.825 454.805C409.351 454.722 407.813 454.663 407.801 454.746Z" fill="#455A64"/>
<path d="M355.078 451.236C355.078 451.271 355.575 451.247 356.463 451.165C357.457 451.058 358.724 450.928 360.215 450.763C363.376 450.408 367.743 449.864 372.561 449.238C377.378 448.611 381.734 448.02 384.882 447.559C386.362 447.334 387.617 447.145 388.611 446.991C389.487 446.849 389.972 446.755 389.972 446.719C389.972 446.672 389.475 446.696 388.587 446.779C387.699 446.861 386.421 446.991 384.835 447.169C381.675 447.523 377.307 448.055 372.49 448.682C367.672 449.309 363.316 449.912 360.168 450.373C358.688 450.597 357.434 450.798 356.44 450.952C355.552 451.094 355.067 451.2 355.078 451.236Z" fill="#455A64"/>
<path d="M292.994 134.4L319.59 154.605C319.59 154.605 344.34 112.457 346.518 109.833C348.707 107.208 354.259 104.406 354.259 104.406L351.181 158.448C351.181 158.448 337.794 192.568 319.424 190.712C305.363 189.293 281.051 152.229 281.051 152.229L292.994 134.4Z" fill="#B2CDB4"/>
<g opacity="0.2">
<path d="M319.094 153.967C315.401 159.63 314.383 166.96 316.407 173.403C316.608 174.065 316.892 174.763 317.484 175.118C318.372 175.65 319.591 175.106 320.147 174.231C320.703 173.356 320.774 172.268 320.834 171.24C321.354 172.197 321.899 173.19 322.798 173.805C323.698 174.42 325.059 174.503 325.793 173.699C326.681 172.729 326.195 171.192 325.663 169.987C323.402 164.855 321.129 159.724 318.869 154.605" fill="#678069"/>
</g>
<path d="M299.677 140.453C299.843 140.559 297.12 145.123 293.593 150.644C290.066 156.165 287.06 160.552 286.894 160.445C286.728 160.339 289.451 155.775 292.978 150.254C296.505 144.733 299.511 140.347 299.677 140.453Z" fill="#5F8862"/>
<path d="M292.91 139.708C292.839 139.649 293.182 139.294 293.785 139.519C294.058 139.625 294.389 139.886 294.496 140.347C294.602 140.82 294.294 141.352 293.857 141.564C293.43 141.801 292.815 141.765 292.483 141.399C292.152 141.056 292.14 140.63 292.199 140.347C292.353 139.72 292.839 139.637 292.85 139.732C292.898 139.826 292.685 140.027 292.708 140.406C292.72 140.808 293.04 141.186 293.525 140.926C294.01 140.678 293.88 140.193 293.561 139.957C293.253 139.744 292.957 139.803 292.91 139.708Z" fill="#5F8862"/>
<path d="M319.614 167.409C319.448 167.468 318.454 164.666 318.406 161.037C318.335 157.407 319.247 154.57 319.412 154.629C319.625 154.676 319.057 157.502 319.128 161.025C319.176 164.548 319.827 167.35 319.614 167.409Z" fill="#5F8862"/>
<path d="M324.772 167.221C324.607 167.315 322.867 164.75 321.364 161.25C319.848 157.751 319.174 154.724 319.363 154.677C319.564 154.618 320.535 157.514 322.026 160.966C323.506 164.419 324.95 167.114 324.772 167.221Z" fill="#5F8862"/>
<path d="M409.915 99.2632L405.891 91.3184H376.809L372.24 100.339L354.273 104.394L346.532 220.126C346.484 221.592 346.839 223.046 347.561 224.323L418.213 227.031L421.089 228.201C423.622 226.641 422.048 220.197 422.071 217.159L422.971 159.842L436.949 114.042L409.915 99.2632Z" fill="#B2CDB4"/>
<g opacity="0.2">
<path d="M379.77 103.284C381.486 101.57 383.19 99.8673 384.907 98.153C386.836 102.787 388.753 107.422 390.683 112.068C397.323 108.167 403.655 103.745 409.597 98.8387C403.075 100.931 396.553 103.024 390.032 105.117C388.375 100.73 386.729 96.3559 385.072 91.9697C383.912 95.9421 382.255 99.7845 380.16 103.355" fill="#678069"/>
</g>
<path d="M461.749 244.386L442.704 245.367L442.657 190.782L422.961 159.854L436.94 114.053C439.816 115.188 461.512 169.596 467.04 184.374C467.833 186.502 468.188 188.772 468.069 191.054L461.749 244.386Z" fill="#B2CDB4"/>
<path d="M354.26 128.287C354.461 128.311 353.514 139.495 352.153 153.28C350.792 167.065 349.525 178.226 349.324 178.202C349.123 178.179 350.07 166.995 351.431 153.209C352.804 139.436 354.07 128.275 354.26 128.287Z" fill="#5F8862"/>
<path d="M385.059 91.9921C385.248 92.0631 383.697 96.2365 381.59 101.297C381.46 101.616 381.33 101.923 381.2 102.231C381.058 102.55 380.916 102.904 380.561 103.2C380.194 103.519 379.602 103.46 379.294 103.283C378.963 103.117 378.738 102.94 378.477 102.774C377.554 102.148 376.69 101.557 375.862 101.001C374.382 99.9724 373.494 99.2985 373.554 99.2158C373.613 99.133 374.595 99.6532 376.134 100.575C376.986 101.096 377.886 101.639 378.833 102.219C379.353 102.538 379.874 102.928 380.111 102.644C380.419 102.384 380.632 101.628 380.904 101.025C383.023 95.9527 384.869 91.9212 385.059 91.9921Z" fill="#5F8862"/>
<path d="M408.184 99.086C408.219 99.1805 406.515 99.8544 403.745 100.871C400.976 101.888 397.129 103.248 392.856 104.702C392.063 104.974 391.27 105.234 390.524 105.494L390.205 105.6L390.074 105.293C388.571 101.663 387.281 98.4594 386.381 96.1421C385.482 93.8249 384.985 92.418 385.068 92.3825C385.15 92.3471 385.801 93.6948 386.819 95.9648C387.837 98.2347 389.21 101.403 390.737 105.021L390.287 104.82C391.033 104.56 391.814 104.3 392.619 104.016C396.88 102.562 400.751 101.273 403.568 100.386C406.385 99.4879 408.148 98.9914 408.184 99.086Z" fill="#5F8862"/>
<path d="M433.954 115.696C434.013 115.909 429.918 117.02 425.172 119.137C420.414 121.241 416.851 123.535 416.732 123.346C416.685 123.263 417.514 122.589 418.958 121.655C420.402 120.721 422.485 119.539 424.888 118.475C427.29 117.411 429.563 116.654 431.22 116.205C432.877 115.767 433.931 115.614 433.954 115.696Z" fill="#5F8862"/>
<path d="M385.058 91.9922C385.07 91.9922 385.082 92.1104 385.094 92.3351C385.106 92.607 385.118 92.938 385.141 93.3518C385.165 94.2503 385.224 95.5626 385.236 97.2651C385.271 100.658 385.248 105.576 385.011 111.641C384.573 123.783 383.058 140.512 380.632 158.873C379.448 168.059 378.158 176.796 377.282 184.765C376.394 192.733 376.015 199.945 376.134 205.998C376.217 212.051 376.773 216.934 377.27 220.292C377.471 221.971 377.744 223.259 377.874 224.146C377.933 224.548 377.98 224.879 378.028 225.151C378.063 225.375 378.063 225.494 378.051 225.494C378.039 225.494 378.004 225.387 377.957 225.163C377.897 224.903 377.826 224.572 377.732 224.17C377.554 223.295 377.246 222.006 376.986 220.327C376.406 216.981 375.767 212.087 375.625 205.998C375.435 199.921 375.779 192.674 376.631 184.682C377.471 176.69 378.75 167.953 379.933 158.767C382.36 140.406 383.958 123.724 384.514 111.606C384.822 105.553 384.916 100.635 384.964 97.2533C384.976 95.5981 384.987 94.2976 384.999 93.3518C385.011 92.938 385.023 92.607 385.023 92.3351C385.035 92.1104 385.047 91.9922 385.058 91.9922Z" fill="#5F8862"/>
<path d="M462.775 236.027C462.763 236.228 458.241 236.169 452.678 235.897C447.115 235.625 442.605 235.247 442.617 235.046C442.629 234.845 447.151 234.904 452.714 235.176C458.289 235.448 462.786 235.838 462.775 236.027Z" fill="#5F8862"/>
<path d="M445.887 238.155C445.947 238.238 445.852 238.427 445.947 238.676C446.053 238.947 446.254 239.077 446.503 238.877C446.751 238.664 446.669 238.451 446.432 238.285C446.207 238.144 446.006 238.191 445.935 238.12C445.852 238.073 446.053 237.73 446.574 237.801C446.811 237.848 447.118 237.99 447.272 238.344C447.438 238.711 447.272 239.196 446.953 239.432C446.645 239.692 446.148 239.751 445.816 239.515C445.497 239.278 445.426 238.959 445.426 238.711C445.473 238.203 445.852 238.073 445.887 238.155Z" fill="#5F8862"/>
<g opacity="0.2">
<path d="M423.243 159.713C421.172 155.977 419.1 152.241 417.029 148.505C414.555 168.201 415.952 188.383 421.124 207.547C421.763 191.681 422.402 175.815 423.042 159.937" fill="#678069"/>
</g>
<path d="M391.735 139.141C391.711 139.118 392.102 139.094 392.86 139.07C393.724 139.047 394.824 139.023 396.174 138.988C399.05 138.929 403.193 138.858 408.188 138.834H408.531L408.507 139.177C408.188 143.539 407.809 148.611 407.418 154.002L407.406 154.203L407.229 154.298C406.992 154.416 406.744 154.558 406.495 154.688C403.702 156.154 401.003 157.573 398.446 158.909L398.245 159.015L398.068 158.873C395.357 156.663 392.848 154.605 390.599 152.773L390.48 152.678L390.492 152.525C390.847 148.517 391.131 145.171 391.345 142.712C391.451 141.636 391.546 140.761 391.617 140.052C391.676 139.425 391.711 139.118 391.735 139.141C391.759 139.165 391.747 139.508 391.735 140.146C391.7 140.867 391.664 141.778 391.617 142.877C391.475 145.313 391.297 148.6 391.072 152.548L390.966 152.3C393.227 154.109 395.76 156.131 398.494 158.318L398.115 158.282C400.66 156.934 403.358 155.516 406.14 154.038C406.389 153.908 406.649 153.766 406.874 153.648L406.684 153.943C407.111 148.552 407.513 143.492 407.868 139.13L408.176 139.472C403.311 139.437 399.239 139.378 396.351 139.319C394.978 139.283 393.854 139.26 392.978 139.236C392.197 139.189 391.759 139.165 391.735 139.141Z" fill="#5F8862"/>
<path d="M356.808 224.914C356.796 225.115 355.316 224.843 354.369 223.412C353.399 221.994 353.706 220.528 353.896 220.587C354.109 220.599 354.144 221.828 354.961 223.01C355.742 224.216 356.867 224.713 356.808 224.914Z" fill="#5F8862"/>
<path d="M358.642 224.146C358.524 224.288 357.174 223.011 356.642 220.871C356.086 218.731 356.666 216.981 356.843 217.041C357.056 217.076 356.831 218.743 357.34 220.694C357.825 222.644 358.808 224.016 358.642 224.146Z" fill="#5F8862"/>
<path d="M411.975 216.19C412.153 216.166 412.33 218.968 410.874 222.018C409.454 225.08 407.17 226.735 407.087 226.582C406.933 226.428 408.886 224.607 410.223 221.711C411.596 218.826 411.75 216.166 411.975 216.19Z" fill="#5F8862"/>
<path d="M291.505 136.611C291.505 136.611 269.987 120.331 266.969 119.244C261.962 117.435 260.766 117.919 260.766 117.919L272.567 130.617C272.567 130.617 260.092 134.826 259.192 135.31C258.186 135.854 257.843 138.55 260.885 138.55C263.382 138.55 275.349 138.834 275.349 138.834L285.22 146.034L291.505 136.611Z" fill="#FFBE9D"/>
<path d="M307.988 55.1052L293.193 69.8835C293.064 70.0127 292.911 70.1152 292.742 70.1851C292.573 70.255 292.393 70.291 292.21 70.291C292.028 70.291 291.847 70.255 291.678 70.1851C291.51 70.1152 291.357 70.0127 291.228 69.8835L284.755 63.418C284.626 63.2892 284.523 63.1362 284.453 62.9678C284.384 62.7994 284.348 62.6189 284.348 62.4367C284.348 62.2544 284.384 62.0739 284.453 61.9055C284.523 61.7372 284.626 61.5842 284.755 61.4553C284.884 61.3264 285.037 61.2242 285.205 61.1544C285.374 61.0847 285.555 61.0488 285.737 61.0488C285.92 61.0488 286.1 61.0847 286.269 61.1544C286.437 61.2242 286.591 61.3264 286.72 61.4553L292.211 66.9406L306.025 53.1448C306.286 52.8845 306.639 52.7383 307.008 52.7383C307.376 52.7383 307.73 52.8845 307.99 53.1448C308.251 53.4051 308.397 53.7581 308.397 54.1262C308.397 54.4942 308.251 54.8472 307.99 55.1075L307.988 55.1052Z" fill="white"/>
</svg>
