<svg width="320" height="256" viewBox="0 0 320 256" fill="none" xmlns="http://www.w3.org/2000/svg">
<path d="M223.343 36.667C225.263 49.862 216.091 62.1175 202.867 64.0428C189.643 65.9624 177.365 56.8256 175.445 43.6306C173.526 30.4355 182.697 18.1801 195.921 16.2547C209.151 14.3351 221.429 23.4719 223.343 36.667Z" fill="#A6E6A2"/>
<path d="M217.647 37.497C219.111 47.5503 212.124 56.8946 202.042 58.3588C191.966 59.823 182.61 52.8595 181.146 42.8003C179.687 32.7412 186.668 23.4026 196.75 21.9384C206.827 20.4743 216.183 27.4436 217.647 37.497Z" fill="#8CD983"/>
<path d="M217.552 36.927C217.442 36.9443 217.246 36.1546 216.75 34.7999C216.249 33.4568 215.402 31.5257 213.834 29.5138C213.05 28.5108 212.087 27.4962 210.934 26.5509C209.775 25.617 208.432 24.7408 206.905 24.0606C206.144 23.7147 205.342 23.4092 204.501 23.1728C203.659 22.9307 202.789 22.729 201.889 22.6194C200.99 22.5041 200.068 22.435 199.128 22.458C198.194 22.4811 197.243 22.5733 196.298 22.7347C195.352 22.9077 194.43 23.1498 193.542 23.4495C192.655 23.7493 191.813 24.1297 191.006 24.5506C190.199 24.9656 189.45 25.4556 188.746 25.9686C188.037 26.4817 187.392 27.0466 186.798 27.6288C185.599 28.7933 184.642 30.0788 183.875 31.3527C183.12 32.6382 182.567 33.9237 182.175 35.1343C181.396 37.5669 181.264 39.6652 181.258 41.1006C181.258 42.5417 181.35 43.3545 181.235 43.3718C181.154 43.3891 180.878 42.6109 180.705 41.1294C180.543 39.6594 180.514 37.4574 181.212 34.8518C181.564 33.5548 182.088 32.1655 182.855 30.7705C183.627 29.387 184.619 27.9862 185.876 26.7065C186.504 26.0666 187.184 25.4498 187.939 24.8849C188.689 24.32 189.49 23.7839 190.355 23.3227C191.219 22.8615 192.124 22.4465 193.081 22.1122C194.038 21.7836 195.03 21.5184 196.05 21.3339C197.07 21.161 198.096 21.063 199.105 21.0457C200.114 21.0227 201.111 21.1091 202.08 21.2417C203.048 21.3743 203.988 21.5991 204.887 21.8758C205.786 22.1467 206.645 22.4926 207.452 22.8788C209.072 23.6455 210.484 24.6197 211.689 25.6573C212.882 26.7065 213.857 27.8248 214.635 28.9201C216.185 31.1221 216.918 33.2031 217.275 34.6385C217.621 36.0854 217.632 36.9155 217.552 36.927Z" fill="#A8E6A3"/>
<path d="M63.184 154.392C64.864 165.976 56.824 176.728 45.208 178.416C33.6 180.104 22.824 172.08 21.136 160.496C19.456 148.912 27.496 138.16 39.112 136.472C50.72 134.792 61.496 142.808 63.184 154.392Z" fill="#A6E6A2"/>
<path d="M58.1856 155.12C59.4656 163.944 53.3376 172.144 44.4896 173.432C35.6416 174.72 27.4336 168.608 26.1456 159.776C24.8656 150.952 30.9936 142.752 39.8416 141.464C48.6896 140.184 56.8976 146.296 58.1856 155.12Z" fill="#8CD983"/>
<path d="M40.1738 168.628C39.7514 168.683 39.401 168.603 39.1227 168.388C38.8443 168.174 38.6754 167.838 38.616 167.38L38.2837 164.82L36.779 165.015C36.4446 165.058 36.1703 165.014 35.9562 164.88C35.7574 164.727 35.6385 164.501 35.5997 164.202C35.5586 163.885 35.6157 163.636 35.7712 163.455C35.9419 163.254 36.1945 163.131 36.5288 163.088L38.0335 162.893L37.756 160.754L36.2513 160.95C35.9169 160.993 35.6427 160.948 35.4285 160.815C35.2297 160.662 35.1097 160.427 35.0686 160.11C35.0298 159.811 35.0881 159.571 35.2435 159.389C35.4142 159.188 35.6668 159.066 36.0012 159.023L37.5059 158.827L36.5396 151.383C36.4825 150.943 36.5535 150.594 36.7525 150.335C36.9669 150.057 37.2941 149.889 37.7341 149.832L42.5386 149.209C43.8761 149.035 45.0409 149.116 46.033 149.453C47.0228 149.772 47.8079 150.305 48.3881 151.053C48.9684 151.801 49.3316 152.738 49.4778 153.864C49.6171 154.938 49.4918 155.903 49.1019 156.758C48.7096 157.597 48.0933 158.294 47.2528 158.851C46.4124 159.407 45.3674 159.766 44.1179 159.929L40.5278 160.395L40.8053 162.533L44.3955 162.067C44.7299 162.023 44.9965 162.078 45.1953 162.232C45.4094 162.365 45.5371 162.59 45.5782 162.907C45.617 163.206 45.5511 163.456 45.3803 163.657C45.2249 163.838 44.98 163.951 44.6456 163.994L41.0555 164.46L41.3878 167.021C41.4472 167.478 41.3697 167.846 41.1553 168.124C40.9585 168.401 40.6313 168.568 40.1738 168.628ZM40.2249 158.474L43.419 158.06C44.6685 157.898 45.5858 157.519 46.1707 156.924C46.7709 156.309 47.0002 155.457 46.8585 154.365C46.7146 153.257 46.2817 152.472 45.5597 152.011C44.8378 151.55 43.8344 151.403 42.5497 151.569L39.3819 151.981L40.2249 158.474Z" fill="#A8E6A3"/>
<path d="M58.1046 154.617C58.0086 154.633 57.8406 153.945 57.4006 152.753C56.9606 151.569 56.2166 149.881 54.8406 148.113C54.1526 147.233 53.3126 146.337 52.2966 145.513C51.2806 144.697 50.0966 143.929 48.7606 143.329C48.0966 143.025 47.3926 142.761 46.6486 142.553C45.9126 142.337 45.1446 142.169 44.3606 142.065C43.5686 141.961 42.7606 141.905 41.9366 141.921C41.1126 141.937 40.2806 142.017 39.4486 142.161C38.6166 142.313 37.8086 142.529 37.0326 142.793C36.2566 143.057 35.5126 143.393 34.8086 143.761C34.0966 144.129 33.4406 144.553 32.8246 145.009C32.2006 145.457 31.6326 145.953 31.1126 146.465C30.0646 147.489 29.2166 148.617 28.5446 149.737C27.8806 150.865 27.3926 151.993 27.0486 153.057C26.3606 155.193 26.2486 157.033 26.2406 158.297C26.2406 159.561 26.3206 160.273 26.2246 160.289C26.1526 160.305 25.9126 159.617 25.7606 158.321C25.6166 157.033 25.5926 155.097 26.2086 152.809C26.5126 151.673 26.9766 150.449 27.6486 149.225C28.3286 148.009 29.1926 146.777 30.2966 145.657C30.8486 145.097 31.4486 144.553 32.1046 144.057C32.7606 143.561 33.4646 143.089 34.2246 142.689C34.9846 142.281 35.7766 141.921 36.6166 141.625C37.4566 141.337 38.3286 141.105 39.2246 140.937C40.1206 140.785 41.0166 140.697 41.9046 140.681C42.7926 140.665 43.6646 140.737 44.5206 140.849C45.3686 140.969 46.1926 141.161 46.9846 141.401C47.7766 141.641 48.5286 141.937 49.2326 142.281C50.6566 142.953 51.8966 143.809 52.9526 144.721C54.0006 145.641 54.8566 146.625 55.5366 147.585C56.8966 149.521 57.5446 151.345 57.8566 152.601C58.1686 153.881 58.1766 154.609 58.1046 154.617Z" fill="#A8E6A3"/>
<path d="M165.606 242.016L41.7743 111.04C40.4703 109.656 40.5343 107.48 41.9103 106.176L123.182 29.3436C124.566 28.0396 126.742 28.0956 128.046 29.4796L251.878 160.464C253.182 161.848 253.118 164.024 251.742 165.328L170.47 242.16C169.086 243.464 166.91 243.4 165.606 242.016Z" fill="#FFF500"/>
<g opacity="0.3">
<path d="M165.606 242.016L41.7743 111.04C40.4703 109.656 40.5343 107.48 41.9103 106.176L123.182 29.3436C124.566 28.0396 126.742 28.0956 128.046 29.4796L251.878 160.464C253.182 161.848 253.118 164.024 251.742 165.328L170.47 242.16C169.086 243.464 166.91 243.4 165.606 242.016Z" fill="black"/>
</g>
<path d="M250.968 159.504L128.952 30.4401C127.144 28.5281 124.136 28.4481 122.224 30.2481L99.1357 52.0801C98.6717 52.5121 98.4477 53.1521 98.5597 53.7761C100.864 66.6881 110.104 78.2321 121.104 85.8801C134.408 95.1281 150.16 99.9921 165.144 106.16C180.12 112.328 195.152 120.456 204.128 133.944C212.6 146.664 214.608 162.448 218.912 177.12C220.064 181.032 221.504 184.992 223.264 188.784C223.816 189.968 225.352 190.272 226.304 189.376L250.776 166.24C252.696 164.424 252.776 161.416 250.968 159.504Z" fill="#FFF500"/>
<path d="M99.4721 91.9035L98.3601 90.7355L96.8161 92.1915L96.2481 91.5915L97.7921 90.1355L94.6641 86.8315L95.0961 86.4235L101.912 85.8555L102.544 86.5275L95.9281 87.1115L98.3361 89.6555L99.6881 88.3755L100.24 88.9595L98.8881 90.2395L99.9921 91.4075L99.4721 91.9035Z" fill="white"/>
<path d="M103.689 96.0717C102.713 96.9997 101.281 96.9997 99.9446 95.5837C99.1446 94.7357 98.6727 93.6477 98.7047 92.7597L99.4567 92.5997C99.4167 93.3517 99.7766 94.2957 100.497 95.0557C101.417 96.0237 102.377 96.1357 103.105 95.4477C103.809 94.7837 103.801 93.8557 102.769 92.7677L102.377 92.3517L102.817 91.9357L106.385 91.6397L103.553 88.6397L104.089 88.1357L107.649 91.9037L107.225 92.3037L103.577 92.6157C104.689 93.9277 104.625 95.1837 103.689 96.0717Z" fill="white"/>
<path d="M108.209 100.768C107.217 101.712 105.777 101.752 104.425 100.32C103.625 99.4718 103.161 98.3918 103.193 97.5038L103.945 97.3437C103.905 98.0957 104.257 99.0318 104.969 99.7838C105.913 100.784 106.897 100.848 107.609 100.176C108.361 99.4638 108.385 98.5518 106.977 97.0638L105.801 95.8158L109.025 93.3438L112.057 96.5518L111.521 97.0558L108.985 94.3758L106.929 95.9358L107.641 96.6878C109.305 98.4558 109.241 99.7838 108.209 100.768Z" fill="white"/>
<path d="M113.11 105.903C112.014 106.943 110.494 106.743 109.422 105.607C107.95 104.047 108.23 102.183 110.078 100.431C112.07 98.5513 114.134 98.6553 115.638 100.247C116.134 100.775 116.51 101.359 116.638 101.935L115.926 102.151C115.846 101.663 115.534 101.191 115.126 100.751C113.934 99.4873 112.35 99.4393 110.758 100.943C110.622 101.071 110.462 101.239 110.302 101.423C111.222 101.103 112.23 101.455 112.998 102.263C114.102 103.431 114.182 104.895 113.11 105.903ZM112.534 105.327C113.302 104.599 113.262 103.567 112.406 102.663C111.558 101.767 110.43 101.679 109.702 102.367C109.054 102.975 108.95 104.087 109.91 105.103C110.702 105.943 111.75 106.063 112.534 105.327Z" fill="white"/>
<path d="M123.335 120.224L123.855 117.088L120.687 117.424L120.055 116.752L123.959 116.36L124.535 112.68L125.167 113.352L124.695 116.304L127.671 116L128.287 116.656L124.575 117.024L123.975 120.92L123.335 120.224Z" fill="white"/>
<path d="M127.561 124.695L128.081 121.559L124.913 121.895L124.281 121.223L128.185 120.831L128.761 117.151L129.393 117.823L128.921 120.775L131.897 120.471L132.513 121.127L128.801 121.495L128.201 125.391L127.561 124.695Z" fill="white"/>
<path d="M131.784 129.159L132.304 126.023L129.136 126.359L128.504 125.687L132.408 125.295L132.984 121.615L133.616 122.287L133.144 125.239L136.12 124.935L136.736 125.591L133.024 125.959L132.424 129.855L131.784 129.159Z" fill="white"/>
<path d="M136.007 133.632L136.527 130.496L133.359 130.832L132.727 130.16L136.631 129.768L137.207 126.088L137.839 126.76L137.367 129.712L140.343 129.408L140.959 130.064L137.247 130.432L136.647 134.328L136.007 133.632Z" fill="white"/>
<path d="M150.6 149.064L151.12 145.928L147.952 146.264L147.32 145.592L151.224 145.2L151.8 141.52L152.432 142.192L151.96 145.144L154.936 144.84L155.552 145.496L151.84 145.864L151.24 149.76L150.6 149.064Z" fill="white"/>
<path d="M154.823 153.535L155.343 150.399L152.175 150.735L151.543 150.063L155.447 149.671L156.023 145.991L156.655 146.663L156.183 149.615L159.159 149.311L159.775 149.967L156.063 150.335L155.463 154.231L154.823 153.535Z" fill="white"/>
<path d="M159.05 158.007L159.57 154.871L156.402 155.199L155.77 154.527L159.674 154.135L160.25 150.455L160.882 151.127L160.41 154.079L163.386 153.775L164.002 154.431L160.29 154.799L159.69 158.695L159.05 158.007Z" fill="white"/>
<path d="M163.28 162.472L163.8 159.336L160.632 159.672L160 159L163.904 158.608L164.48 154.928L165.112 155.6L164.64 158.552L167.616 158.248L168.232 158.904L164.52 159.272L163.92 163.168L163.28 162.472Z" fill="white"/>
<path d="M182.24 170.792L176.384 176.328L175.816 175.728L181.136 170.696L179.832 169.312L180.368 168.808L182.24 170.792Z" fill="white"/>
<path d="M183.048 180.015C182.072 180.943 180.64 180.943 179.304 179.527C178.504 178.679 178.032 177.591 178.064 176.703L178.816 176.543C178.776 177.295 179.136 178.239 179.856 178.999C180.776 179.967 181.736 180.079 182.464 179.391C183.168 178.727 183.16 177.799 182.128 176.711L181.736 176.295L182.176 175.879L185.744 175.583L182.912 172.583L183.448 172.079L187.008 175.847L186.584 176.247L182.936 176.559C184.056 177.879 183.984 179.127 183.048 180.015Z" fill="white"/>
<path d="M188.417 185.976L187.313 184.808L185.769 186.264L185.201 185.664L186.745 184.208L183.617 180.904L184.049 180.496L190.865 179.928L191.497 180.6L184.881 181.184L187.289 183.728L188.641 182.448L189.193 183.032L187.841 184.312L188.953 185.488L188.417 185.976Z" fill="white"/>
<path d="M191.682 191.448L191.146 191.952L187.258 187.84L187.682 187.44L192.37 187.624C193.65 187.672 194.162 187.424 194.562 187.04C195.242 186.4 195.21 185.528 194.362 184.632C193.714 183.944 193.002 183.616 192.194 183.648L192.154 182.872C193.114 182.816 194.106 183.264 194.954 184.16C196.074 185.352 196.186 186.672 195.21 187.6C194.65 188.128 193.978 188.432 192.466 188.368L188.626 188.224L191.682 191.448Z" fill="white"/>
<path d="M149.471 190.439C151.247 188.759 153.191 188.791 154.439 190.111C155.695 191.439 155.615 193.375 153.839 195.055C152.063 196.735 150.127 196.711 148.871 195.383C147.615 194.055 147.695 192.119 149.471 190.439ZM152.647 193.799C153.871 192.639 153.975 191.735 153.383 191.111C152.799 190.495 151.887 190.543 150.663 191.703C149.439 192.863 149.343 193.775 149.919 194.383C150.511 195.007 151.423 194.959 152.647 193.799Z" fill="white"/>
<path d="M157.616 201.048C156.512 202.088 154.976 201.84 153.896 200.704C152.496 199.216 152.552 197.416 154.288 195.768C156.152 194.008 158.248 194.152 159.784 195.776C160.32 196.344 160.72 197.024 160.832 197.624L159.48 198.032C159.392 197.544 159.136 197.128 158.8 196.768C157.952 195.864 156.872 195.792 155.808 196.728C156.424 196.744 157.016 197.048 157.544 197.608C158.52 198.64 158.632 200.088 157.616 201.048ZM156.416 199.896C156.912 199.432 156.88 198.768 156.36 198.216C155.84 197.672 155.144 197.608 154.672 198.048C154.208 198.488 154.2 199.152 154.768 199.752C155.264 200.28 155.92 200.36 156.416 199.896Z" fill="white"/>
<path d="M164.765 199.039L165.773 200.111L156.125 204.423L155.117 203.351L164.765 199.039Z" fill="white"/>
<path d="M164.079 209.255L163.063 210.215L159.215 206.143L160.023 205.383L163.951 205.607C164.855 205.655 165.215 205.479 165.471 205.231C165.895 204.831 165.863 204.303 165.327 203.735C164.887 203.271 164.343 203.047 163.735 203.127L163.463 201.663C164.463 201.503 165.567 201.887 166.487 202.855C167.623 204.055 167.767 205.439 166.783 206.359C166.263 206.855 165.647 207.159 164.231 207.063L161.887 206.927L164.079 209.255Z" fill="white"/>
<path d="M169.271 214.511L168.439 213.631L167.311 214.703L166.159 213.487L167.287 212.415L164.543 209.511L165.383 208.719L171.199 208.031L172.439 209.343L166.975 210.047L168.343 211.495L169.351 210.543L170.463 211.719L169.455 212.671L170.287 213.551L169.271 214.511Z" fill="white"/>
<path d="M194.541 147.88C197.573 143.208 196.381 137 192.309 133.208C191.037 132.024 189.581 131.056 188.061 130.416C184.165 128.792 178.997 129.976 176.957 133.672C175.285 136.688 175.965 140.456 177.133 143.696C178.357 147.096 180.341 150.568 183.709 151.888C186.949 153.16 190.837 151.992 193.261 149.496C193.741 149.008 194.165 148.464 194.541 147.88Z" fill="#FFF500"/>
<path d="M312 168.272C312 168.272 311.936 162.944 311.712 162.904L300.768 165.336C300.656 166.032 299.272 174.76 299.512 175.616L311.816 179.032C311.824 179.032 312 168.584 312 168.272Z" fill="#FFBE9D"/>
<path d="M312.013 178.224C312.037 178.216 312.053 178.128 312.069 177.984C312.197 176.792 312.117 171.592 311.485 171.368C310.773 171.12 308.997 171.528 308.869 172.208C308.749 172.896 309.165 178.752 309.165 178.752C309.165 178.752 309.293 179.672 310.837 179.896C311.797 180.032 312.013 178.224 312.013 178.224Z" fill="#FFBE9D"/>
<path d="M308.896 180.096C308.92 180.088 308.936 180 308.952 179.856C309.08 178.664 309 173.464 308.368 173.24C307.656 172.992 305.88 173.4 305.76 174.08C305.64 174.768 306.056 180.624 306.056 180.624C306.056 180.624 306.184 181.544 307.728 181.768C308.68 181.904 308.896 180.096 308.896 180.096Z" fill="#FFBE9D"/>
<path d="M305.838 181.024C305.862 181.016 305.878 180.928 305.894 180.784C306.022 179.592 305.942 174.392 305.31 174.168C304.598 173.92 302.822 174.328 302.694 175.008C302.574 175.696 302.99 181.552 302.99 181.552C302.99 181.552 303.118 182.472 304.662 182.696C305.622 182.84 305.838 181.024 305.838 181.024Z" fill="#FFBE9D"/>
<path d="M302.799 181.904C302.823 181.896 302.839 181.808 302.855 181.664C302.983 180.472 302.903 175.272 302.271 175.048C301.559 174.8 299.783 175.208 299.655 175.888C299.535 176.576 299.951 182.432 299.951 182.432C299.951 182.432 300.079 183.352 301.623 183.576C302.591 183.72 302.799 181.904 302.799 181.904Z" fill="#FFBE9D"/>
<path d="M308.847 173.729C308.935 173.737 309.047 174.873 309.087 176.265C309.135 177.657 309.095 178.777 309.007 178.769C308.919 178.761 308.807 177.625 308.767 176.233C308.719 174.841 308.759 173.721 308.847 173.729Z" fill="#EB996E"/>
<path d="M305.773 173.712C305.861 173.712 305.997 175.32 306.061 177.312C306.133 179.304 306.117 180.92 306.029 180.928C305.941 180.928 305.805 179.32 305.741 177.328C305.669 175.336 305.685 173.712 305.773 173.712Z" fill="#EB996E"/>
<g opacity="0.78">
<path d="M302.663 173.968C302.751 173.968 302.887 175.576 302.951 177.568C303.023 179.56 303.007 181.176 302.919 181.184C302.831 181.184 302.695 179.576 302.631 177.584C302.559 175.592 302.575 173.976 302.663 173.968Z" fill="#EB996E"/>
</g>
<path d="M300.704 165.624C300.704 165.624 296.376 175.464 297.008 176.072C297.64 176.68 299.672 177.624 299.672 177.624L300.704 165.624Z" fill="#FFBE9D"/>
<path d="M276.761 33.6642L273.585 70.4562L255.153 68.9842C255.041 66.8322 255.193 58.5122 255.193 58.5122C255.193 58.5122 247.529 57.3202 247.433 49.6562C247.385 45.9362 247.921 38.2402 248.481 31.3042C249.105 23.6162 255.753 17.8322 263.449 18.2802C271.425 18.7522 277.449 25.7042 276.761 33.6642Z" fill="#FFBE9D"/>
<path d="M255.184 58.4005C255.184 58.4005 260.032 58.7925 265.176 55.5605C265.176 55.5605 262.816 61.0806 255.16 60.3846L255.184 58.4005Z" fill="#EB996E"/>
<path d="M250.52 36.6798C250.496 37.2558 250.976 37.7518 251.576 37.7838C252.176 37.8158 252.68 37.3758 252.704 36.7998C252.728 36.2238 252.248 35.7278 251.648 35.6958C251.048 35.6558 250.544 36.1038 250.52 36.6798Z" fill="#263238"/>
<path d="M250.122 35.1674C250.258 35.3114 251.09 34.6954 252.266 34.7034C253.442 34.6874 254.306 35.2954 254.434 35.1514C254.498 35.0874 254.362 34.8314 253.986 34.5594C253.618 34.2874 252.986 34.0234 252.25 34.0234C251.514 34.0234 250.898 34.2954 250.546 34.5754C250.178 34.8474 250.058 35.1034 250.122 35.1674Z" fill="#263238"/>
<path d="M262.122 36.6789C262.098 37.2549 262.578 37.7509 263.178 37.7829C263.778 37.8149 264.29 37.3749 264.306 36.7989C264.33 36.2229 263.85 35.7269 263.25 35.6949C262.65 35.6549 262.146 36.1029 262.122 36.6789Z" fill="#263238"/>
<path d="M261.699 35.3911C261.835 35.5351 262.667 34.9191 263.843 34.9271C265.019 34.9111 265.883 35.5191 266.011 35.3751C266.075 35.3111 265.939 35.0551 265.555 34.7831C265.187 34.5111 264.555 34.2471 263.819 34.2471C263.083 34.2551 262.467 34.5191 262.115 34.7991C261.763 35.0711 261.635 35.3271 261.699 35.3911Z" fill="#263238"/>
<path d="M257.425 44.127C257.433 44.063 256.697 43.935 255.513 43.783C255.209 43.751 254.929 43.695 254.873 43.487C254.801 43.271 254.929 42.943 255.073 42.599C255.353 41.871 255.649 41.111 255.961 40.311C257.193 37.047 258.089 34.367 257.961 34.319C257.833 34.271 256.721 36.871 255.489 40.135C255.193 40.943 254.905 41.703 254.633 42.439C254.521 42.783 254.321 43.167 254.473 43.623C254.553 43.847 254.777 44.007 254.969 44.063C255.161 44.119 255.329 44.127 255.481 44.135C256.681 44.191 257.417 44.191 257.425 44.127Z" fill="#263238"/>
<path d="M260.889 44.9435C260.697 44.9355 260.697 46.2075 259.601 47.1195C258.505 48.0315 257.145 47.8875 257.137 48.0635C257.121 48.1435 257.441 48.3115 258.017 48.3275C258.585 48.3435 259.409 48.1675 260.073 47.6075C260.737 47.0475 261.025 46.3115 261.073 45.7835C261.121 45.2475 260.977 44.9355 260.889 44.9435Z" fill="#263238"/>
<path d="M261.392 30.7758C261.512 31.0958 262.688 30.9438 264.064 31.1118C265.448 31.2478 266.568 31.6558 266.744 31.3678C266.824 31.2318 266.632 30.9278 266.184 30.6158C265.736 30.3038 265.024 30.0158 264.192 29.9198C263.36 29.8318 262.6 29.9598 262.096 30.1678C261.6 30.3678 261.344 30.6238 261.392 30.7758Z" fill="#263238"/>
<path d="M250.552 31.7601C250.76 32.0241 251.568 31.7521 252.544 31.7361C253.52 31.6881 254.344 31.9121 254.536 31.6321C254.616 31.4961 254.488 31.2321 254.128 30.9761C253.776 30.7201 253.176 30.5201 252.504 30.5361C251.832 30.5601 251.256 30.8001 250.912 31.0721C250.576 31.3521 250.464 31.6321 250.552 31.7601Z" fill="#263238"/>
<path d="M278.409 28.928C277.969 32.656 276.953 37.36 276.665 41.176C276.641 41.528 276.601 41.896 276.393 42.176C275.849 42.904 274.545 44.464 273.881 43.848C272.265 42.344 271.633 38.128 271.313 35.944C270.993 33.76 271.049 31.536 270.745 29.352C270.737 29.304 270.729 29.248 270.721 29.2C270.505 27.664 269.705 26.28 268.489 25.312C268.201 25.12 267.905 24.944 267.585 24.832C265.337 24.04 261.577 25.504 259.337 26.32C258.177 26.744 257.057 27.264 255.937 27.776C253.361 28.944 250.313 28.768 248.025 27.112C246.657 26.128 246.537 23 247.137 21.024C248.753 15.68 255.473 13.848 264.081 15.888C272.633 17.904 279.281 21.264 278.409 28.928Z" fill="#263238"/>
<path d="M274.175 37.1365C274.303 37.0805 279.439 35.5765 279.279 40.8165C279.111 46.0565 273.887 44.8085 273.879 44.6565C273.871 44.5125 274.175 37.1365 274.175 37.1365Z" fill="#FFBE9D"/>
<path d="M275.543 42.7281C275.567 42.7121 275.631 42.7921 275.783 42.8721C275.935 42.9441 276.191 43.0001 276.463 42.9121C277.023 42.7281 277.519 41.8641 277.575 40.9201C277.607 40.4401 277.519 39.9841 277.359 39.6081C277.215 39.2161 276.975 38.9441 276.695 38.8881C276.423 38.8161 276.215 38.9761 276.151 39.1201C276.079 39.2641 276.103 39.3681 276.079 39.3761C276.063 39.3921 275.967 39.2881 276.015 39.0721C276.039 38.9681 276.103 38.8481 276.231 38.7521C276.359 38.6561 276.543 38.6081 276.743 38.6321C277.143 38.6721 277.495 39.0561 277.671 39.4721C277.863 39.8961 277.975 40.4081 277.943 40.9441C277.879 42.0001 277.303 42.9681 276.535 43.1681C276.167 43.2561 275.863 43.1281 275.703 43.0001C275.543 42.8561 275.519 42.7361 275.543 42.7281Z" fill="#EB996E"/>
<path d="M278.322 29.2798C278.386 29.3598 276.778 30.2558 274.578 30.2798C272.378 30.3278 270.738 29.5038 270.794 29.4158C270.834 29.2958 272.466 29.9118 274.57 29.8638C276.674 29.8398 278.282 29.1598 278.322 29.2798Z" fill="#455A64"/>
<path d="M278.136 30.7839C278.2 30.8639 276.664 31.7519 274.544 31.7839C272.424 31.8319 270.856 31.0079 270.92 30.9199C270.96 30.7999 272.52 31.4159 274.536 31.3679C276.56 31.3359 278.096 30.6639 278.136 30.7839Z" fill="#455A64"/>
<path d="M239.992 305.336C239.992 305.336 224.032 227.04 224.016 225.48L252.528 210.4L263.568 302.28L239.992 305.336Z" fill="#263238"/>
<path d="M275.888 307.96L253.84 172.264V142.992L283.96 145.784C284.344 146.928 294.2 308.136 294.2 308.136L291.088 307.96H275.888Z" fill="#263238"/>
<path d="M236.512 140.92L224.016 225.472L251.96 218.696L263.344 143.672L236.512 140.92Z" fill="#263238"/>
<path d="M262.359 148.088C262.359 148.088 262.359 148.232 262.391 148.504C262.423 148.792 262.463 149.192 262.519 149.72C262.639 150.8 262.823 152.368 263.047 154.376C263.527 158.424 264.239 164.272 265.183 171.496C267.047 185.944 269.879 205.864 272.919 227.872C274.431 238.88 275.823 249.376 277.015 258.928C277.319 261.32 277.567 263.648 277.903 265.912C278.247 268.168 278.583 270.352 278.911 272.472C279.551 276.704 280.151 280.648 280.695 284.248C281.775 291.448 282.631 297.28 283.191 301.312C283.471 303.328 283.679 304.896 283.799 305.96C283.863 306.488 283.903 306.896 283.919 307.168C283.927 307.304 283.935 307.408 283.919 307.472C283.911 307.56 283.871 307.464 283.871 307.48C283.871 307.48 283.871 307.488 283.879 307.504C283.887 307.536 283.935 307.512 283.935 307.472C283.951 307.4 283.951 307.296 283.951 307.16C283.943 306.888 283.919 306.472 283.871 305.944C283.775 304.872 283.591 303.304 283.335 301.288C282.823 297.248 282.007 291.408 280.959 284.208C280.431 280.608 279.847 276.656 279.223 272.424C278.903 270.304 278.575 268.12 278.239 265.864C277.911 263.616 277.671 261.272 277.367 258.888C276.199 249.328 274.815 238.832 273.303 227.824C270.263 205.808 267.391 185.896 265.455 171.464C264.503 164.256 263.735 158.416 263.199 154.368C262.935 152.36 262.735 150.792 262.599 149.72C262.527 149.2 262.471 148.8 262.431 148.512C262.391 148.232 262.359 148.088 262.359 148.088Z" fill="#455A64"/>
<path d="M245.559 304.608C245.559 304.608 245.551 304.472 245.511 304.208C245.463 303.928 245.399 303.536 245.319 303.032C245.143 301.984 244.879 300.472 244.551 298.528C243.863 294.608 242.871 288.952 241.647 281.976C239.159 267.992 235.727 248.704 231.935 227.392C231.655 226.08 231.559 224.752 231.703 223.44C231.871 222.136 232.087 220.808 232.279 219.512C232.679 216.904 233.079 214.344 233.471 211.816C234.263 206.776 235.047 201.912 235.823 197.288C237.359 188.032 238.847 179.72 240.175 172.752C241.503 165.784 242.671 160.168 243.559 156.296C243.975 154.36 244.359 152.864 244.591 151.848C244.703 151.352 244.799 150.968 244.855 150.688C244.911 150.424 244.935 150.288 244.935 150.288C244.935 150.288 244.887 150.416 244.815 150.672C244.743 150.944 244.639 151.328 244.511 151.824C244.255 152.832 243.847 154.32 243.407 156.256C242.471 160.112 241.271 165.728 239.903 172.688C238.543 179.648 237.031 187.968 235.471 197.216C234.687 201.84 233.895 206.704 233.095 211.744C232.703 214.264 232.303 216.832 231.895 219.44C231.703 220.744 231.487 222.048 231.311 223.392C231.167 224.744 231.271 226.128 231.551 227.464C235.383 248.76 238.855 268.04 241.375 282.016C242.647 288.984 243.679 294.624 244.399 298.544C244.759 300.48 245.047 301.992 245.239 303.032C245.335 303.536 245.415 303.92 245.471 304.2C245.519 304.472 245.559 304.608 245.559 304.608Z" fill="#455A64"/>
<path d="M253.85 171.304C253.746 171.32 255.05 180.088 256.762 190.88C258.474 201.68 259.946 210.416 260.05 210.4C260.154 210.384 258.85 201.616 257.138 190.816C255.426 180.024 253.954 171.288 253.85 171.304Z" fill="#455A64"/>
<path d="M198.029 90.9444L216.005 104.616C216.005 104.616 232.733 76.0964 234.205 74.3204C235.685 72.5444 239.437 70.6484 239.437 70.6484L237.357 107.216C237.357 107.216 228.309 130.304 215.893 129.048C206.389 128.088 189.957 103.008 189.957 103.008L198.029 90.9444Z" fill="#B2CDB4"/>
<g opacity="0.2">
<path d="M215.668 104.185C213.172 108.017 212.484 112.977 213.852 117.337C213.988 117.785 214.18 118.257 214.58 118.497C215.18 118.857 216.004 118.489 216.38 117.897C216.756 117.305 216.804 116.569 216.844 115.873C217.196 116.521 217.564 117.193 218.172 117.609C218.78 118.025 219.7 118.081 220.196 117.537C220.796 116.881 220.468 115.841 220.108 115.025C218.58 111.553 217.044 108.081 215.516 104.617" fill="#678069"/>
</g>
<path d="M202.547 95.0403C202.659 95.1123 200.819 98.2003 198.435 101.936C196.051 105.672 194.019 108.64 193.907 108.568C193.795 108.496 195.635 105.408 198.019 101.672C200.403 97.9363 202.435 94.9683 202.547 95.0403Z" fill="#5F8862"/>
<path d="M197.971 94.5363C197.923 94.4963 198.155 94.2563 198.563 94.4083C198.747 94.4803 198.971 94.6563 199.043 94.9683C199.115 95.2883 198.907 95.6483 198.611 95.7923C198.323 95.9523 197.907 95.9283 197.683 95.6803C197.459 95.4483 197.451 95.1603 197.491 94.9683C197.595 94.5443 197.923 94.4883 197.931 94.5523C197.963 94.6163 197.819 94.7523 197.835 95.0083C197.843 95.2803 198.059 95.5363 198.387 95.3603C198.715 95.1923 198.627 94.8643 198.411 94.7043C198.203 94.5603 198.003 94.6003 197.971 94.5363Z" fill="#5F8862"/>
<path d="M216.022 113.28C215.91 113.32 215.238 111.424 215.206 108.968C215.158 106.512 215.774 104.592 215.886 104.632C216.03 104.664 215.646 106.576 215.694 108.96C215.726 111.344 216.166 113.24 216.022 113.28Z" fill="#5F8862"/>
<path d="M219.509 113.153C219.397 113.217 218.221 111.481 217.205 109.113C216.181 106.745 215.725 104.697 215.853 104.665C215.989 104.625 216.645 106.585 217.653 108.921C218.653 111.257 219.629 113.081 219.509 113.153Z" fill="#5F8862"/>
<path d="M277.054 67.168L274.334 61.792H254.678L251.59 67.896L239.446 70.64L234.214 148.952C234.182 149.944 234.422 150.928 234.91 151.792L282.662 153.624L284.606 154.416C286.318 153.36 285.254 149 285.27 146.944L285.878 108.16L295.326 77.168L277.054 67.168Z" fill="#B2CDB4"/>
<g opacity="0.2">
<path d="M256.68 69.8884C257.84 68.7284 258.992 67.5764 260.152 66.4164C261.456 69.5524 262.752 72.6884 264.056 75.8324C268.544 73.1924 272.824 70.2004 276.84 66.8804C272.432 68.2964 268.024 69.7124 263.616 71.1284C262.496 68.1604 261.384 65.2004 260.264 62.2324C259.48 64.9204 258.36 67.5204 256.944 69.9364" fill="#678069"/>
</g>
<path d="M312.087 165.368L299.215 166.032L299.183 129.096L285.871 108.168L295.319 77.1758C297.263 77.9438 311.927 114.76 315.663 124.76C316.199 126.2 316.439 127.736 316.359 129.28L312.087 165.368Z" fill="#B2CDB4"/>
<path d="M239.436 86.8076C239.572 86.8236 238.932 94.3916 238.012 103.72C237.092 113.048 236.236 120.6 236.1 120.584C235.964 120.568 236.604 113 237.524 103.672C238.452 94.3516 239.308 86.7996 239.436 86.8076Z" fill="#5F8862"/>
<path d="M260.254 62.2477C260.382 62.2957 259.334 65.1197 257.91 68.5437C257.822 68.7597 257.734 68.9677 257.646 69.1757C257.55 69.3917 257.454 69.6317 257.214 69.8317C256.966 70.0477 256.566 70.0077 256.358 69.8877C256.134 69.7757 255.982 69.6557 255.806 69.5437C255.182 69.1197 254.598 68.7197 254.038 68.3437C253.038 67.6477 252.438 67.1917 252.478 67.1357C252.518 67.0797 253.182 67.4317 254.222 68.0557C254.798 68.4077 255.406 68.7757 256.046 69.1677C256.398 69.3837 256.75 69.6477 256.91 69.4557C257.118 69.2797 257.262 68.7677 257.446 68.3597C258.878 64.9277 260.126 62.1997 260.254 62.2477Z" fill="#5F8862"/>
<path d="M275.884 67.0482C275.908 67.1122 274.756 67.5682 272.884 68.2562C271.012 68.9442 268.412 69.8642 265.524 70.8482C264.988 71.0322 264.452 71.2082 263.948 71.3842L263.732 71.4562L263.644 71.2482C262.628 68.7922 261.756 66.6242 261.148 65.0562C260.54 63.4882 260.204 62.5362 260.26 62.5122C260.316 62.4882 260.756 63.4002 261.444 64.9362C262.132 66.4722 263.06 68.6162 264.092 71.0642L263.788 70.9282C264.292 70.7522 264.82 70.5762 265.364 70.3842C268.244 69.4002 270.86 68.5282 272.764 67.9282C274.668 67.3202 275.86 66.9842 275.884 67.0482Z" fill="#5F8862"/>
<path d="M293.301 78.288C293.341 78.432 290.573 79.184 287.365 80.616C284.149 82.04 281.741 83.592 281.661 83.464C281.629 83.408 282.189 82.952 283.165 82.32C284.141 81.688 285.549 80.888 287.173 80.168C288.797 79.448 290.333 78.936 291.453 78.632C292.573 78.336 293.285 78.232 293.301 78.288Z" fill="#5F8862"/>
<path d="M260.254 62.248C260.262 62.248 260.27 62.3281 260.278 62.4801C260.286 62.6641 260.294 62.8881 260.31 63.1681C260.326 63.7761 260.366 64.6641 260.374 65.8161C260.398 68.1121 260.382 71.44 260.222 75.544C259.926 83.76 258.902 95.0801 257.262 107.504C256.462 113.72 255.59 119.632 254.998 125.024C254.398 130.416 254.142 135.296 254.222 139.392C254.278 143.488 254.654 146.792 254.99 149.064C255.126 150.2 255.31 151.072 255.398 151.672C255.438 151.944 255.47 152.168 255.502 152.352C255.526 152.504 255.526 152.584 255.518 152.584C255.51 152.584 255.486 152.512 255.454 152.36C255.414 152.184 255.366 151.96 255.302 151.688C255.182 151.096 254.974 150.224 254.798 149.088C254.406 146.824 253.974 143.512 253.878 139.392C253.75 135.28 253.982 130.376 254.558 124.968C255.126 119.56 255.99 113.648 256.79 107.432C258.43 95.008 259.51 83.72 259.886 75.52C260.094 71.424 260.158 68.096 260.19 65.808C260.198 64.688 260.206 63.8081 260.214 63.1681C260.222 62.8881 260.23 62.6641 260.23 62.4801C260.238 62.3281 260.246 62.248 260.254 62.248Z" fill="#5F8862"/>
<path d="M312.78 159.712C312.772 159.848 309.716 159.808 305.956 159.624C302.196 159.44 299.148 159.184 299.156 159.048C299.164 158.912 302.22 158.952 305.98 159.136C309.748 159.32 312.788 159.584 312.78 159.712Z" fill="#5F8862"/>
<path d="M301.367 161.152C301.407 161.208 301.343 161.336 301.407 161.504C301.479 161.688 301.615 161.776 301.783 161.64C301.951 161.496 301.895 161.352 301.735 161.24C301.583 161.144 301.447 161.176 301.399 161.128C301.343 161.096 301.479 160.864 301.831 160.912C301.991 160.944 302.199 161.04 302.303 161.28C302.415 161.528 302.303 161.856 302.087 162.016C301.879 162.192 301.543 162.232 301.319 162.072C301.103 161.912 301.055 161.696 301.055 161.528C301.087 161.184 301.343 161.096 301.367 161.152Z" fill="#5F8862"/>
<g opacity="0.2">
<path d="M286.062 108.072C284.662 105.544 283.262 103.016 281.862 100.488C280.19 113.816 281.134 127.472 284.63 140.44C285.062 129.704 285.494 118.968 285.926 108.224" fill="#678069"/>
</g>
<path d="M264.766 94.1523C264.75 94.1363 265.014 94.1203 265.526 94.1043C266.11 94.0883 266.854 94.0723 267.766 94.0483C269.71 94.0083 272.51 93.9603 275.886 93.9443H276.118L276.102 94.1763C275.886 97.1283 275.63 100.56 275.366 104.208L275.358 104.344L275.238 104.408C275.078 104.488 274.91 104.584 274.742 104.672C272.854 105.664 271.03 106.624 269.302 107.528L269.166 107.6L269.046 107.504C267.214 106.008 265.518 104.616 263.998 103.376L263.918 103.312L263.926 103.208C264.166 100.496 264.358 98.2323 264.502 96.5683C264.574 95.8403 264.638 95.2483 264.686 94.7683C264.726 94.3443 264.75 94.1363 264.766 94.1523C264.782 94.1683 264.774 94.4003 264.766 94.8323C264.742 95.3203 264.718 95.9363 264.686 96.6803C264.59 98.3283 264.47 100.552 264.318 103.224L264.246 103.056C265.774 104.28 267.486 105.648 269.334 107.128L269.078 107.104C270.798 106.192 272.622 105.232 274.502 104.232C274.67 104.144 274.846 104.048 274.998 103.968L274.87 104.168C275.158 100.52 275.43 97.0963 275.67 94.1443L275.878 94.3763C272.59 94.3523 269.838 94.3123 267.886 94.2723C266.958 94.2483 266.198 94.2323 265.606 94.2163C265.078 94.1843 264.782 94.1683 264.766 94.1523Z" fill="#5F8862"/>
<path d="M241.158 152.192C241.15 152.328 240.15 152.144 239.51 151.176C238.854 150.216 239.062 149.224 239.19 149.264C239.334 149.272 239.358 150.104 239.91 150.904C240.438 151.72 241.198 152.056 241.158 152.192Z" fill="#5F8862"/>
<path d="M242.398 151.672C242.318 151.768 241.406 150.904 241.046 149.456C240.67 148.008 241.062 146.824 241.182 146.864C241.326 146.888 241.174 148.016 241.518 149.336C241.846 150.656 242.51 151.584 242.398 151.672Z" fill="#5F8862"/>
<path d="M278.447 146.288C278.567 146.272 278.687 148.168 277.703 150.232C276.743 152.304 275.199 153.424 275.143 153.32C275.039 153.216 276.359 151.984 277.263 150.024C278.191 148.072 278.295 146.272 278.447 146.288Z" fill="#5F8862"/>
<path d="M197.023 92.4399C197.023 92.4399 182.479 81.4239 180.439 80.6879C177.055 79.4639 176.247 79.7919 176.247 79.7919L184.223 88.3839C184.223 88.3839 175.791 91.2319 175.183 91.5599C174.503 91.9279 174.271 93.7519 176.327 93.7519C178.015 93.7519 186.103 93.9439 186.103 93.9439L192.775 98.8159L197.023 92.4399Z" fill="#FFBE9D"/>
<path d="M208.166 37.2881L198.166 47.2882C198.079 47.3756 197.975 47.4449 197.861 47.4922C197.747 47.5395 197.625 47.5639 197.502 47.5639C197.378 47.5639 197.256 47.5395 197.142 47.4922C197.028 47.4449 196.925 47.3756 196.838 47.2882L192.463 42.9132C192.375 42.8259 192.306 42.7224 192.259 42.6085C192.212 42.4945 192.188 42.3724 192.188 42.2491C192.187 42.1258 192.212 42.0036 192.259 41.8897C192.306 41.7758 192.375 41.6722 192.463 41.585C192.55 41.4978 192.653 41.4286 192.767 41.3814C192.881 41.3343 193.003 41.31 193.127 41.31C193.25 41.31 193.372 41.3343 193.486 41.3814C193.6 41.4286 193.703 41.4978 193.791 41.585L197.502 45.2967L206.839 35.9616C207.015 35.7855 207.254 35.6865 207.503 35.6865C207.752 35.6865 207.991 35.7855 208.167 35.9616C208.343 36.1377 208.442 36.3766 208.442 36.6256C208.442 36.8747 208.343 37.1136 208.167 37.2897L208.166 37.2881Z" fill="white"/>
</svg>
