<svg width="25" height="24" viewBox="0 0 25 24" fill="none" xmlns="http://www.w3.org/2000/svg">
<path d="M3.5 6.11538C3.5 5.2728 4.23645 4.5 5.25862 4.5H19.7414C20.7635 4.5 21.5 5.2728 21.5 6.11538V17.8846C21.5 18.7272 20.7635 19.5 19.7414 19.5H5.25862C4.23645 19.5 3.5 18.7272 3.5 17.8846V6.11538Z" stroke="#319C4A" stroke-width="2" stroke-linecap="round" stroke-linejoin="round"/>
<path d="M13.0923 13.2145H8.51989V11.9148H13.0582C13.4247 11.9148 13.7259 11.8565 13.9616 11.7401C14.2003 11.6236 14.3764 11.4616 14.4901 11.2543C14.6065 11.0469 14.6634 10.804 14.6605 10.5256C14.6634 10.2528 14.6065 10.0085 14.4901 9.79261C14.3764 9.57386 14.2031 9.40199 13.9702 9.27699C13.7401 9.14915 13.4474 9.08523 13.0923 9.08523H11.3793V16.5H9.80256V7.77273H13.0923C13.7685 7.77273 14.3409 7.89489 14.8097 8.1392C15.2784 8.38068 15.6335 8.70881 15.875 9.12358C16.1193 9.53551 16.2415 9.99858 16.2415 10.5128C16.2415 11.0469 16.1179 11.517 15.8707 11.9233C15.6236 12.3267 15.2656 12.6435 14.7969 12.8736C14.3281 13.1009 13.7599 13.2145 13.0923 13.2145ZM13.2926 13.8622V15.1619H8.51989V13.8622H13.2926Z" fill="#319C4A"/>
</svg>
