<svg width="60" height="61" viewBox="0 0 60 61" fill="none" xmlns="http://www.w3.org/2000/svg">
<path fill-rule="evenodd" clip-rule="evenodd" d="M20 3.625C21.0355 3.625 21.875 4.46447 21.875 5.5V13C21.875 14.0355 21.0355 14.875 20 14.875C18.9645 14.875 18.125 14.0355 18.125 13V5.5C18.125 4.46447 18.9645 3.625 20 3.625Z" fill="#2E7EB1"/>
<path fill-rule="evenodd" clip-rule="evenodd" d="M40 3.625C41.0355 3.625 41.875 4.46447 41.875 5.5V13C41.875 14.0355 41.0355 14.875 40 14.875C38.9645 14.875 38.125 14.0355 38.125 13V5.5C38.125 4.46447 38.9645 3.625 40 3.625Z" fill="#2E7EB1"/>
<path opacity="0.4" d="M53.75 21.425V43.325C53.75 43.725 53.725 44.125 53.7 44.5H6.3C6.275 44.125 6.25 43.725 6.25 43.325V21.425C6.25 14.7 11.7 9.25 18.425 9.25H41.575C48.3 9.25 53.75 14.7 53.75 21.425Z" fill="#2E7EB1"/>
<path d="M53.7 44.5C53.1 50.675 47.9 55.5 41.575 55.5H18.425C12.1 55.5 6.9 50.675 6.3 44.5H53.7Z" fill="#2E7EB1"/>
<path d="M18.0903 38.4988V24.8488C17.9643 24.9188 17.7893 24.9958 17.5653 25.0798C17.3553 25.1498 17.1243 25.2338 16.8723 25.3318C16.6203 25.4158 16.3823 25.4998 16.1583 25.5838C15.9343 25.6538 15.7593 25.7168 15.6333 25.7728V23.3788C15.8013 23.2948 16.0253 23.1828 16.3053 23.0428C16.5993 22.9028 16.9073 22.7488 17.2293 22.5808C17.5513 22.4128 17.8523 22.2308 18.1323 22.0348C18.4263 21.8388 18.6503 21.6568 18.8043 21.4888H21.3243V38.4988H18.0903Z" fill="#2E7EB1"/>
<path d="M29.0239 38.7298C27.9459 38.7298 27.0639 38.4918 26.3779 38.0158C25.7059 37.5258 25.2089 36.8608 24.8869 36.0208C24.5789 35.1808 24.4249 34.2218 24.4249 33.1438V27.0958C24.4249 25.9898 24.5509 24.9958 24.8029 24.1138C25.0689 23.2318 25.5309 22.5388 26.1889 22.0348C26.8469 21.5308 27.7849 21.2788 29.0029 21.2788C30.0529 21.2788 30.8859 21.4468 31.5019 21.7828C32.1319 22.1048 32.5869 22.5878 32.8669 23.2318C33.1469 23.8758 33.2869 24.6668 33.2869 25.6048C33.2869 25.6468 33.2869 25.6958 33.2869 25.7518C33.3009 25.7938 33.3079 25.8358 33.3079 25.8778H30.2419C30.2419 25.1638 30.1719 24.6318 30.0319 24.2818C29.8919 23.9318 29.5559 23.7568 29.0239 23.7568C28.6879 23.7568 28.4219 23.8618 28.2259 24.0718C28.0439 24.2818 27.9109 24.6388 27.8269 25.1428C27.7569 25.6328 27.7219 26.3118 27.7219 27.1798V28.9228C27.9039 28.6148 28.1839 28.3768 28.5619 28.2088C28.9539 28.0408 29.4019 27.9498 29.9059 27.9358C30.8019 27.9078 31.5159 28.1108 32.0479 28.5448C32.5939 28.9648 32.9859 29.5528 33.2239 30.3088C33.4619 31.0508 33.5809 31.8908 33.5809 32.8288C33.5809 33.9768 33.4409 34.9988 33.1609 35.8948C32.8809 36.7908 32.4049 37.4908 31.7329 37.9948C31.0749 38.4848 30.1719 38.7298 29.0239 38.7298ZM29.0659 36.3148C29.4159 36.3148 29.6749 36.1958 29.8429 35.9578C30.0249 35.7198 30.1439 35.3838 30.1999 34.9498C30.2699 34.5158 30.3049 33.9908 30.3049 33.3748C30.3049 32.7868 30.2839 32.2758 30.2419 31.8418C30.2139 31.3938 30.1089 31.0438 29.9269 30.7918C29.7449 30.5398 29.4439 30.4138 29.0239 30.4138C28.8279 30.4138 28.6389 30.4558 28.4569 30.5398C28.2889 30.6098 28.1419 30.7078 28.0159 30.8338C27.8899 30.9458 27.7919 31.0648 27.7219 31.1908V33.8998C27.7219 34.3198 27.7569 34.7188 27.8269 35.0968C27.9109 35.4608 28.0509 35.7548 28.2469 35.9788C28.4429 36.2028 28.7159 36.3148 29.0659 36.3148Z" fill="#2E7EB1"/>
<path d="M40.1802 38.7928C39.1582 38.7928 38.3112 38.5828 37.6392 38.1628C36.9672 37.7428 36.4632 37.1688 36.1272 36.4408C35.7912 35.6988 35.6232 34.8448 35.6232 33.8788V26.2558C35.6232 25.2618 35.7842 24.3938 36.1062 23.6518C36.4282 22.8958 36.9252 22.3078 37.5972 21.8878C38.2692 21.4678 39.1302 21.2578 40.1802 21.2578C41.2162 21.2578 42.0632 21.4678 42.7212 21.8878C43.3932 22.3078 43.8902 22.8958 44.2122 23.6518C44.5342 24.3938 44.6952 25.2618 44.6952 26.2558V33.8788C44.6952 34.8448 44.5272 35.6988 44.1912 36.4408C43.8552 37.1688 43.3512 37.7428 42.6792 38.1628C42.0072 38.5828 41.1742 38.7928 40.1802 38.7928ZM40.1802 35.9368C40.5582 35.9368 40.8312 35.8178 40.9992 35.5798C41.1672 35.3418 41.2792 35.0618 41.3352 34.7398C41.3912 34.4038 41.4192 34.0958 41.4192 33.8158V26.3188C41.4192 26.0108 41.3912 25.6888 41.3352 25.3528C41.2932 25.0168 41.1882 24.7298 41.0202 24.4918C40.8522 24.2398 40.5722 24.1138 40.1802 24.1138C39.7882 24.1138 39.5012 24.2398 39.3192 24.4918C39.1512 24.7298 39.0392 25.0168 38.9832 25.3528C38.9412 25.6888 38.9202 26.0108 38.9202 26.3188V33.8158C38.9202 34.0958 38.9482 34.4038 39.0042 34.7398C39.0602 35.0618 39.1792 35.3418 39.3612 35.5798C39.5432 35.8178 39.8162 35.9368 40.1802 35.9368Z" fill="#2E7EB1"/>
</svg>
