<svg width="64" height="64" viewBox="0 0 64 64" fill="none" xmlns="http://www.w3.org/2000/svg">
<path d="M44.6666 9.49202V5.33203C44.6666 4.2387 43.76 3.33203 42.6666 3.33203C41.5733 3.33203 40.6666 4.2387 40.6666 5.33203V9.33203H23.3333V5.33203C23.3333 4.2387 22.4266 3.33203 21.3333 3.33203C20.24 3.33203 19.3333 4.2387 19.3333 5.33203V9.49202C12.1333 10.1587 8.63996 14.452 8.10663 20.8254C8.05329 21.5987 8.69329 22.2387 9.43996 22.2387H54.56C55.3333 22.2387 55.9733 21.572 55.8933 20.8254C55.36 14.452 51.8666 10.1587 44.6666 9.49202Z" fill="#2E7EB1"/>
<path opacity="0.4" d="M56 28.9082V33.5482C56 35.1748 54.56 36.4282 52.96 36.1615C52.2133 36.0549 51.44 35.9749 50.6667 35.9749C42.5867 35.9749 36 42.5615 36 50.6415C36 51.8682 36.48 53.5749 36.9867 55.1216C37.5733 56.8549 36.2933 58.6415 34.4533 58.6415H21.3333C12 58.6415 8 53.3082 8 45.3082V28.8815C8 27.4148 9.2 26.2148 10.6667 26.2148H53.3333C54.8 26.2415 56 27.4415 56 28.9082Z" fill="#2E7EB1"/>
<path d="M50.6667 40C44.7733 40 40 44.7733 40 50.6667C40 52.6667 40.56 54.56 41.5467 56.16C43.3867 59.2533 46.7733 61.3333 50.6667 61.3333C54.56 61.3333 57.9467 59.2533 59.7867 56.16C60.7733 54.56 61.3333 52.6667 61.3333 50.6667C61.3333 44.7733 56.56 40 50.6667 40ZM56.1867 49.52L50.5067 54.7734C50.1333 55.12 49.6267 55.3066 49.1467 55.3066C48.64 55.3066 48.1333 55.12 47.7333 54.72L45.0933 52.08C44.32 51.3067 44.32 50.0267 45.0933 49.2533C45.8667 48.48 47.1467 48.48 47.92 49.2533L49.2 50.5334L53.4667 46.5867C54.2667 45.84 55.5467 45.8934 56.2933 46.6934C57.04 47.4934 56.9867 48.7467 56.1867 49.52Z" fill="#2E7EB1"/>
<path d="M22.6667 39.9998C21.9733 39.9998 21.28 39.7064 20.7733 39.2264C20.2933 38.7197 20 38.0264 20 37.3331C20 36.6398 20.2933 35.9465 20.7733 35.4398C21.3867 34.8265 22.32 34.5331 23.2 34.7197C23.36 34.7464 23.52 34.7997 23.68 34.8797C23.84 34.9331 24 35.0131 24.16 35.1198C24.2933 35.2265 24.4267 35.3331 24.56 35.4398C25.04 35.9465 25.3333 36.6398 25.3333 37.3331C25.3333 38.0264 25.04 38.7197 24.56 39.2264C24.4267 39.3331 24.2933 39.4397 24.16 39.5464C24 39.6531 23.84 39.7331 23.68 39.7865C23.52 39.8665 23.36 39.9198 23.2 39.9465C23.0133 39.9731 22.8267 39.9998 22.6667 39.9998Z" fill="#2E7EB1"/>
<path d="M31.9999 39.9992C31.3066 39.9992 30.6133 39.7058 30.1066 39.2258C29.6266 38.7192 29.3333 38.0259 29.3333 37.3325C29.3333 36.6392 29.6266 35.9459 30.1066 35.4392C31.1199 34.4526 32.9066 34.4526 33.8933 35.4392C34.3733 35.9459 34.6666 36.6392 34.6666 37.3325C34.6666 38.0259 34.3733 38.7192 33.8933 39.2258C33.3866 39.7058 32.6933 39.9992 31.9999 39.9992Z" fill="#2E7EB1"/>
<path d="M22.6667 49.3343C21.9733 49.3343 21.28 49.0409 20.7733 48.5609C20.2933 48.0543 20 47.361 20 46.6676C20 45.9743 20.2933 45.281 20.7733 44.7743C21.04 44.5343 21.3067 44.3476 21.6533 44.2143C22.64 43.7876 23.8133 44.0277 24.56 44.7743C25.04 45.281 25.3333 45.9743 25.3333 46.6676C25.3333 47.361 25.04 48.0543 24.56 48.5609C24.0533 49.0409 23.36 49.3343 22.6667 49.3343Z" fill="#2E7EB1"/>
</svg>
