<svg width="40" height="40" viewBox="0 0 40 40" fill="none" xmlns="http://www.w3.org/2000/svg">
<path opacity="0.4" d="M34.1667 16.984H29.35C25.4 16.984 22.1833 13.7673 22.1833 9.81732V5.00065C22.1833 4.08398 21.4333 3.33398 20.5167 3.33398H13.45C8.31666 3.33398 4.16666 6.66732 4.16666 12.6173V27.384C4.16666 33.334 8.31666 36.6673 13.45 36.6673H26.55C31.6833 36.6673 35.8333 33.334 35.8333 27.384V18.6507C35.8333 17.734 35.0833 16.984 34.1667 16.984Z" fill="#2E7EB1"/>
<path d="M26.3333 3.68414C25.65 3.0008 24.4667 3.46747 24.4667 4.41747V10.2341C24.4667 12.6675 26.5333 14.6841 29.05 14.6841C30.6333 14.7008 32.8333 14.7008 34.7167 14.7008C35.6667 14.7008 36.1667 13.5841 35.5 12.9175C33.1 10.5008 28.8 6.1508 26.3333 3.68414Z" fill="#2E7EB1"/>
<path d="M22.5 22.916H12.5C11.8167 22.916 11.25 22.3493 11.25 21.666C11.25 20.9827 11.8167 20.416 12.5 20.416H22.5C23.1833 20.416 23.75 20.9827 23.75 21.666C23.75 22.3493 23.1833 22.916 22.5 22.916Z" fill="#2E7EB1"/>
<path d="M19.1667 29.584H12.5C11.8167 29.584 11.25 29.0173 11.25 28.334C11.25 27.6507 11.8167 27.084 12.5 27.084H19.1667C19.85 27.084 20.4167 27.6507 20.4167 28.334C20.4167 29.0173 19.85 29.584 19.1667 29.584Z" fill="#2E7EB1"/>
</svg>
