<svg width="40" height="40" viewBox="0 0 40 40" fill="none" xmlns="http://www.w3.org/2000/svg">
<path opacity="0.4" d="M34.1667 16.982H29.35C25.4 16.982 22.1833 13.7654 22.1833 9.81536V4.9987C22.1833 4.08203 21.4333 3.33203 20.5167 3.33203H13.45C8.31667 3.33203 4.16667 6.66536 4.16667 12.6154V27.382C4.16667 33.332 8.31667 36.6654 13.45 36.6654H26.55C31.6833 36.6654 35.8333 33.332 35.8333 27.382V18.6487C35.8333 17.732 35.0833 16.982 34.1667 16.982Z" fill="#2E7EB1"/>
<path d="M26.3333 3.68414C25.65 3.0008 24.4667 3.46747 24.4667 4.41747V10.2341C24.4667 12.6675 26.5333 14.6841 29.05 14.6841C30.6333 14.7008 32.8333 14.7008 34.7167 14.7008C35.6667 14.7008 36.1667 13.5841 35.5 12.9175C33.1 10.5008 28.8 6.1508 26.3333 3.68414Z" fill="#2E7EB1"/>
<path d="M11 32.25V24H12.3906V24.9922H12.4727C12.5456 24.8464 12.6484 24.6914 12.7813 24.5273C12.9141 24.3607 13.0938 24.2188 13.3203 24.1016C13.5469 23.9818 13.8359 23.9219 14.1875 23.9219C14.651 23.9219 15.069 24.0404 15.4414 24.2773C15.8164 24.5117 16.1133 24.8594 16.332 25.3203C16.5534 25.7786 16.6641 26.3411 16.6641 27.0078C16.6641 27.6667 16.556 28.2266 16.3398 28.6875C16.1237 29.1484 15.8294 29.5 15.457 29.7422C15.0846 29.9844 14.6628 30.1055 14.1914 30.1055C13.8477 30.1055 13.5625 30.0482 13.3359 29.9336C13.1094 29.819 12.9271 29.681 12.7891 29.5195C12.6536 29.3555 12.5482 29.2005 12.4727 29.0547H12.4141V32.25H11ZM12.3867 27C12.3867 27.388 12.4414 27.7279 12.5508 28.0195C12.6628 28.3112 12.8229 28.5391 13.0313 28.7031C13.2422 28.8646 13.4974 28.9453 13.7969 28.9453C14.1094 28.9453 14.3711 28.862 14.582 28.6953C14.793 28.526 14.9518 28.2956 15.0586 28.0039C15.168 27.7096 15.2227 27.375 15.2227 27C15.2227 26.6276 15.1693 26.2969 15.0625 26.0078C14.9557 25.7188 14.7969 25.4922 14.5859 25.3281C14.375 25.1641 14.112 25.082 13.7969 25.082C13.4948 25.082 13.2383 25.1615 13.0273 25.3203C12.8164 25.4792 12.6562 25.7018 12.5469 25.9883C12.4401 26.2747 12.3867 26.612 12.3867 27Z" fill="#2E7EB1"/>
<path d="M20.1016 30.1055C19.6302 30.1055 19.2083 29.9844 18.8359 29.7422C18.4635 29.5 18.1693 29.1484 17.9531 28.6875C17.737 28.2266 17.6289 27.6667 17.6289 27.0078C17.6289 26.3411 17.7383 25.7786 17.957 25.3203C18.1784 24.8594 18.4766 24.5117 18.8516 24.2773C19.2266 24.0404 19.6445 23.9219 20.1055 23.9219C20.457 23.9219 20.7461 23.9818 20.9727 24.1016C21.1992 24.2188 21.3789 24.3607 21.5117 24.5273C21.6445 24.6914 21.7474 24.8464 21.8203 24.9922H21.8789V22H23.2969V30H21.9062V29.0547H21.8203C21.7474 29.2005 21.6419 29.3555 21.5039 29.5195C21.3659 29.681 21.1836 29.819 20.957 29.9336C20.7305 30.0482 20.4453 30.1055 20.1016 30.1055ZM20.4961 28.9453C20.7956 28.9453 21.0508 28.8646 21.2617 28.7031C21.4727 28.5391 21.6328 28.3112 21.7422 28.0195C21.8516 27.7279 21.9062 27.388 21.9062 27C21.9062 26.612 21.8516 26.2747 21.7422 25.9883C21.6354 25.7018 21.4766 25.4792 21.2656 25.3203C21.0573 25.1615 20.8008 25.082 20.4961 25.082C20.181 25.082 19.918 25.1641 19.707 25.3281C19.4961 25.4922 19.3372 25.7188 19.2305 26.0078C19.1237 26.2969 19.0703 26.6276 19.0703 27C19.0703 27.375 19.1237 27.7096 19.2305 28.0039C19.3398 28.2956 19.5 28.526 19.7109 28.6953C19.9245 28.862 20.1862 28.9453 20.4961 28.9453Z" fill="#2E7EB1"/>
<path d="M27.8428 24V25.0938H24.2959V24H27.8428ZM25.1826 30V23.4336C25.1826 23.0299 25.266 22.694 25.4326 22.4258C25.6019 22.1576 25.8285 21.957 26.1123 21.8242C26.3962 21.6914 26.7113 21.625 27.0576 21.625C27.3024 21.625 27.5199 21.6445 27.71 21.6836C27.9001 21.7227 28.0407 21.7578 28.1318 21.7891L27.8506 22.8828C27.7907 22.8646 27.7152 22.8464 27.624 22.8281C27.5329 22.8073 27.4313 22.7969 27.3193 22.7969C27.0563 22.7969 26.8701 22.8607 26.7607 22.9883C26.654 23.1133 26.6006 23.293 26.6006 23.5273V30H25.1826Z" fill="#2E7EB1"/>
</svg>
