<svg width="60" height="60" viewBox="0 0 60 60" fill="none" xmlns="http://www.w3.org/2000/svg">
<path opacity="0.4" d="M40.475 5H19.525C10.425 5 5 10.425 5 19.525V40.45C5 49.575 10.425 55 19.525 55H40.45C49.55 55 54.975 49.575 54.975 40.475V19.525C55 10.425 49.575 5 40.475 5Z" fill="#2E7EB1"/>
<path d="M18.7233 43.5C16.6295 43.5 15.0092 42.9293 13.8623 41.7878C12.7155 40.6354 12.1157 39 12.0631 36.8817C12.021 34.6537 12 32.3543 12 29.9835C12 27.6018 12.021 25.3024 12.0631 23.0854C12.1157 20.9561 12.7155 19.3262 13.8623 18.1957C15.0092 17.0652 16.6295 16.5 18.7233 16.5C20.796 16.5 22.4005 17.0652 23.5369 18.1957C24.6837 19.3262 25.2887 20.9561 25.3518 23.0854C25.436 25.3244 25.4781 27.6348 25.4781 30.0165C25.4781 32.3872 25.436 34.6756 25.3518 36.8817C25.2887 39 24.6837 40.6354 23.5369 41.7878C22.4005 42.9293 20.796 43.5 18.7233 43.5ZM18.7233 39.4829C19.9227 39.4829 20.554 38.9232 20.6171 37.8037C20.7329 35.2793 20.7908 32.6726 20.7908 29.9835C20.7908 27.2835 20.7329 24.6768 20.6171 22.1634C20.5856 21.0659 19.9543 20.5171 18.7233 20.5171C17.4712 20.5171 16.8294 21.0659 16.7978 22.1634C16.7031 24.6768 16.6558 27.2835 16.6558 29.9835C16.6558 32.6726 16.7031 35.2793 16.7978 37.8037C16.8294 38.9232 17.4712 39.4829 18.7233 39.4829Z" fill="#2E7EB1"/>
<path d="M31.8963 28.9134C30.6022 28.9134 29.5974 28.5567 28.8819 27.8433C28.1664 27.1189 27.7824 26.0927 27.7298 24.7646C27.6667 23.4915 27.6667 22.1524 27.7298 20.7476C27.7824 19.4415 28.1612 18.4372 28.8661 17.7348C29.5816 17.0213 30.5917 16.6646 31.8963 16.6646C33.1905 16.6646 34.1953 17.0213 34.9107 17.7348C35.6262 18.4372 36.0208 19.4415 36.0944 20.7476C36.1575 22.1524 36.1575 23.4915 36.0944 24.7646C36.0208 26.0817 35.6262 27.1024 34.9107 27.8268C34.1953 28.5512 33.1905 28.9134 31.8963 28.9134ZM30.6696 43.1707C29.5856 43.1707 28.912 41.9929 29.4617 41.0586L43.3073 17.526C43.5613 17.0943 44.0248 16.8293 44.5257 16.8293C45.6196 16.8293 46.2989 18.0184 45.7434 18.9607L31.8768 42.481C31.6248 42.9084 31.1657 43.1707 30.6696 43.1707ZM31.8963 26.0817C32.3487 26.0817 32.6118 25.8402 32.6854 25.3573C32.7275 25.05 32.7538 24.5616 32.7643 23.8921C32.7854 23.2116 32.7854 22.5201 32.7643 21.8177C32.7538 21.1043 32.7275 20.55 32.6854 20.1549C32.6749 19.9683 32.6013 19.8146 32.4645 19.6939C32.3277 19.5622 32.1383 19.4963 31.8963 19.4963C31.6648 19.4963 31.4807 19.5622 31.3439 19.6939C31.2072 19.8146 31.1283 19.9683 31.1072 20.1549C31.0651 20.561 31.0336 21.1152 31.0125 21.8177C31.002 22.5201 31.002 23.2061 31.0125 23.8756C31.0336 24.5451 31.0651 25.039 31.1072 25.3573C31.1388 25.5329 31.2177 25.6976 31.3439 25.8512C31.4807 26.0049 31.6648 26.0817 31.8963 26.0817ZM42.5652 43.3683C41.271 43.3683 40.2662 43.0116 39.5507 42.2982C38.8353 41.5738 38.4512 40.5476 38.3986 39.2195C38.3355 37.9463 38.3355 36.6073 38.3986 35.2024C38.4512 33.8963 38.83 32.8921 39.535 32.1896C40.2504 31.4762 41.2605 31.1195 42.5652 31.1195C43.8593 31.1195 44.8641 31.4762 45.5796 32.1896C46.2951 32.8921 46.6896 33.8963 46.7633 35.2024C46.8264 36.6073 46.8264 37.9463 46.7633 39.2195C46.6896 40.5366 46.2951 41.5573 45.5796 42.2817C44.8641 43.0061 43.8593 43.3683 42.5652 43.3683ZM42.5652 40.5366C43.0176 40.5366 43.2806 40.2951 43.3543 39.8122C43.3964 39.5049 43.4227 39.0165 43.4332 38.347C43.4542 37.6665 43.4542 36.975 43.4332 36.2726C43.4227 35.5591 43.3964 35.0049 43.3543 34.6098C43.3438 34.4232 43.2701 34.2695 43.1333 34.1488C42.9965 34.0171 42.8072 33.9512 42.5652 33.9512C42.3337 33.9512 42.1496 34.0171 42.0128 34.1488C41.876 34.2695 41.7971 34.4232 41.7761 34.6098C41.734 35.0159 41.7024 35.5701 41.6814 36.2726C41.6708 36.975 41.6708 37.661 41.6814 38.3305C41.7024 39 41.734 39.4939 41.7761 39.8122C41.8076 39.9878 41.8865 40.1524 42.0128 40.3061C42.1496 40.4598 42.3337 40.5366 42.5652 40.5366Z" fill="#2E7EB1"/>
</svg>
