<svg width="60" height="61" viewBox="0 0 60 61" fill="none" xmlns="http://www.w3.org/2000/svg">
<path opacity="0.4" d="M40.475 5.5H19.525C10.425 5.5 5 10.925 5 20.025V40.95C5 50.075 10.425 55.5 19.525 55.5H40.45C49.55 55.5 54.975 50.075 54.975 40.975V20.025C55 10.925 49.575 5.5 40.475 5.5Z" fill="#2E7EB1"/>
<path d="M28.578 31.992V35.948H34.052C34.3893 35.948 34.6193 36.0553 34.742 36.27C34.8953 36.4847 34.972 36.8373 34.972 37.328V37.65C34.972 38.1407 34.8953 38.4933 34.742 38.708C34.6193 38.9227 34.3893 39.03 34.052 39.03H28.578V44.78C28.578 45.4547 27.9953 45.792 26.83 45.792H26.186C25.0207 45.792 24.438 45.4547 24.438 44.78V39.03H22.92C22.6133 39.03 22.3833 38.9227 22.23 38.708C22.0767 38.4933 22 38.1407 22 37.65V37.328C22 36.8373 22.0767 36.4847 22.23 36.27C22.3833 36.0553 22.6133 35.948 22.92 35.948H24.438V31.992H23.012C22.6747 31.992 22.414 31.8847 22.23 31.67C22.0767 31.4247 22 31.0567 22 30.566V29.968C22 28.9867 22.3373 28.496 23.012 28.496H24.438V14.88C24.438 14.3893 24.53 14.0367 24.714 13.822C24.9287 13.6073 25.2507 13.5 25.68 13.5H33.27C35.5087 13.5 37.502 14.144 39.25 15.432C40.998 16.72 41.872 19.0813 41.872 22.516C41.872 25.0613 41.366 27.0393 40.354 28.45C39.3727 29.8607 38.2533 30.8113 36.996 31.302C35.7387 31.762 34.6193 31.992 33.638 31.992H28.578ZM28.578 28.496H33.408C34.4813 28.496 35.4473 28.0513 36.306 27.162C37.1953 26.2727 37.64 24.724 37.64 22.516C37.64 20.4613 37.18 19.0353 36.26 18.238C35.3707 17.41 34.3127 16.996 33.086 16.996H28.578V28.496Z" fill="#2E7EB1"/>
</svg>
