<svg width="25" height="24" viewBox="0 0 25 24" fill="none" xmlns="http://www.w3.org/2000/svg">
<path d="M21.5 5L17.5 9" stroke="#319C4A" stroke-width="2" stroke-linecap="round" stroke-linejoin="round"/>
<path d="M17.5 5L21.5 9" stroke="#319C4A" stroke-width="2" stroke-linecap="round" stroke-linejoin="round"/>
<path d="M22.4995 16.7278V19.287C22.5004 19.5245 22.4517 19.7597 22.3563 19.9774C22.2609 20.1951 22.1211 20.3905 21.9457 20.5511C21.7702 20.7117 21.5632 20.834 21.3376 20.9101C21.1121 20.9862 20.8732 21.0145 20.6361 20.9931C18.0059 20.7078 15.4794 19.8109 13.2596 18.3742C11.1943 17.0644 9.44337 15.3169 8.13104 13.2558C6.68648 11.0303 5.78751 8.49657 5.50694 5.85976C5.48558 5.62386 5.51367 5.3861 5.58942 5.16163C5.66518 4.93716 5.78693 4.73089 5.94694 4.55596C6.10694 4.38102 6.30169 4.24125 6.51879 4.14555C6.73589 4.04985 6.97057 4.00031 7.2079 4.00008H9.77217C10.187 3.99601 10.5891 4.14261 10.9037 4.41257C11.2182 4.68252 11.4236 5.05741 11.4817 5.46735C11.7602 6.31446 11.8194 7.15252 12.08 7.86445C12.195 8.16978 12.2199 8.50162 12.1517 8.82063C12.0836 9.13965 11.9252 9.43248 11.6954 9.66441L10.6098 10.7478C11.8266 12.8835 13.5984 14.6518 15.7384 15.8662L16.8239 14.7828C17.0563 14.5534 17.3497 14.3954 17.6694 14.3273C17.989 14.2593 18.3215 14.2841 18.6274 14.3989C18.72 14.4024 19.6318 14.6624 21.0293 14.9961C21.4445 15.0545 21.8237 15.2632 22.0948 15.5825C22.3658 15.9018 22.5099 16.3094 22.4995 16.7278Z" stroke="#319C4A" stroke-width="2" stroke-linecap="round" stroke-linejoin="round"/>
</svg>
