<svg width="48" height="48" viewBox="0 0 48 48" fill="none" xmlns="http://www.w3.org/2000/svg">
<rect width="48" height="48" rx="12" fill="#319C4A"/>
<path d="M23.421 12.0035C21.5608 12.0267 17.5616 12.3433 15.3247 14.4683C13.6608 16.1755 13.0799 18.6996 13.0118 21.8207C12.9553 24.9306 12.8872 30.7708 18.3236 32.361V34.7831C18.3236 34.7831 18.2896 35.7522 18.9082 35.9509C19.6702 36.2007 20.1041 35.4551 20.8285 34.654L22.1794 33.0721C25.899 33.3924 28.748 32.6543 29.0761 32.5448C29.8309 32.295 34.0822 31.7324 34.7769 25.8915C35.4897 19.8592 34.4299 16.0585 32.5169 14.3393H32.5053C31.928 13.7887 29.6078 12.038 24.4242 12.0185C24.4242 12.0185 24.0396 11.9915 23.421 12.0027V12.0035ZM23.4847 13.6995C24.0128 13.6957 24.3337 13.719 24.3337 13.719C28.7212 13.731 30.8153 15.0984 31.3094 15.5589C32.9203 16.9886 33.7505 20.415 33.1427 25.4512C32.5654 30.3343 29.1174 30.6433 28.4792 30.8541C28.2076 30.9441 25.6984 31.5847 22.5372 31.3739C22.5372 31.3739 20.1831 34.3157 19.4471 35.0733C19.3305 35.2061 19.1943 35.2451 19.1074 35.2256C18.9828 35.1941 18.9451 35.0343 18.9523 34.8153L18.9748 30.7956C14.3642 29.4754 14.6358 24.494 14.6851 21.892C14.7416 19.2899 15.2132 17.1611 16.617 15.7195C18.5069 13.95 21.9027 13.7115 23.4833 13.6995H23.4847ZM23.8324 16.3008C23.7945 16.3004 23.7568 16.3078 23.7216 16.3225C23.6865 16.3372 23.6545 16.359 23.6275 16.3867C23.6005 16.4143 23.579 16.4471 23.5643 16.4834C23.5496 16.5196 23.542 16.5585 23.5419 16.5978C23.5419 16.7658 23.6738 16.8986 23.8324 16.8986C24.5506 16.8845 25.2644 17.0177 25.9327 17.2906C26.6009 17.5635 27.2104 17.9708 27.7259 18.4888C28.7784 19.5472 29.2913 20.9693 29.3108 22.8288C29.3108 22.9931 29.439 23.1296 29.6013 23.1296V23.1176C29.6778 23.1178 29.7512 23.0867 29.8056 23.0311C29.86 22.9754 29.891 22.8998 29.8918 22.8206C29.9269 21.9453 29.7899 21.0718 29.4889 20.2531C29.1879 19.4344 28.7293 18.6877 28.141 18.0582C26.9943 16.8978 25.5412 16.3 23.8324 16.3V16.3008ZM20.0143 16.9886C19.8092 16.9576 19.6001 17.0002 19.4217 17.1094H19.4065C18.9924 17.3608 18.6193 17.6785 18.3011 18.0507C18.0367 18.3673 17.8933 18.6876 17.8557 18.9959C17.8332 19.1796 17.8484 19.3634 17.9013 19.5389L17.9201 19.5509C18.2178 20.457 18.6068 21.3286 19.082 22.1492C19.6941 23.3021 20.4474 24.3683 21.3232 25.3214L21.3493 25.3604L21.3906 25.3919L21.4166 25.4234L21.4471 25.4504C22.3708 26.36 23.4029 27.1436 24.5184 27.7824C25.7933 28.501 26.5669 28.8408 27.0312 28.9818V28.9893C27.1674 29.0321 27.2913 29.0516 27.4159 29.0516C27.8116 29.0216 28.1862 28.8552 28.48 28.579C28.8378 28.2495 29.1412 27.8616 29.3782 27.4306V27.4231C29.6006 26.9896 29.5252 26.5793 29.2043 26.3018C28.5617 25.7201 27.8667 25.2034 27.129 24.7588C26.635 24.4813 26.133 24.6493 25.9295 24.9306L25.4956 25.4969C25.2732 25.7782 24.869 25.7392 24.869 25.7392L24.8574 25.7467C21.8433 24.9493 21.0393 21.7892 21.0393 21.7892C21.0393 21.7892 21.0016 21.3594 21.2805 21.1404L21.8237 20.6873C22.0838 20.4683 22.2649 19.9492 21.986 19.4369C21.5596 18.6719 21.0618 17.9521 20.4996 17.2879C20.3767 17.1313 20.2043 17.0248 20.0128 16.9871L20.0143 16.9886ZM24.3337 17.8797C23.949 17.8797 23.949 18.4813 24.3373 18.4813C24.8156 18.4893 25.2877 18.5949 25.7265 18.7919C26.1654 18.989 26.5625 19.2737 26.8951 19.6297C27.1984 19.9762 27.4316 20.3823 27.5806 20.8239C27.7297 21.2654 27.7917 21.7335 27.7628 22.2003C27.7642 22.2792 27.7953 22.3546 27.8496 22.4101C27.9039 22.4656 27.977 22.4969 28.0533 22.4973L28.0649 22.513C28.1418 22.5125 28.2153 22.4806 28.2697 22.4243C28.324 22.368 28.3548 22.2918 28.3554 22.2123C28.3815 21.0204 28.0236 20.0205 27.3217 19.2194C26.6162 18.4183 25.6318 17.969 24.375 17.8797H24.3337ZM24.8096 19.4969C24.4134 19.4849 24.3982 20.0985 24.7908 20.1105C25.7455 20.1615 26.2091 20.6611 26.2699 21.6887C26.2712 21.7667 26.302 21.8411 26.3556 21.8959C26.4092 21.9507 26.4814 21.9816 26.5568 21.982H26.5684C26.6071 21.9803 26.6451 21.9706 26.6802 21.9535C26.7153 21.9364 26.7467 21.9122 26.7727 21.8824C26.7986 21.8526 26.8186 21.8177 26.8314 21.7798C26.8442 21.7419 26.8496 21.7018 26.8472 21.6617C26.7792 20.322 26.0736 19.5674 24.8212 19.4977H24.8096V19.4969Z" fill="white"/>
</svg>
