<svg width="48" height="48" viewBox="0 0 48 48" fill="none" xmlns="http://www.w3.org/2000/svg">
<rect width="48" height="48" rx="12" fill="#319C4A"/>
<path d="M35.4497 17.5158C35.6174 16.9298 35.4497 16.5 34.6568 16.5H32.0303C31.362 16.5 31.0566 16.8718 30.8889 17.2801C30.8889 17.2801 29.5535 20.7069 27.6611 22.9288C27.0503 23.5753 26.7712 23.7794 26.4382 23.7794C26.2718 23.7794 26.0298 23.5753 26.0298 22.9892V17.5158C26.0298 16.8126 25.837 16.5 25.2801 16.5H21.1528C20.736 16.5 20.4845 16.8252 20.4845 17.1352C20.4845 17.8006 21.4307 17.9544 21.5277 19.8297V23.8979C21.5277 24.7889 21.3756 24.9515 21.0402 24.9515C20.1503 24.9515 17.9849 21.5122 16.6998 17.575C16.4494 16.81 16.1967 16.5013 15.526 16.5013H12.9007C12.1497 16.5013 12 16.873 12 17.2814C12 18.0149 12.8899 21.6445 16.1452 26.445C18.3155 29.723 21.3708 31.5 24.1542 31.5C25.8226 31.5 26.0286 31.1055 26.0286 30.425V27.9472C26.0286 27.1583 26.1879 26.9995 26.7161 26.9995C27.1042 26.9995 27.7725 27.2062 29.3307 28.7853C31.1105 30.6581 31.4051 31.4987 32.4052 31.4987H35.0305C35.7803 31.4987 36.1552 31.1043 35.9396 30.3254C35.7036 29.5503 34.8533 28.4224 33.725 27.0877C33.1118 26.3265 32.1956 25.5073 31.9165 25.0977C31.5273 24.5697 31.6398 24.3365 31.9165 23.8677C31.9177 23.8689 35.1168 19.1277 35.4497 17.5158Z" fill="white"/>
</svg>
