<svg width="150" height="50" viewBox="0 0 150 50" fill="none" xmlns="http://www.w3.org/2000/svg">
<g clip-path="url(#clip0_11741_14982)">
<path d="M0 11.8828V38.1178L22.93 24.9998L0 11.8828Z" fill="#FF1635"/>
<path d="M34.2803 24.2027C34.6913 23.7677 35.1363 23.2927 35.6143 22.7797L37.3373 20.9387C37.9283 20.3077 38.5073 19.6817 39.0763 19.0587C39.6413 18.4387 40.1723 17.8687 40.6563 17.3567C40.7235 17.2937 40.7733 17.2143 40.8009 17.1264C40.8284 17.0384 40.8326 16.9448 40.8133 16.8547C40.7733 16.6517 40.5903 16.4477 40.2783 16.4477H39.2573C39.1596 16.4477 39.0632 16.4704 38.9758 16.514C38.8883 16.5575 38.8122 16.6207 38.7533 16.6987C38.2973 17.1787 37.8083 17.7057 37.2863 18.2767L34.1313 21.7157C33.6263 22.2687 33.1643 22.7677 32.7533 23.2057C32.6783 23.2797 32.6373 23.3077 32.6383 23.3097C32.5625 23.3214 32.4859 23.3261 32.4093 23.3237H31.8093V17.0217C31.8093 16.6887 31.5753 16.4477 31.2523 16.4477H30.3903C30.3168 16.4448 30.2434 16.457 30.1749 16.4837C30.1063 16.5103 30.044 16.5508 29.9917 16.6026C29.9395 16.6543 29.8984 16.7163 29.8712 16.7846C29.8439 16.853 29.831 16.9262 29.8333 16.9997V31.6737C29.8333 32.0197 30.0773 32.2707 30.4133 32.2707H31.2533C31.5753 32.2707 31.8093 32.0287 31.8093 31.6957V25.1917H32.3633C32.4653 25.1917 32.5213 25.1997 32.5333 25.1937C32.5523 25.2087 32.5923 25.2407 32.6583 25.3047L39.1753 31.9837C39.2903 32.1347 39.4203 32.2227 39.5633 32.2507C39.6303 32.2637 39.7003 32.2707 39.7793 32.2707H40.9123C41.0319 32.2746 41.1491 32.2361 41.2432 32.162C41.3372 32.0879 41.402 31.9829 41.4263 31.8657C41.4458 31.777 41.4424 31.6848 41.4163 31.5978C41.3902 31.5109 41.3424 31.432 41.2773 31.3687L34.2803 24.2037" fill="#0055A2"/>
<path d="M51.1723 17.8663C50.6623 17.4093 50.0223 17.0463 49.2743 16.7883C48.5343 16.5333 47.6753 16.4043 46.7243 16.4043C45.6357 16.4045 44.5471 16.4268 43.4593 16.4713C43.1353 16.4713 42.9023 16.7133 42.9023 17.0453V31.7213C42.9023 32.0413 43.1353 32.2733 43.4593 32.2733H44.3213C44.3948 32.2761 44.468 32.2637 44.5364 32.237C44.6049 32.2103 44.6671 32.1698 44.7192 32.1181C44.7714 32.0663 44.8123 32.0044 44.8395 31.9361C44.8667 31.8679 44.8796 31.7947 44.8773 31.7213V26.7763C44.9633 26.7793 45.0533 26.7843 45.1473 26.7893C45.4323 26.8053 45.8663 26.8123 46.4523 26.8123C47.2524 26.8159 48.049 26.7082 48.8193 26.4923C49.5451 26.2934 50.2267 25.9592 50.8283 25.5073C51.4111 25.0595 51.8844 24.485 52.2123 23.8273C52.5523 23.1543 52.7243 22.3623 52.7243 21.4733C52.7243 20.7733 52.5943 20.1083 52.3383 19.4973C52.0771 18.8732 51.6786 18.3161 51.1723 17.8673M50.7493 21.5193C50.7493 22.1473 50.6363 22.6803 50.4133 23.1023C50.1997 23.5159 49.8883 23.8712 49.5063 24.1373C49.1163 24.4103 48.6613 24.6113 48.1523 24.7323C47.6213 24.8583 47.0493 24.9223 46.4523 24.9223C45.9273 24.9233 45.4022 24.9166 44.8773 24.9023V18.2943C45.0243 18.2863 45.1873 18.2793 45.3693 18.2723C46.1673 18.2423 47.3873 18.1923 48.3473 18.4683C48.8323 18.6093 49.2603 18.8183 49.6163 19.0903C49.9623 19.3563 50.2403 19.6953 50.4443 20.0973C50.6473 20.4983 50.7493 20.9773 50.7493 21.5193Z" fill="#0055A2"/>
<path d="M65.9592 16.4477H65.0292C64.7872 16.4477 64.5792 16.5727 64.5022 16.7317L58.5132 25.5867C58.2102 26.0377 57.9072 26.4917 57.6062 26.9497C57.3022 27.4077 57.0142 27.8467 56.7412 28.2677L56.3712 28.8457C56.3752 28.5527 56.3782 28.2457 56.3782 27.9217V16.9997C56.3805 16.9262 56.3676 16.853 56.3403 16.7846C56.313 16.7163 56.272 16.6543 56.2198 16.6026C56.1675 16.5508 56.1052 16.5103 56.0366 16.4837C55.968 16.457 55.8947 16.4448 55.8212 16.4477H54.9602C54.8883 16.4471 54.817 16.4611 54.7506 16.4888C54.6843 16.5166 54.6243 16.5575 54.5742 16.6091C54.5241 16.6607 54.4849 16.7219 54.4592 16.789C54.4334 16.8562 54.4215 16.9278 54.4242 16.9997V31.6957C54.4242 32.0277 54.6592 32.2707 54.9812 32.2707H55.9802C56.1802 32.2707 56.3622 32.1767 56.5072 31.9867L62.4072 23.3067L64.1972 20.5887C64.3292 20.3897 64.4532 20.1977 64.5702 20.0117C64.5488 20.8989 64.5388 21.7863 64.5402 22.6737V31.7177C64.5402 32.0377 64.7732 32.2697 65.0972 32.2697H65.9582C66.0301 32.2703 66.1013 32.2563 66.1676 32.2285C66.2339 32.2008 66.2939 32.1599 66.3439 32.1083C66.3939 32.0567 66.433 31.9954 66.4586 31.9283C66.4843 31.8612 66.496 31.7895 66.4932 31.7177V16.9997C66.4932 16.6867 66.2632 16.4497 65.9582 16.4497" fill="#0055A2"/>
<path d="M80.2132 16.4483H69.5983C69.5249 16.4456 69.4517 16.4579 69.3833 16.4846C69.3149 16.5113 69.2528 16.5518 69.2007 16.6036C69.1486 16.6554 69.1078 16.7174 69.0807 16.7856C69.0536 16.8539 69.0409 16.927 69.0433 17.0003V31.6963C69.0433 32.0283 69.2763 32.2713 69.5983 32.2713H70.4613C70.7843 32.2713 71.0192 32.0293 71.0192 31.6963V18.3363H78.7943V31.7183C78.7943 32.0383 79.0272 32.2703 79.3512 32.2703H80.2132C80.2867 32.2731 80.3599 32.2608 80.4283 32.2341C80.4968 32.2074 80.559 32.1669 80.6111 32.1151C80.6633 32.0633 80.7042 32.0014 80.7314 31.9332C80.7586 31.8649 80.7715 31.7918 80.7692 31.7183V17.0223C80.7692 16.6903 80.5362 16.4483 80.2132 16.4483ZM94.0762 18.3103L94.2093 18.1563C94.2619 18.0941 94.2998 18.0207 94.3203 17.9418C94.3407 17.8629 94.3431 17.7803 94.3273 17.7003L94.2073 16.9123C94.1836 16.7795 94.113 16.6597 94.0084 16.5745C93.9038 16.4893 93.7721 16.4446 93.6373 16.4483H82.7073C82.4633 16.4483 82.2533 16.5993 82.1403 16.8993L81.9523 17.6943C81.9354 17.7751 81.937 17.8587 81.9571 17.9387C81.9772 18.0187 82.0152 18.0931 82.0683 18.1563L82.2753 18.3383H87.1623V31.6963C87.1623 32.0283 87.4062 32.2713 87.7422 32.2713H88.5583C88.8943 32.2713 89.1383 32.0293 89.1383 31.6963V18.3383H93.7962L94.0762 18.3103ZM107.382 21.1323C107.055 20.1523 106.577 19.2943 105.959 18.5793C105.339 17.8609 104.575 17.2801 103.717 16.8743C102.05 16.0773 99.7713 16.0243 97.9603 16.8113C97.0994 17.1852 96.3287 17.7393 95.7002 18.4363C95.0662 19.1353 94.5643 19.9933 94.2063 20.9873C93.8503 21.9753 93.6693 23.0973 93.6693 24.3253C93.6693 25.4733 93.8292 26.5533 94.1442 27.5373C94.4388 28.4872 94.9172 29.37 95.5523 30.1353C96.1745 30.872 96.9503 31.4639 97.8252 31.8693C98.7122 32.2863 99.7303 32.4953 100.848 32.4953C101.825 32.4953 102.756 32.3153 103.618 31.9553C104.482 31.5965 105.253 31.0467 105.874 30.3473C106.501 29.6483 106.994 28.7773 107.346 27.7603C107.692 26.7503 107.869 25.5803 107.869 24.2803C107.877 23.2117 107.713 22.1487 107.382 21.1323ZM105.87 24.3023C105.87 25.2623 105.754 26.1473 105.525 26.9343C105.3 27.7083 104.967 28.3753 104.536 28.9203C104.118 29.4514 103.582 29.8776 102.97 30.1653C102.353 30.4573 101.64 30.6053 100.848 30.6053C100.003 30.6053 99.2512 30.4363 98.6172 30.1053C97.9873 29.7813 97.4374 29.3212 97.0073 28.7583C96.5557 28.1561 96.2185 27.4762 96.0123 26.7523C95.7801 25.9568 95.6639 25.132 95.6673 24.3033C95.6673 23.2663 95.8073 22.3493 96.0853 21.5743C96.3593 20.8083 96.7303 20.1613 97.1883 19.6523C97.6423 19.1493 98.1783 18.7623 98.7793 18.5053C99.3982 18.2431 100.064 18.1101 100.736 18.1143C101.494 18.1143 102.195 18.2693 102.818 18.5743C103.441 18.8786 103.99 19.3143 104.427 19.8513C104.896 20.4361 105.254 21.1013 105.485 21.8143C105.74 22.5743 105.87 23.4103 105.87 24.3033" fill="#0055A2"/>
<path d="M121.163 16.4483H110.55C110.477 16.4453 110.404 16.4576 110.335 16.4842C110.266 16.5109 110.204 16.5513 110.152 16.6031C110.1 16.6549 110.059 16.7169 110.031 16.7852C110.004 16.8535 109.991 16.9267 109.993 17.0003V31.6963C109.993 32.0283 110.227 32.2713 110.55 32.2713H111.412C111.735 32.2713 111.969 32.0293 111.969 31.6963V18.3363H119.745V31.7183C119.745 32.0383 119.979 32.2703 120.302 32.2703H121.162C121.236 32.2733 121.309 32.2612 121.378 32.2346C121.447 32.208 121.509 32.1676 121.562 32.1158C121.614 32.064 121.655 32.002 121.682 31.9336C121.71 31.8652 121.723 31.7919 121.72 31.7183V17.0223C121.72 16.6903 121.486 16.4483 121.163 16.4483ZM133.117 17.8653C132.608 17.4083 131.969 17.0453 131.219 16.7873C130.479 16.5323 129.621 16.4033 128.671 16.4033C127.971 16.4033 127.321 16.4113 126.721 16.4263C126.118 16.4413 125.671 16.4563 125.405 16.4703C125.081 16.4703 124.847 16.7123 124.847 17.0443V31.7203C124.847 32.0403 125.081 32.2723 125.405 32.2723H126.266C126.34 32.2752 126.413 32.2629 126.482 32.2363C126.55 32.2096 126.612 32.1691 126.665 32.1174C126.717 32.0656 126.758 32.0036 126.785 31.9352C126.812 31.8669 126.825 31.7937 126.822 31.7203V26.7753C126.908 26.7783 126.998 26.7833 127.092 26.7883C127.377 26.8043 127.812 26.8113 128.399 26.8113C129.199 26.8145 129.995 26.7068 130.765 26.4913C131.491 26.2923 132.173 25.9582 132.775 25.5063C133.358 25.0585 133.83 24.484 134.157 23.8263C134.497 23.1533 134.669 22.3613 134.669 21.4723C134.669 20.7753 134.54 20.1093 134.285 19.4953C134.023 18.8715 133.624 18.3148 133.117 17.8663M132.694 21.5183C132.694 22.1453 132.582 22.6783 132.359 23.1013C132.138 23.5223 131.833 23.8713 131.453 24.1373C131.063 24.4093 130.608 24.6103 130.098 24.7313C129.568 24.8573 128.996 24.9213 128.398 24.9213C127.873 24.9223 127.348 24.9156 126.822 24.9013V18.2933C126.969 18.2863 127.132 18.2783 127.315 18.2713C128.112 18.2413 129.335 18.1913 130.291 18.4673C130.779 18.6083 131.206 18.8173 131.562 19.0913C131.909 19.3543 132.186 19.6933 132.389 20.0963C132.591 20.4973 132.694 20.9763 132.694 21.5183ZM149.511 21.1323C149.186 20.1543 148.707 19.2953 148.09 18.5793C147.469 17.8608 146.705 17.2801 145.846 16.8743C144.974 16.4573 143.979 16.2463 142.888 16.2463C141.927 16.2396 140.974 16.4319 140.09 16.8113C139.23 17.1851 138.459 17.7393 137.83 18.4363C137.195 19.1373 136.692 19.9963 136.337 20.9873C135.98 21.9733 135.801 23.0953 135.801 24.3253C135.801 25.4753 135.96 26.5553 136.275 27.5383C136.593 28.5333 137.069 29.4083 137.684 30.1353C138.306 30.8719 139.08 31.4637 139.954 31.8693C140.843 32.2863 141.86 32.4953 142.979 32.4953C143.955 32.4953 144.886 32.3153 145.749 31.9553C146.613 31.5959 147.384 31.0462 148.005 30.3473C148.631 29.6473 149.125 28.7773 149.476 27.7603C149.824 26.7503 149.999 25.5803 149.999 24.2803C150.007 23.2115 149.842 22.1485 149.511 21.1323ZM148 24.3023C148 25.2603 147.884 26.1453 147.656 26.9343C147.43 27.7093 147.096 28.3773 146.666 28.9203C146.249 29.4508 145.713 29.877 145.102 30.1653C144.484 30.4573 143.77 30.6053 142.979 30.6053C142.133 30.6053 141.382 30.4363 140.749 30.1053C140.119 29.7809 139.569 29.3209 139.137 28.7583C138.686 28.156 138.35 27.4761 138.144 26.7523C137.911 25.9566 137.795 25.1314 137.798 24.3023C137.798 23.2643 137.938 22.3463 138.215 21.5733C138.488 20.8093 138.859 20.1623 139.318 19.6523C139.759 19.1583 140.303 18.7666 140.91 18.5043C141.529 18.2422 142.194 18.1091 142.865 18.1133C143.625 18.1133 144.325 18.2683 144.948 18.5733C145.571 18.8774 146.12 19.3127 146.558 19.8493C147.007 20.3983 147.362 21.0593 147.614 21.8143C147.871 22.5713 148 23.4083 148 24.3033" fill="#FF1635"/>
<path d="M50.2003 35.654L49.9753 36.15C45.9863 42.822 38.6903 46.962 30.9003 46.962C22.2853 46.962 14.3823 41.923 10.7673 34.127L8.02832 35.537C12.1663 44.323 21.1443 50 30.9003 50C39.5213 50 47.4133 45.716 52.0983 38.52L150 38.518V35.652L50.2003 35.654ZM49.4503 13.045H53.0363C50.8521 9.0883 47.6457 5.79047 43.752 3.49585C39.8582 1.20122 35.4199 -0.00607078 30.9003 2.29545e-05C21.1443 2.29545e-05 12.1663 5.67702 8.03032 14.464L10.7673 15.874C14.3813 8.07502 22.2843 3.03702 30.9003 3.03702C38.3663 3.03702 45.3713 6.84902 49.4523 13.044" fill="#0055A2"/>
</g>
<defs>
<clipPath id="clip0_11741_14982">
<rect width="150" height="50" fill="white"/>
</clipPath>
</defs>
</svg>
