<svg width="35" height="41" viewBox="0 0 35 41" fill="none" xmlns="http://www.w3.org/2000/svg">
<path d="M27.0455 0H2.66906C1.94702 0.0191924 1.26169 0.323717 0.761985 0.847403C0.262284 1.37109 -0.0114139 2.07162 0.00036503 2.79679V38.2032C-0.0114139 38.9284 0.262284 39.6289 0.761985 40.1526C1.26169 40.6763 1.94702 40.9808 2.66906 41H32.3309C33.053 40.9808 33.7383 40.6763 34.238 40.1526C34.7377 39.6289 35.0114 38.9284 34.9996 38.2032V7.36719L27.0455 0ZM27.0455 2.92857L32.083 7.36719H27.0455V2.92857ZM2.22727 38.7578V1.92188H25.4545V8.96875H32.7727V38.7578H2.22727Z" fill="#F29727"/>
<path d="M18.1791 24.0905C17.7334 24.0938 17.3017 24.2463 16.9528 24.5237C16.6039 24.801 16.3579 25.1872 16.2541 25.6206C16.1503 26.054 16.1946 26.5097 16.3799 26.915C16.5653 27.3203 16.881 27.6519 17.2768 27.8568V30.2243H18.9323V27.9313C19.3598 27.7562 19.7131 27.4381 19.9322 27.0315C20.1512 26.6248 20.2224 26.1547 20.1335 25.7015C20.0446 25.2482 19.8012 24.8398 19.4447 24.546C19.0883 24.2522 18.641 24.0912 18.1791 24.0905Z" fill="url(#paint0_linear)"/>
<path d="M24.7278 19.4631V15.9202C24.7633 14.1255 24.0865 12.3898 22.8455 11.0929C21.6044 9.79594 19.9001 9.04343 18.1056 9C16.311 9.04343 14.6067 9.79594 13.3657 11.0929C12.1246 12.3898 11.4478 14.1255 11.4833 15.9202V19.4631H9V33.5354C9 33.9744 9.17442 34.3955 9.4849 34.706C9.79538 35.0165 10.2165 35.1909 10.6556 35.1909H25.5556C25.9946 35.1909 26.4157 35.0165 26.7262 34.706C27.0367 34.3955 27.2111 33.9744 27.2111 33.5354V19.4631H24.7278ZM13.1389 15.9202C13.1032 14.5645 13.6056 13.2498 14.5362 12.2633C15.4668 11.2769 16.7501 10.6988 18.1056 10.6556C19.461 10.6988 20.7443 11.2769 21.6749 12.2633C22.6056 13.2498 23.1079 14.5645 23.0722 15.9202V19.4631H13.1389V15.9202ZM10.6556 33.5354V21.1187H25.5556V33.5354H10.6556Z" fill="url(#paint1_linear)"/>
<line x1="10" y1="3.75" x2="5" y2="3.75" stroke="url(#paint2_linear)" stroke-width="1.5"/>
<line x1="4.25" y1="10" x2="4.25" y2="3" stroke="url(#paint3_linear)" stroke-width="1.5"/>
<defs>
<linearGradient id="paint0_linear" x1="15.4734" y1="30.2243" x2="20.6714" y2="30.1114" gradientUnits="userSpaceOnUse">
<stop stop-color="#FFAA41"/>
<stop offset="1" stop-color="#F37807"/>
</linearGradient>
<linearGradient id="paint1_linear" x1="5.67176" y1="35.1909" x2="29.5047" y2="34.6349" gradientUnits="userSpaceOnUse">
<stop stop-color="#FFAA41"/>
<stop offset="1" stop-color="#F37807"/>
</linearGradient>
<linearGradient id="paint2_linear" x1="10.9138" y1="2" x2="4.54593" y2="3.06823" gradientUnits="userSpaceOnUse">
<stop stop-color="#FFAA41"/>
<stop offset="1" stop-color="#F37807"/>
</linearGradient>
<linearGradient id="paint3_linear" x1="6" y1="11.2793" x2="3.95987" y2="2.59256" gradientUnits="userSpaceOnUse">
<stop stop-color="#FFAA41"/>
<stop offset="1" stop-color="#F37807"/>
</linearGradient>
</defs>
</svg>
