<svg width="24" height="24" viewBox="0 0 24 24" fill="none" xmlns="http://www.w3.org/2000/svg">
<path d="M11.0988 3C7.4498 3.00657 5.53898 3.09617 4.31783 4.31752C3 5.63556 3 7.75692 3 11.9996C3 16.2423 3 18.3637 4.31783 19.6817C5.63565 20.9998 7.75668 20.9998 11.9987 20.9998C16.2407 20.9998 18.3617 20.9998 19.6796 19.6817C20.9007 18.4604 20.9903 16.5492 20.9969 12.8997" stroke="#717171" stroke-width="1.5" stroke-linecap="round" stroke-linejoin="round"/>
<path d="M20.5542 3.49503L11.0469 13.0576M20.5542 3.49503C20.0603 3.00041 16.7326 3.04651 16.0291 3.05652M20.5542 3.49503C21.0482 3.98964 21.0022 7.32163 20.9922 8.02604" stroke="#717171" stroke-width="1.5" stroke-linecap="round" stroke-linejoin="round"/>
</svg>
