<svg width="15" height="15" viewBox="0 0 15 15" fill="none" xmlns="http://www.w3.org/2000/svg">
<circle cx="7.5" cy="7.5" r="7.5" fill="#E83038"/>
<path d="M10.2692 3.90444L10.8242 4.45944C10.8735 4.50877 10.8746 4.55701 10.8275 4.60415L4.60494 10.8267C4.5578 10.8738 4.50956 10.8727 4.46023 10.8234L3.90523 10.2684C3.8559 10.2191 3.8548 10.1708 3.90194 10.1237L10.1245 3.90116C10.1716 3.85401 10.2199 3.85511 10.2692 3.90444Z" fill="white"/>
<path d="M4.58962 3.92019L10.8056 10.1362C10.8549 10.1855 10.856 10.2337 10.8089 10.2809L10.2785 10.8112C10.2314 10.8583 10.1832 10.8572 10.1338 10.8079L3.91787 4.59194C3.86854 4.54261 3.86744 4.49437 3.91458 4.44723L4.44491 3.9169C4.49205 3.86976 4.54029 3.87086 4.58962 3.92019Z" fill="white"/>
</svg>
