<svg width="35" height="41" viewBox="0 0 35 41" fill="none" xmlns="http://www.w3.org/2000/svg">
<path d="M34.0625 7.3303C31.23 6.5789 28.4627 5.60253 25.7875 4.41061C23.1555 3.27579 20.6148 1.94251 18.1875 0.422424L17.5 0L16.825 0.434849C14.3977 1.95493 11.857 3.28822 9.225 4.42303C6.54536 5.61134 3.77393 6.58356 0.9375 7.3303L0 7.56636V17.9282C0 34.5642 16.9125 40.7888 17.075 40.8509L17.5 41L17.925 40.8509C18.1 40.8509 35 34.5767 35 17.9282V7.56636L34.0625 7.3303ZM32.5 17.9282C32.5 31.5948 20 37.3224 17.5 38.3412C15 37.3224 2.5 31.5824 2.5 17.9282V9.49212C5.13684 8.73867 7.71801 7.80462 10.225 6.69667C12.7321 5.61948 15.1627 4.37418 17.5 2.96939C19.8373 4.37418 22.2679 5.61948 24.775 6.69667C27.282 7.80462 29.8632 8.73867 32.5 9.49212V17.9282Z" fill="url(#paint0_linear)"/>
<path d="M13.152 17.8682H11.376C11.304 17.0202 10.764 16.5962 9.756 16.5962C9.324 16.5962 8.984 16.6842 8.736 16.8602C8.496 17.0282 8.376 17.2642 8.376 17.5682C8.376 17.6722 8.392 17.7642 8.424 17.8442C8.456 17.9242 8.516 18.0002 8.604 18.0722C8.692 18.1362 8.78 18.1922 8.868 18.2402C8.956 18.2802 9.084 18.3282 9.252 18.3842C9.428 18.4322 9.584 18.4762 9.72 18.5162C9.864 18.5562 10.064 18.6082 10.32 18.6722C10.576 18.7362 10.8 18.7962 10.992 18.8522C11.832 19.0922 12.456 19.3922 12.864 19.7522C13.28 20.1122 13.488 20.6282 13.488 21.3002C13.488 21.7882 13.388 22.2162 13.188 22.5842C12.988 22.9442 12.716 23.2322 12.372 23.4482C12.036 23.6562 11.664 23.8082 11.256 23.9042C10.856 24.0082 10.428 24.0602 9.972 24.0602C8.812 24.0602 7.904 23.7962 7.248 23.2682C6.6 22.7322 6.272 21.9802 6.264 21.0122H8.124C8.156 22.0842 8.8 22.6202 10.056 22.6202C10.544 22.6202 10.928 22.5202 11.208 22.3202C11.496 22.1122 11.64 21.8322 11.64 21.4802C11.64 21.1842 11.508 20.9682 11.244 20.8322C10.988 20.6962 10.444 20.5082 9.612 20.2682C9.476 20.2362 9.372 20.2082 9.3 20.1842C9.012 20.1042 8.812 20.0482 8.7 20.0162C8.588 19.9762 8.408 19.9122 8.16 19.8242C7.92 19.7362 7.744 19.6562 7.632 19.5842C7.52 19.5122 7.38 19.4122 7.212 19.2842C7.052 19.1562 6.936 19.0242 6.864 18.8882C6.792 18.7442 6.724 18.5722 6.66 18.3722C6.604 18.1642 6.576 17.9402 6.576 17.7002C6.576 16.9242 6.876 16.3042 7.476 15.8402C8.076 15.3762 8.872 15.1442 9.864 15.1442C10.824 15.1442 11.608 15.3722 12.216 15.8282C12.824 16.2762 13.136 16.9562 13.152 17.8682ZM20.945 17.8682H19.169C19.097 17.0202 18.557 16.5962 17.549 16.5962C17.117 16.5962 16.777 16.6842 16.529 16.8602C16.289 17.0282 16.169 17.2642 16.169 17.5682C16.169 17.6722 16.185 17.7642 16.217 17.8442C16.249 17.9242 16.309 18.0002 16.397 18.0722C16.485 18.1362 16.573 18.1922 16.661 18.2402C16.749 18.2802 16.877 18.3282 17.045 18.3842C17.221 18.4322 17.377 18.4762 17.513 18.5162C17.657 18.5562 17.857 18.6082 18.113 18.6722C18.369 18.7362 18.593 18.7962 18.785 18.8522C19.625 19.0922 20.249 19.3922 20.657 19.7522C21.073 20.1122 21.281 20.6282 21.281 21.3002C21.281 21.7882 21.181 22.2162 20.981 22.5842C20.781 22.9442 20.509 23.2322 20.165 23.4482C19.829 23.6562 19.457 23.8082 19.049 23.9042C18.649 24.0082 18.221 24.0602 17.765 24.0602C16.605 24.0602 15.697 23.7962 15.041 23.2682C14.393 22.7322 14.065 21.9802 14.057 21.0122H15.917C15.949 22.0842 16.593 22.6202 17.849 22.6202C18.337 22.6202 18.721 22.5202 19.001 22.3202C19.289 22.1122 19.433 21.8322 19.433 21.4802C19.433 21.1842 19.301 20.9682 19.037 20.8322C18.781 20.6962 18.237 20.5082 17.405 20.2682C17.269 20.2362 17.165 20.2082 17.093 20.1842C16.805 20.1042 16.605 20.0482 16.493 20.0162C16.381 19.9762 16.201 19.9122 15.953 19.8242C15.713 19.7362 15.537 19.6562 15.425 19.5842C15.313 19.5122 15.173 19.4122 15.005 19.2842C14.845 19.1562 14.729 19.0242 14.657 18.8882C14.585 18.7442 14.517 18.5722 14.453 18.3722C14.397 18.1642 14.369 17.9402 14.369 17.7002C14.369 16.9242 14.669 16.3042 15.269 15.8402C15.869 15.3762 16.665 15.1442 17.657 15.1442C18.617 15.1442 19.401 15.3722 20.009 15.8282C20.617 16.2762 20.929 16.9562 20.945 17.8682ZM28.4619 22.2602V23.8682H22.4139V15.3242H24.2859V22.2602H28.4619Z" fill="url(#paint1_linear)"/>
<defs>
<linearGradient id="paint0_linear" x1="-6.39655" y1="41" x2="39.3953" y2="39.6885" gradientUnits="userSpaceOnUse">
<stop stop-color="#FFAA41"/>
<stop offset="1" stop-color="#F37807"/>
</linearGradient>
<linearGradient id="paint1_linear" x1="1.79655" y1="26.7627" x2="31.7868" y2="24.817" gradientUnits="userSpaceOnUse">
<stop stop-color="#FFAA41"/>
<stop offset="1" stop-color="#F37807"/>
</linearGradient>
</defs>
</svg>
